pt-serif_bold-italic.sfdir

StartChar: exclam
Encoding: 33 33 4
Width: 347
Flags: W
LayerCount: 2
Fore
SplineSet
158 218 m 1,0,-1
 146 412 l 1,1,-1
 200 690 l 1,2,3
 211 695 211 695 232.5 698 c 128,-1,4
 254 701 254 701 277 701 c 256,5,6
 300 701 300 701 320 698 c 128,-1,7
 340 695 340 695 350 690 c 1,8,-1
 290 412 l 1,9,-1
 202 218 l 1,10,-1
 158 218 l 1,0,-1
72 71 m 256,11,12
 72 107 72 107 95 129 c 128,-1,13
 118 151 118 151 156 151 c 256,14,15
 194 151 194 151 218 129 c 128,-1,16
 242 107 242 107 242 71 c 256,17,18
 242 35 242 35 218 13.5 c 128,-1,19
 194 -8 194 -8 156 -8 c 256,20,21
 118 -8 118 -8 95 13.5 c 128,-1,22
 72 35 72 35 72 71 c 256,11,12
EndSplineSet
EndChar

StartChar: dollar
Encoding: 36 36 7
Width: 560
Flags: W
LayerCount: 2
Fore
SplineSet
198 -12 m 1,0,1
 171 -11 171 -11 142 -5.5 c 128,-1,2
 113 0 113 0 87.5 7 c 128,-1,3
 62 14 62 14 42 22.5 c 128,-1,4
 22 31 22 31 13 39 c 1,5,6
 25 85 25 85 40.5 118.5 c 128,-1,7
 56 152 56 152 72 175 c 1,8,-1
 113 175 l 1,9,-1
 143 78 l 1,10,11
 151 70 151 70 168.5 62.5 c 128,-1,12
 186 55 186 55 212 53 c 1,13,-1
 264 297 l 1,14,15
 237 315 237 315 210 333.5 c 128,-1,16
 183 352 183 352 160.5 375.5 c 128,-1,17
 138 399 138 399 124 429.5 c 128,-1,18
 110 460 110 460 110 502 c 0,19,20
 110 546 110 546 127 582.5 c 128,-1,21
 144 619 144 619 175.5 646.5 c 128,-1,22
 207 674 207 674 251.5 690.5 c 128,-1,23
 296 707 296 707 351 710 c 1,24,-1
 362 760 l 1,25,-1
 432 760 l 1,26,-1
 421 711 l 1,27,28
 469 709 469 709 507.5 700.5 c 128,-1,29
 546 692 546 692 578 677 c 1,30,31
 569 636 569 636 554.5 610 c 128,-1,32
 540 584 540 584 526 564 c 1,33,-1
 484 564 l 1,34,-1
 444 636 l 1,35,36
 427 641 427 641 408 644 c 1,37,-1
 360 419 l 1,38,39
 387 402 387 402 414 383.5 c 128,-1,40
 441 365 441 365 463.5 340.5 c 128,-1,41
 486 316 486 316 500 284 c 128,-1,42
 514 252 514 252 514 207 c 0,43,44
 514 164 514 164 497.5 127 c 128,-1,45
 481 90 481 90 450 61.5 c 128,-1,46
 419 33 419 33 373 14.5 c 128,-1,47
 327 -4 327 -4 269 -10 c 1,48,-1
 256 -70 l 1,49,-1
 186 -70 l 1,50,-1
 198 -12 l 1,0,1
255 548 m 0,51,52
 255 516 255 516 269.5 494.5 c 128,-1,53
 284 473 284 473 307 455 c 1,54,-1
 348 644 l 1,55,56
 306 638 306 638 280.5 613.5 c 128,-1,57
 255 589 255 589 255 548 c 0,51,52
364 155 m 0,58,59
 364 188 364 188 350.5 212 c 128,-1,60
 337 236 337 236 315 256 c 1,61,-1
 273 57 l 1,62,63
 310 65 310 65 337 89 c 128,-1,64
 364 113 364 113 364 155 c 0,58,59
EndSplineSet
EndChar

StartChar: ampersand
Encoding: 38 38 9
Width: 898
Flags: W
LayerCount: 2
Fore
SplineSet
477 116 m 1,0,1
 451 143 451 143 425.5 178 c 128,-1,2
 400 213 400 213 378.5 249 c 128,-1,3
 357 285 357 285 340 319 c 128,-1,4
 323 353 323 353 314 377 c 1,5,6
 272 340 272 340 248 294 c 128,-1,7
 224 248 224 248 223 195 c 0,8,9
 223 168 223 168 231.5 144 c 128,-1,10
 240 120 240 120 256 102 c 128,-1,11
 272 84 272 84 296 73.5 c 128,-1,12
 320 63 320 63 351 63 c 0,13,14
 381 63 381 63 415 75.5 c 128,-1,15
 449 88 449 88 477 116 c 1,0,1
369 563 m 0,16,17
 369 532 369 532 380 503.5 c 128,-1,18
 391 475 391 475 408 448 c 1,19,20
 447 474 447 474 474.5 511.5 c 128,-1,21
 502 549 502 549 502 592 c 0,22,23
 502 618 502 618 491 637.5 c 128,-1,24
 480 657 480 657 451 657 c 0,25,26
 416 657 416 657 392.5 630 c 128,-1,27
 369 603 369 603 369 563 c 0,16,17
600 0 m 1,28,29
 582 12 582 12 558.5 28.5 c 128,-1,30
 535 45 535 45 515 71 c 1,31,32
 496 55 496 55 471 40 c 128,-1,33
 446 25 446 25 417 13.5 c 128,-1,34
 388 2 388 2 356.5 -5 c 128,-1,35
 325 -12 325 -12 293 -12 c 0,36,37
 229 -12 229 -12 185.5 3.5 c 128,-1,38
 142 19 142 19 115 44 c 128,-1,39
 88 69 88 69 76.5 100.5 c 128,-1,40
 65 132 65 132 65 164 c 0,41,42
 65 212 65 212 87.5 254 c 128,-1,43
 110 296 110 296 143 330.5 c 128,-1,44
 176 365 176 365 214 391.5 c 128,-1,45
 252 418 252 418 284 434 c 1,46,47
 266 461 266 461 257 491.5 c 128,-1,48
 248 522 248 522 248 551 c 0,49,50
 248 587 248 587 263.5 616.5 c 128,-1,51
 279 646 279 646 305.5 667.5 c 128,-1,52
 332 689 332 689 368 700.5 c 128,-1,53
 404 712 404 712 445 712 c 0,54,55
 520 712 520 712 554 681 c 128,-1,56
 588 650 588 650 588 598 c 0,57,58
 588 568 588 568 573.5 539.5 c 128,-1,59
 559 511 559 511 535.5 486 c 128,-1,60
 512 461 512 461 483.5 439.5 c 128,-1,61
 455 418 455 418 428 403 c 1,62,63
 478 307 478 307 573 201 c 1,64,65
 583 212 583 212 598.5 238 c 128,-1,66
 614 264 614 264 628.5 297 c 128,-1,67
 643 330 643 330 652.5 367 c 128,-1,68
 662 404 662 404 661 437 c 1,69,70
 646 440 646 440 635.5 446 c 128,-1,71
 625 452 625 452 614 461 c 1,72,-1
 622 500 l 1,73,-1
 850 500 l 1,74,-1
 841 461 l 1,75,76
 811 445 811 445 770 437 c 1,77,78
 756 394 756 394 737 352 c 128,-1,79
 718 310 718 310 697 273 c 128,-1,80
 676 236 676 236 654.5 207 c 128,-1,81
 633 178 633 178 615 162 c 1,82,83
 644 131 644 131 674.5 107 c 128,-1,84
 705 83 705 83 736 63 c 1,85,-1
 782 39 l 1,86,-1
 774 0 l 1,87,-1
 600 0 l 1,28,29
EndSplineSet
EndChar

StartChar: quotesingle
Encoding: 39 39 10
Width: 312
Flags: W
LayerCount: 2
Fore
SplineSet
94 713 m 1,0,1
 105 730 105 730 131 741 c 128,-1,2
 157 752 157 752 187 752 c 0,3,4
 215 752 215 752 238.5 742 c 128,-1,5
 262 732 262 732 265 713 c 1,6,-1
 162 472 l 1,7,-1
 113 472 l 1,8,-1
 94 713 l 1,0,1
EndSplineSet
Substitution2: "'c2sc' Capitals to Small Capitals lookup 12 subtable" uniF634
Substitution2: "'aalt' Access All Alternates lookup 0 subtable" uniF634
EndChar

StartChar: parenleft
Encoding: 40 40 11
Width: 374
Flags: W
LayerCount: 2
Fore
SplineSet
249 -210 m 1,0,1
 207 -181 207 -181 171.5 -147 c 128,-1,2
 136 -113 136 -113 110 -72 c 128,-1,3
 84 -31 84 -31 69.5 18.5 c 128,-1,4
 55 68 55 68 55 128 c 0,5,6
 55 241 55 241 91.5 332.5 c 128,-1,7
 128 424 128 424 185 495.5 c 128,-1,8
 242 567 242 567 311.5 618.5 c 128,-1,9
 381 670 381 670 446 702 c 1,10,-1
 469 671 l 1,11,12
 419 629 419 629 369.5 574 c 128,-1,13
 320 519 320 519 279.5 451.5 c 128,-1,14
 239 384 239 384 214 303.5 c 128,-1,15
 189 223 189 223 189 131 c 0,16,17
 189 86 189 86 194 45.5 c 128,-1,18
 199 5 199 5 211 -32.5 c 128,-1,19
 223 -70 223 -70 242 -105.5 c 128,-1,20
 261 -141 261 -141 289 -177 c 1,21,-1
 249 -210 l 1,0,1
EndSplineSet
Position2: "'case' Case-Sensitive Forms lookup 1 per glyph data 3" dx=0 dy=100 dh=0 dv=0
EndChar

StartChar: parenright
Encoding: 41 41 12
Width: 374
Flags: W
LayerCount: 2
Fore
SplineSet
-80 -177 m 1,0,1
 -35 -141 -35 -141 14.5 -87 c 128,-1,2
 64 -33 64 -33 104.5 37.5 c 128,-1,3
 145 108 145 108 171.5 192.5 c 128,-1,4
 198 277 198 277 198 375 c 0,5,6
 198 417 198 417 194 454 c 128,-1,7
 190 491 190 491 178.5 526 c 128,-1,8
 167 561 167 561 148 596 c 128,-1,9
 129 631 129 631 99 671 c 1,10,-1
 136 702 l 1,11,12
 236 636 236 636 284 551 c 128,-1,13
 332 466 332 466 332 355 c 0,14,15
 332 250 332 250 297.5 160.5 c 128,-1,16
 263 71 263 71 208 -1 c 128,-1,17
 153 -73 153 -73 84 -125.5 c 128,-1,18
 15 -178 15 -178 -55 -210 c 1,19,-1
 -80 -177 l 1,0,1
EndSplineSet
Position2: "'case' Case-Sensitive Forms lookup 1 per glyph data 3" dx=0 dy=100 dh=0 dv=0
EndChar

StartChar: asterisk
Encoding: 42 42 13
Width: 463
Flags: W
LayerCount: 2
Fore
SplineSet
122 597 m 1,0,1
 116 605 116 605 120 621.5 c 128,-1,2
 124 638 124 638 133 654.5 c 128,-1,3
 142 671 142 671 155 683.5 c 128,-1,4
 168 696 168 696 180 697 c 1,5,-1
 270 591 l 1,6,7
 270 576 270 576 258 569 c 1,8,-1
 122 597 l 1,0,1
182 429 m 1,9,10
 171 429 171 429 158.5 441.5 c 128,-1,11
 146 454 146 454 136 470.5 c 128,-1,12
 126 487 126 487 121.5 504 c 128,-1,13
 117 521 117 521 122 530 c 1,14,-1
 257 556 l 1,15,16
 270 549 270 549 270 535 c 1,17,-1
 182 429 l 1,9,10
356 395 m 1,18,19
 351 387 351 387 335 382.5 c 128,-1,20
 319 378 319 378 300 378 c 0,21,22
 280 377 280 377 263.5 381 c 128,-1,23
 247 385 247 385 242 393 c 1,24,-1
 285 524 l 1,25,26
 298 532 298 532 312 524 c 1,27,-1
 356 395 l 1,18,19
469 530 m 1,28,29
 475 519 475 519 472 502 c 128,-1,30
 469 485 469 485 460 469 c 128,-1,31
 451 453 451 453 438.5 441.5 c 128,-1,32
 426 430 426 430 414 430 c 1,33,-1
 327 533 l 1,34,35
 327 546 327 546 339 554 c 1,36,-1
 469 530 l 1,28,29
417 696 m 1,37,38
 429 697 429 697 440 686.5 c 128,-1,39
 451 676 451 676 459.5 660.5 c 128,-1,40
 468 645 468 645 471.5 627.5 c 128,-1,41
 475 610 475 610 471 598 c 1,42,-1
 337 568 l 1,43,44
 325 577 325 577 325 590 c 1,45,-1
 417 696 l 1,37,38
241 731 m 1,46,47
 246 741 246 741 262 745.5 c 128,-1,48
 278 750 278 750 297 750 c 256,49,50
 316 750 316 750 332 745.5 c 128,-1,51
 348 741 348 741 353 731 c 1,52,-1
 311 600 l 1,53,54
 298 592 298 592 284 600 c 1,55,-1
 241 731 l 1,46,47
EndSplineSet
EndChar

StartChar: plus
Encoding: 43 43 14
Width: 560
Flags: W
LayerCount: 2
Fore
SplineSet
65 384 m 1,0,-1
 250 384 l 1,1,-1
 250 580 l 1,2,-1
 330 580 l 1,3,-1
 330 384 l 1,4,-1
 515 384 l 1,5,-1
 515 304 l 1,6,-1
 330 304 l 1,7,-1
 330 102 l 1,8,-1
 250 102 l 1,9,-1
 250 304 l 1,10,-1
 65 304 l 1,11,-1
 65 384 l 1,0,-1
EndSplineSet
EndChar

StartChar: comma
Encoding: 44 44 15
Width: 306
Flags: W
LayerCount: 2
Fore
SplineSet
-22 -131 m 1,0,1
 -1 -125 -1 -125 17.5 -113 c 128,-1,2
 36 -101 36 -101 50.5 -86 c 128,-1,3
 65 -71 65 -71 74.5 -54 c 128,-1,4
 84 -37 84 -37 87 -21 c 1,5,6
 78 -3 78 -3 60 8 c 128,-1,7
 42 19 42 19 22 26 c 1,8,9
 21 47 21 47 29 68 c 128,-1,10
 37 89 37 89 50.5 107 c 128,-1,11
 64 125 64 125 81 137.5 c 128,-1,12
 98 150 98 150 113 153 c 1,13,14
 155 151 155 151 178.5 128 c 128,-1,15
 202 105 202 105 202 56 c 0,16,17
 202 15 202 15 182.5 -23.5 c 128,-1,18
 163 -62 163 -62 133 -93 c 128,-1,19
 103 -124 103 -124 65.5 -145.5 c 128,-1,20
 28 -167 28 -167 -9 -175 c 1,21,-1
 -22 -131 l 1,0,1
EndSplineSet
EndChar

StartChar: hyphen
Encoding: 45 45 16
Width: 414
Flags: W
LayerCount: 2
Fore
SplineSet
83 327 m 1,0,-1
 370 327 l 1,1,-1
 350 237 l 1,2,-1
 63 237 l 1,3,-1
 83 327 l 1,0,-1
EndSplineSet
Position2: "'case' Case-Sensitive Forms lookup 1 per glyph data 2" dx=0 dy=80 dh=0 dv=0
EndChar

StartChar: period
Encoding: 46 46 17
Width: 289
Flags: W
LayerCount: 2
Fore
SplineSet
24 71 m 256,0,1
 24 107 24 107 47 129 c 128,-1,2
 70 151 70 151 108 151 c 256,3,4
 146 151 146 151 170 129 c 128,-1,5
 194 107 194 107 194 71 c 256,6,7
 194 35 194 35 170 13.5 c 128,-1,8
 146 -8 146 -8 108 -8 c 256,9,10
 70 -8 70 -8 47 13.5 c 128,-1,11
 24 35 24 35 24 71 c 256,0,1
EndSplineSet
EndChar

StartChar: zero
Encoding: 48 48 19
Width: 560
Flags: W
LayerCount: 2
Fore
SplineSet
11 220 m 0,0,1
 11 312 11 312 33 400.5 c 128,-1,2
 55 489 55 489 98 558 c 128,-1,3
 141 627 141 627 205 669.5 c 128,-1,4
 269 712 269 712 354 712 c 0,5,6
 415 712 415 712 456 692 c 128,-1,7
 497 672 497 672 521.5 639 c 128,-1,8
 546 606 546 606 556 564 c 128,-1,9
 566 522 566 522 566 478 c 0,10,11
 566 383 566 383 543 294.5 c 128,-1,12
 520 206 520 206 476.5 138 c 128,-1,13
 433 70 433 70 369 29 c 128,-1,14
 305 -12 305 -12 223 -12 c 0,15,16
 161 -12 161 -12 120 8 c 128,-1,17
 79 28 79 28 55 60.5 c 128,-1,18
 31 93 31 93 21 134.5 c 128,-1,19
 11 176 11 176 11 220 c 0,0,1
161 194 m 0,20,21
 161 164 161 164 164.5 137 c 128,-1,22
 168 110 168 110 176.5 89 c 128,-1,23
 185 68 185 68 199.5 55.5 c 128,-1,24
 214 43 214 43 236 43 c 0,25,26
 263 43 263 43 287 62 c 128,-1,27
 311 81 311 81 331 114 c 128,-1,28
 351 147 351 147 367 191.5 c 128,-1,29
 383 236 383 236 393.5 287.5 c 128,-1,30
 404 339 404 339 410 394.5 c 128,-1,31
 416 450 416 450 416 505 c 0,32,33
 416 537 416 537 412.5 564.5 c 128,-1,34
 409 592 409 592 400 612.5 c 128,-1,35
 391 633 391 633 376.5 645 c 128,-1,36
 362 657 362 657 341 657 c 0,37,38
 313 657 313 657 288.5 637 c 128,-1,39
 264 617 264 617 244 582.5 c 128,-1,40
 224 548 224 548 208.5 502 c 128,-1,41
 193 456 193 456 182.5 404.5 c 128,-1,42
 172 353 172 353 166.5 299 c 128,-1,43
 161 245 161 245 161 194 c 0,20,21
EndSplineSet
EndChar

StartChar: one
Encoding: 49 49 20
Width: 560
Flags: W
LayerCount: 2
Fore
SplineSet
426 0 m 1,0,-1
 80 0 l 1,1,-1
 89 43 l 1,2,3
 141 65 141 65 198 77 c 1,4,-1
 296 536 l 1,5,-1
 315 595 l 1,6,7
 286 587 286 587 253.5 583.5 c 128,-1,8
 221 580 221 580 189 581 c 1,9,-1
 192 618 l 1,10,11
 249 632 249 632 316 656 c 128,-1,12
 383 680 383 680 443 712 c 1,13,-1
 477 712 l 1,14,-1
 342 77 l 1,15,16
 365 72 365 72 388.5 63.5 c 128,-1,17
 412 55 412 55 435 43 c 1,18,-1
 426 0 l 1,0,-1
EndSplineSet
Substitution2: "'sups' Superscript lookup 13 subtable" onesuperior
Substitution2: "'sinf' Scientific Inferiors lookup 6 subtable" uni2081
Substitution2: "'subs' Subscript lookup 5 subtable" uni2081
Substitution2: "'numr' Numerators lookup 4 subtable" one.numerator
AlternateSubs2: "'aalt' Access All Alternates lookup 1 subtable" one.numerator uni2081 onesuperior
EndChar

StartChar: two
Encoding: 50 50 21
Width: 560
Flags: W
LayerCount: 2
Fore
SplineSet
195 478 m 1,0,-1
 161 478 l 1,1,2
 158 493 158 493 154 513 c 128,-1,3
 150 533 150 533 147 555 c 128,-1,4
 144 577 144 577 142 598.5 c 128,-1,5
 140 620 140 620 140 638 c 1,6,7
 159 651 159 651 182 664.5 c 128,-1,8
 205 678 205 678 232.5 688.5 c 128,-1,9
 260 699 260 699 293.5 705.5 c 128,-1,10
 327 712 327 712 366 712 c 0,11,12
 421 712 421 712 458 699 c 128,-1,13
 495 686 495 686 517.5 665 c 128,-1,14
 540 644 540 644 549.5 616.5 c 128,-1,15
 559 589 559 589 559 559 c 0,16,17
 559 496 559 496 523.5 437.5 c 128,-1,18
 488 379 488 379 434.5 327 c 128,-1,19
 381 275 381 275 318.5 230.5 c 128,-1,20
 256 186 256 186 203 151 c 1,21,-1
 144 116 l 1,22,-1
 144 112 l 1,23,-1
 205 118 l 1,24,-1
 377 118 l 1,25,-1
 450 230 l 1,26,-1
 484 230 l 1,27,28
 483 206 483 206 480 173.5 c 128,-1,29
 477 141 477 141 473 108.5 c 128,-1,30
 469 76 469 76 464 47 c 128,-1,31
 459 18 459 18 455 0 c 1,32,-1
 -3 0 l 1,33,-1
 11 64 l 1,34,35
 46 90 46 90 90 124 c 128,-1,36
 134 158 134 158 180 197.5 c 128,-1,37
 226 237 226 237 270 281 c 128,-1,38
 314 325 314 325 348 371 c 128,-1,39
 382 417 382 417 403 464 c 128,-1,40
 424 511 424 511 424 556 c 0,41,42
 424 593 424 593 401.5 617.5 c 128,-1,43
 379 642 379 642 331 642 c 0,44,45
 298 642 298 642 265 633 c 1,46,-1
 195 478 l 1,0,-1
EndSplineSet
Substitution2: "'sups' Superscript lookup 13 subtable" twosuperior
Substitution2: "'sinf' Scientific Inferiors lookup 6 subtable" uni2082
Substitution2: "'subs' Subscript lookup 5 subtable" uni2082
AlternateSubs2: "'aalt' Access All Alternates lookup 1 subtable" uni2082 twosuperior
EndChar

StartChar: three
Encoding: 51 51 22
Width: 560
Flags: W
LayerCount: 2
Fore
SplineSet
222 53 m 0,0,1
 258 53 258 53 286.5 67.5 c 128,-1,2
 315 82 315 82 334.5 106 c 128,-1,3
 354 130 354 130 364.5 161.5 c 128,-1,4
 375 193 375 193 375 226 c 0,5,6
 375 256 375 256 366.5 275 c 128,-1,7
 358 294 358 294 342.5 305 c 128,-1,8
 327 316 327 316 306 320 c 128,-1,9
 285 324 285 324 261 324 c 2,10,-1
 206 324 l 1,11,-1
 211 363 l 1,12,-1
 399 560 l 1,13,-1
 445 595 l 1,14,-1
 445 599 l 1,15,-1
 390 593 l 1,16,-1
 243 593 l 1,17,-1
 182 491 l 1,18,-1
 148 491 l 1,19,20
 148 512 148 512 148.5 541 c 128,-1,21
 149 570 149 570 151 599 c 128,-1,22
 153 628 153 628 155.5 655 c 128,-1,23
 158 682 158 682 162 700 c 1,24,-1
 595 700 l 1,25,-1
 588 651 l 1,26,-1
 377 440 l 1,27,-1
 319 396 l 1,28,-1
 319 394 l 1,29,-1
 354 401 l 1,30,31
 437 396 437 396 476 352.5 c 128,-1,32
 515 309 515 309 515 240 c 0,33,34
 515 189 515 189 497.5 143 c 128,-1,35
 480 97 480 97 442.5 62.5 c 128,-1,36
 405 28 405 28 346 8 c 128,-1,37
 287 -12 287 -12 204 -12 c 0,38,39
 174 -12 174 -12 144.5 -7.5 c 128,-1,40
 115 -3 115 -3 89.5 5 c 128,-1,41
 64 13 64 13 44 24 c 128,-1,42
 24 35 24 35 12 48 c 1,43,-1
 71 152 l 1,44,-1
 100 152 l 1,45,46
 105 145 105 145 113 133.5 c 128,-1,47
 121 122 121 122 129.5 109 c 128,-1,48
 138 96 138 96 146.5 83 c 128,-1,49
 155 70 155 70 161 61 c 1,50,51
 183 53 183 53 222 53 c 0,0,1
EndSplineSet
Substitution2: "'sups' Superscript lookup 13 subtable" threesuperior
Substitution2: "'sinf' Scientific Inferiors lookup 6 subtable" uni2083
Substitution2: "'subs' Subscript lookup 5 subtable" uni2083
AlternateSubs2: "'aalt' Access All Alternates lookup 1 subtable" uni2083 threesuperior
EndChar

StartChar: four
Encoding: 52 52 23
Width: 560
Flags: W
LayerCount: 2
Fore
SplineSet
461 0 m 1,0,-1
 152 0 l 1,1,-1
 161 43 l 1,2,3
 212 60 212 60 258 67 c 1,4,-1
 282 180 l 1,5,-1
 -14 180 l 1,6,-1
 -5 225 l 1,7,-1
 482 712 l 1,8,-1
 536 712 l 1,9,-1
 437 245 l 1,10,-1
 560 245 l 1,11,-1
 546 180 l 1,12,-1
 423 180 l 1,13,-1
 399 67 l 1,14,15
 436 59 436 59 470 43 c 1,16,-1
 461 0 l 1,0,-1
341 458 m 1,17,-1
 369 528 l 1,18,-1
 366 528 l 1,19,-1
 312 458 l 1,20,-1
 129 271 l 1,21,-1
 82 238 l 1,22,-1
 155 245 l 1,23,-1
 296 245 l 1,24,-1
 341 458 l 1,17,-1
EndSplineSet
Substitution2: "'sinf' Scientific Inferiors lookup 6 subtable" uni2084
Substitution2: "'subs' Subscript lookup 5 subtable" uni2084
Substitution2: "'aalt' Access All Alternates lookup 0 subtable" uni2084
EndChar

StartChar: five
Encoding: 53 53 24
Width: 560
Flags: W
LayerCount: 2
Fore
SplineSet
572 755 m 1,0,-1
 606 755 l 1,1,2
 603 740 603 740 597 716 c 128,-1,3
 591 692 591 692 582.5 667 c 128,-1,4
 574 642 574 642 565 619.5 c 128,-1,5
 556 597 556 597 549 585 c 1,6,-1
 276 585 l 1,7,-1
 227 442 l 1,8,-1
 293 442 l 2,9,10
 346 442 346 442 386 429 c 128,-1,11
 426 416 426 416 452.5 392.5 c 128,-1,12
 479 369 479 369 492.5 337 c 128,-1,13
 506 305 506 305 506 267 c 0,14,15
 506 208 506 208 486.5 157.5 c 128,-1,16
 467 107 467 107 427.5 69 c 128,-1,17
 388 31 388 31 327.5 9.5 c 128,-1,18
 267 -12 267 -12 185 -12 c 0,19,20
 123 -12 123 -12 76.5 6.5 c 128,-1,21
 30 25 30 25 7 48 c 1,22,-1
 69 147 l 1,23,-1
 98 147 l 1,24,25
 104 140 104 140 111 129 c 128,-1,26
 118 118 118 118 125 106 c 128,-1,27
 132 94 132 94 138.5 82 c 128,-1,28
 145 70 145 70 150 61 c 1,29,30
 159 57 159 57 172 55 c 128,-1,31
 185 53 185 53 199 53 c 0,32,33
 244 53 244 53 276.5 67.5 c 128,-1,34
 309 82 309 82 330 106.5 c 128,-1,35
 351 131 351 131 361 162.5 c 128,-1,36
 371 194 371 194 371 228 c 0,37,38
 371 287 371 287 331 312 c 128,-1,39
 291 337 291 337 222 336 c 2,40,-1
 134 335 l 1,41,-1
 252 700 l 1,42,-1
 513 700 l 1,43,-1
 572 755 l 1,0,-1
EndSplineSet
EndChar

StartChar: six
Encoding: 54 54 25
Width: 560
Flags: W
LayerCount: 2
Fore
SplineSet
542 267 m 0,0,1
 542 214 542 214 523.5 163.5 c 128,-1,2
 505 113 505 113 468.5 74 c 128,-1,3
 432 35 432 35 376 11.5 c 128,-1,4
 320 -12 320 -12 245 -12 c 0,5,6
 198 -12 198 -12 159 0.5 c 128,-1,7
 120 13 120 13 92.5 38.5 c 128,-1,8
 65 64 65 64 49.5 103 c 128,-1,9
 34 142 34 142 34 194 c 0,10,11
 34 280 34 280 69.5 363.5 c 128,-1,12
 105 447 105 447 172.5 517.5 c 128,-1,13
 240 588 240 588 336.5 640.5 c 128,-1,14
 433 693 433 693 555 718 c 1,15,-1
 561 675 l 1,16,17
 436 637 436 637 350 556.5 c 128,-1,18
 264 476 264 476 222 349 c 1,19,20
 245 380 245 380 287.5 400.5 c 128,-1,21
 330 421 330 421 383 421 c 0,22,23
 466 421 466 421 504 378.5 c 128,-1,24
 542 336 542 336 542 267 c 0,0,1
392 259 m 0,25,26
 392 307 392 307 374.5 329 c 128,-1,27
 357 351 357 351 313 351 c 0,28,29
 282 351 282 351 253 333.5 c 128,-1,30
 224 316 224 316 207 293 c 1,31,32
 204 286 204 286 200 272 c 128,-1,33
 196 258 196 258 192.5 240.5 c 128,-1,34
 189 223 189 223 186.5 205.5 c 128,-1,35
 184 188 184 188 184 173 c 0,36,37
 184 147 184 147 187.5 124.5 c 128,-1,38
 191 102 191 102 199.5 85 c 128,-1,39
 208 68 208 68 223 58 c 128,-1,40
 238 48 238 48 261 48 c 0,41,42
 294 48 294 48 319 69 c 128,-1,43
 344 90 344 90 360 121.5 c 128,-1,44
 376 153 376 153 384 190 c 128,-1,45
 392 227 392 227 392 259 c 0,25,26
EndSplineSet
EndChar

StartChar: seven
Encoding: 55 55 26
Width: 560
Flags: W
LayerCount: 2
Fore
SplineSet
128 481 m 1,0,-1
 94 481 l 1,1,2
 94 502 94 502 95 532.5 c 128,-1,3
 96 563 96 563 98 594 c 128,-1,4
 100 625 100 625 103.5 653.5 c 128,-1,5
 107 682 107 682 110 700 c 1,6,-1
 578 700 l 1,7,-1
 578 656 l 1,8,9
 504 574 504 574 448 496.5 c 128,-1,10
 392 419 392 419 348.5 340.5 c 128,-1,11
 305 262 305 262 271 178.5 c 128,-1,12
 237 95 237 95 207 0 c 1,13,-1
 65 0 l 1,14,15
 129 143 129 143 209.5 275 c 128,-1,16
 290 407 290 407 400 540 c 1,17,-1
 451 588 l 1,18,-1
 401 583 l 1,19,-1
 189 583 l 1,20,-1
 128 481 l 1,0,-1
EndSplineSet
EndChar

StartChar: eight
Encoding: 56 56 27
Width: 560
Flags: W
LayerCount: 2
Fore
SplineSet
8 137 m 0,0,1
 8 173 8 173 22.5 205.5 c 128,-1,2
 37 238 37 238 63.5 264.5 c 128,-1,3
 90 291 90 291 127.5 311.5 c 128,-1,4
 165 332 165 332 212 345 c 1,5,6
 165 380 165 380 141 416.5 c 128,-1,7
 117 453 117 453 117 506 c 0,8,9
 117 548 117 548 133.5 585.5 c 128,-1,10
 150 623 150 623 182 651 c 128,-1,11
 214 679 214 679 261 695.5 c 128,-1,12
 308 712 308 712 369 712 c 0,13,14
 465 712 465 712 513.5 674.5 c 128,-1,15
 562 637 562 637 562 571 c 0,16,17
 562 540 562 540 549 511.5 c 128,-1,18
 536 483 536 483 513 458 c 128,-1,19
 490 433 490 433 456.5 414 c 128,-1,20
 423 395 423 395 383 383 c 1,21,22
 419 360 419 360 442.5 338.5 c 128,-1,23
 466 317 466 317 480.5 295 c 128,-1,24
 495 273 495 273 500.5 248.5 c 128,-1,25
 506 224 506 224 506 196 c 0,26,27
 506 154 506 154 487 116.5 c 128,-1,28
 468 79 468 79 432 50.5 c 128,-1,29
 396 22 396 22 343.5 5 c 128,-1,30
 291 -12 291 -12 225 -12 c 0,31,32
 123 -12 123 -12 65.5 25.5 c 128,-1,33
 8 63 8 63 8 137 c 0,0,1
365 170 m 0,34,35
 365 192 365 192 356 211 c 128,-1,36
 347 230 347 230 331 247.5 c 128,-1,37
 315 265 315 265 293 282 c 128,-1,38
 271 299 271 299 245 318 c 1,39,40
 218 301 218 301 199.5 279 c 128,-1,41
 181 257 181 257 169.5 233.5 c 128,-1,42
 158 210 158 210 153 187 c 128,-1,43
 148 164 148 164 148 145 c 0,44,45
 148 97 148 97 176 72.5 c 128,-1,46
 204 48 204 48 242 48 c 0,47,48
 276 48 276 48 299.5 59.5 c 128,-1,49
 323 71 323 71 337.5 88.5 c 128,-1,50
 352 106 352 106 358.5 127.5 c 128,-1,51
 365 149 365 149 365 170 c 0,34,35
253 535 m 0,52,53
 253 499 253 499 280 465 c 128,-1,54
 307 431 307 431 348 406 c 1,55,56
 392 445 392 445 411.5 487 c 128,-1,57
 431 529 431 529 431 571 c 0,58,59
 431 606 431 606 413 629 c 128,-1,60
 395 652 395 652 354 652 c 0,61,62
 330 652 330 652 311 642.5 c 128,-1,63
 292 633 292 633 279 617 c 128,-1,64
 266 601 266 601 259.5 580 c 128,-1,65
 253 559 253 559 253 535 c 0,52,53
EndSplineSet
EndChar

StartChar: nine
Encoding: 57 57 28
Width: 560
Flags: W
LayerCount: 2
Fore
SplineSet
48 438 m 0,0,1
 48 491 48 491 66.5 541.5 c 128,-1,2
 85 592 85 592 121.5 631 c 128,-1,3
 158 670 158 670 214 694 c 128,-1,4
 270 718 270 718 345 718 c 0,5,6
 392 718 392 718 431 705.5 c 128,-1,7
 470 693 470 693 497.5 667 c 128,-1,8
 525 641 525 641 540.5 602 c 128,-1,9
 556 563 556 563 556 511 c 0,10,11
 556 425 556 425 520.5 341.5 c 128,-1,12
 485 258 485 258 417.5 187.5 c 128,-1,13
 350 117 350 117 253.5 64.5 c 128,-1,14
 157 12 157 12 35 -12 c 1,15,-1
 29 31 l 1,16,17
 154 69 154 69 240 149.5 c 128,-1,18
 326 230 326 230 368 357 c 1,19,20
 345 326 345 326 302.5 305.5 c 128,-1,21
 260 285 260 285 207 285 c 0,22,23
 124 285 124 285 86 327 c 128,-1,24
 48 369 48 369 48 438 c 0,0,1
198 447 m 0,25,26
 198 399 198 399 215.5 377 c 128,-1,27
 233 355 233 355 277 355 c 0,28,29
 308 355 308 355 337 372 c 128,-1,30
 366 389 366 389 383 412 c 1,31,32
 386 419 386 419 390 433.5 c 128,-1,33
 394 448 394 448 397.5 465.5 c 128,-1,34
 401 483 401 483 403.5 500.5 c 128,-1,35
 406 518 406 518 406 533 c 0,36,37
 406 558 406 558 402.5 581 c 128,-1,38
 399 604 399 604 390.5 621 c 128,-1,39
 382 638 382 638 367 648 c 128,-1,40
 352 658 352 658 329 658 c 0,41,42
 296 658 296 658 271 637 c 128,-1,43
 246 616 246 616 230 584.5 c 128,-1,44
 214 553 214 553 206 516 c 128,-1,45
 198 479 198 479 198 447 c 0,25,26
EndSplineSet
EndChar

StartChar: colon
Encoding: 58 58 29
Width: 341
Flags: W
LayerCount: 2
Fore
SplineSet
106 429 m 256,0,1
 106 465 106 465 129 487 c 128,-1,2
 152 509 152 509 190 509 c 256,3,4
 228 509 228 509 252 487 c 128,-1,5
 276 465 276 465 276 429 c 256,6,7
 276 393 276 393 252 371.5 c 128,-1,8
 228 350 228 350 190 350 c 256,9,10
 152 350 152 350 129 371.5 c 128,-1,11
 106 393 106 393 106 429 c 256,0,1
56 71 m 256,12,13
 56 107 56 107 79 129 c 128,-1,14
 102 151 102 151 140 151 c 256,15,16
 178 151 178 151 202 129 c 128,-1,17
 226 107 226 107 226 71 c 256,18,19
 226 35 226 35 202 13.5 c 128,-1,20
 178 -8 178 -8 140 -8 c 256,21,22
 102 -8 102 -8 79 13.5 c 128,-1,23
 56 35 56 35 56 71 c 256,12,13
EndSplineSet
EndChar

StartChar: semicolon
Encoding: 59 59 30
Width: 334
Flags: W
LayerCount: 2
Fore
SplineSet
102 429 m 256,0,1
 102 465 102 465 125 487 c 128,-1,2
 148 509 148 509 186 509 c 256,3,4
 224 509 224 509 248 487 c 128,-1,5
 272 465 272 465 272 429 c 256,6,7
 272 393 272 393 248 371.5 c 128,-1,8
 224 350 224 350 186 350 c 256,9,10
 148 350 148 350 125 371.5 c 128,-1,11
 102 393 102 393 102 429 c 256,0,1
-6 -131 m 1,12,13
 15 -125 15 -125 33.5 -113 c 128,-1,14
 52 -101 52 -101 66.5 -86 c 128,-1,15
 81 -71 81 -71 90.5 -54 c 128,-1,16
 100 -37 100 -37 103 -21 c 1,17,18
 94 -3 94 -3 76 8 c 128,-1,19
 58 19 58 19 38 26 c 1,20,21
 37 47 37 47 45 68 c 128,-1,22
 53 89 53 89 66.5 107 c 128,-1,23
 80 125 80 125 97 137.5 c 128,-1,24
 114 150 114 150 129 153 c 1,25,26
 171 151 171 151 194.5 128 c 128,-1,27
 218 105 218 105 218 56 c 0,28,29
 218 15 218 15 198.5 -23.5 c 128,-1,30
 179 -62 179 -62 149 -93 c 128,-1,31
 119 -124 119 -124 81.5 -145.5 c 128,-1,32
 44 -167 44 -167 7 -175 c 1,33,-1
 -6 -131 l 1,12,13
EndSplineSet
EndChar

StartChar: less
Encoding: 60 60 31
Width: 560
Flags: W
LayerCount: 2
Fore
SplineSet
71 324 m 1,0,-1
 71 355 l 1,1,-1
 456 590 l 1,2,-1
 492 525 l 1,3,-1
 279 397 l 1,4,-1
 197 363 l 1,5,-1
 278 332 l 1,6,-1
 511 195 l 1,7,-1
 455 103 l 1,8,-1
 71 324 l 1,0,-1
EndSplineSet
EndChar

StartChar: equal
Encoding: 61 61 32
Width: 560
Flags: W
LayerCount: 2
Fore
SplineSet
65 469 m 1,0,-1
 515 469 l 1,1,-1
 515 389 l 1,2,-1
 65 389 l 1,3,-1
 65 469 l 1,0,-1
65 299 m 1,4,-1
 515 299 l 1,5,-1
 515 219 l 1,6,-1
 65 219 l 1,7,-1
 65 299 l 1,4,-1
EndSplineSet
EndChar

StartChar: greater
Encoding: 62 62 33
Width: 560
Flags: W
LayerCount: 2
Fore
SplineSet
509 369 m 1,0,-1
 509 338 l 1,1,-1
 124 103 l 1,2,-1
 89 168 l 1,3,-1
 302 296 l 1,4,-1
 383 330 l 1,5,-1
 303 361 l 1,6,-1
 69 497 l 1,7,-1
 125 590 l 1,8,-1
 509 369 l 1,0,-1
EndSplineSet
EndChar

StartChar: question
Encoding: 63 63 34
Width: 505
Flags: W
LayerCount: 2
Fore
SplineSet
204 501 m 1,0,-1
 170 501 l 1,1,2
 167 514 167 514 162.5 533.5 c 128,-1,3
 158 553 158 553 154 574.5 c 128,-1,4
 150 596 150 596 148.5 618.5 c 128,-1,5
 147 641 147 641 149 661 c 1,6,7
 192 684 192 684 241.5 698 c 128,-1,8
 291 712 291 712 357 712 c 0,9,10
 445 712 445 712 495.5 676 c 128,-1,11
 546 640 546 640 546 574 c 0,12,13
 546 524 546 524 525.5 489.5 c 128,-1,14
 505 455 505 455 474 428 c 128,-1,15
 443 401 443 401 405.5 378.5 c 128,-1,16
 368 356 368 356 334.5 331.5 c 128,-1,17
 301 307 301 307 275.5 276.5 c 128,-1,18
 250 246 250 246 243 203 c 1,19,-1
 210 203 l 1,20,21
 205 251 205 251 217 287.5 c 128,-1,22
 229 324 229 324 250 354 c 128,-1,23
 271 384 271 384 297 409 c 128,-1,24
 323 434 323 434 346 459 c 128,-1,25
 369 484 369 484 384.5 510.5 c 128,-1,26
 400 537 400 537 400 569 c 0,27,28
 400 609 400 609 379 628 c 128,-1,29
 358 647 358 647 323 647 c 0,30,31
 299 647 299 647 282 643 c 128,-1,32
 265 639 265 639 255 633 c 1,33,-1
 204 501 l 1,0,-1
142 71 m 256,34,35
 142 107 142 107 165 129 c 128,-1,36
 188 151 188 151 226 151 c 256,37,38
 264 151 264 151 288 129 c 128,-1,39
 312 107 312 107 312 71 c 256,40,41
 312 35 312 35 288 13.5 c 128,-1,42
 264 -8 264 -8 226 -8 c 256,43,44
 188 -8 188 -8 165 13.5 c 128,-1,45
 142 35 142 35 142 71 c 256,34,35
EndSplineSet
EndChar

StartChar: at
Encoding: 64 64 35
Width: 1027
Flags: W
LayerCount: 2
Fore
SplineSet
642 465 m 1,0,1
 666 476 666 476 699.5 481 c 128,-1,2
 733 486 733 486 767 485 c 1,3,-1
 718 207 l 2,4,5
 706 143 706 143 707.5 111.5 c 128,-1,6
 709 80 709 80 737 80 c 0,7,8
 760 80 760 80 789.5 95 c 128,-1,9
 819 110 819 110 845 140.5 c 128,-1,10
 871 171 871 171 889 217.5 c 128,-1,11
 907 264 907 264 907 326 c 0,12,13
 907 402 907 402 879.5 462 c 128,-1,14
 852 522 852 522 803.5 563 c 128,-1,15
 755 604 755 604 688.5 625.5 c 128,-1,16
 622 647 622 647 545 647 c 0,17,18
 458 647 458 647 385.5 616.5 c 128,-1,19
 313 586 313 586 261 532 c 128,-1,20
 209 478 209 478 180 403.5 c 128,-1,21
 151 329 151 329 151 242 c 0,22,23
 151 153 151 153 180.5 86.5 c 128,-1,24
 210 20 210 20 262 -25 c 128,-1,25
 314 -70 314 -70 385.5 -92.5 c 128,-1,26
 457 -115 457 -115 541 -115 c 0,27,28
 570 -115 570 -115 607 -108 c 128,-1,29
 644 -101 644 -101 674 -87 c 1,30,-1
 690 -144 l 1,31,32
 655 -164 655 -164 613 -172 c 128,-1,33
 571 -180 571 -180 520 -180 c 0,34,35
 431 -180 431 -180 350.5 -154 c 128,-1,36
 270 -128 270 -128 209 -76 c 128,-1,37
 148 -24 148 -24 112 54 c 128,-1,38
 76 132 76 132 76 236 c 0,39,40
 76 345 76 345 113.5 433 c 128,-1,41
 151 521 151 521 215.5 583 c 128,-1,42
 280 645 280 645 366 678.5 c 128,-1,43
 452 712 452 712 550 712 c 0,44,45
 645 712 645 712 724.5 685.5 c 128,-1,46
 804 659 804 659 861 609.5 c 128,-1,47
 918 560 918 560 950 488.5 c 128,-1,48
 982 417 982 417 982 326 c 0,49,50
 982 256 982 256 956.5 198.5 c 128,-1,51
 931 141 931 141 890 99.5 c 128,-1,52
 849 58 849 58 797 35.5 c 128,-1,53
 745 13 745 13 692 13 c 0,54,55
 662 13 662 13 640 20.5 c 128,-1,56
 618 28 618 28 604 46 c 128,-1,57
 590 64 590 64 585.5 93 c 128,-1,58
 581 122 581 122 587 165 c 1,59,-1
 583 165 l 1,60,61
 574 138 574 138 556.5 110.5 c 128,-1,62
 539 83 539 83 516.5 61.5 c 128,-1,63
 494 40 494 40 467 26.5 c 128,-1,64
 440 13 440 13 412 13 c 0,65,66
 344 13 344 13 309.5 57 c 128,-1,67
 275 101 275 101 275 169 c 0,68,69
 275 228 275 228 294.5 286 c 128,-1,70
 314 344 314 344 348.5 389.5 c 128,-1,71
 383 435 383 435 431 463.5 c 128,-1,72
 479 492 479 492 536 492 c 0,73,74
 571 492 571 492 594.5 485.5 c 128,-1,75
 618 479 618 479 642 465 c 1,0,1
622 415 m 1,76,77
 611 423 611 423 599 426.5 c 128,-1,78
 587 430 587 430 570 430 c 0,79,80
 536 430 536 430 507 404 c 128,-1,81
 478 378 478 378 457 338.5 c 128,-1,82
 436 299 436 299 424 252.5 c 128,-1,83
 412 206 412 206 412 166 c 0,84,85
 412 132 412 132 424 112.5 c 128,-1,86
 436 93 436 93 465 93 c 0,87,88
 482 93 482 93 499.5 107 c 128,-1,89
 517 121 517 121 533.5 143.5 c 128,-1,90
 550 166 550 166 565.5 194.5 c 128,-1,91
 581 223 581 223 594 251 c 1,92,-1
 622 415 l 1,76,77
EndSplineSet
Position2: "'case' Case-Sensitive Forms lookup 1 per glyph data 0" dx=0 dy=55 dh=0 dv=0
EndChar

StartChar: A
Encoding: 65 65 36
Width: 724
Flags: W
LayerCount: 2
Fore
SplineSet
205 0 m 1,0,-1
 -44 0 l 1,1,-1
 -37 38 l 1,2,3
 -19 48 -19 48 1 55.5 c 128,-1,4
 21 63 21 63 41 67 c 1,5,-1
 437 712 l 1,6,-1
 510 712 l 1,7,-1
 623 67 l 1,8,9
 642 63 642 63 660.5 55 c 128,-1,10
 679 47 679 47 692 38 c 1,11,-1
 684 0 l 1,12,-1
 376 0 l 1,13,-1
 383 38 l 1,14,15
 404 48 404 48 427.5 55.5 c 128,-1,16
 451 63 451 63 472 67 c 1,17,-1
 448 226 l 1,18,-1
 227 226 l 1,19,-1
 132 67 l 1,20,21
 153 64 153 64 174 56.5 c 128,-1,22
 195 49 195 49 212 38 c 1,23,-1
 205 0 l 1,0,-1
261 291 m 1,24,-1
 440 291 l 1,25,-1
 412 482 l 1,26,-1
 412 568 l 1,27,-1
 410 568 l 1,28,-1
 372 480 l 1,29,-1
 261 291 l 1,24,-1
EndSplineSet
Position2: "'cpsp' Capital Spacing lookup 0 subtable" dx=40 dy=0 dh=80 dv=0
EndChar

StartChar: B
Encoding: 66 66 37
Width: 644
Flags: W
LayerCount: 2
Fore
SplineSet
-24 -1 m 1,0,-1
 -17 37 l 1,1,2
 5 48 5 48 28 56 c 128,-1,3
 51 64 51 64 72 66 c 1,4,-1
 192 632 l 1,5,6
 172 636 172 636 152 643.5 c 128,-1,7
 132 651 132 651 116 661 c 1,8,-1
 124 699 l 1,9,-1
 283 699 l 2,10,11
 321 699 321 699 356.5 702 c 128,-1,12
 392 705 392 705 436 705 c 0,13,14
 484 705 484 705 524 697.5 c 128,-1,15
 564 690 564 690 592.5 674.5 c 128,-1,16
 621 659 621 659 637 633.5 c 128,-1,17
 653 608 653 608 653 572 c 0,18,19
 653 530 653 530 638.5 497 c 128,-1,20
 624 464 624 464 598.5 439 c 128,-1,21
 573 414 573 414 538 398 c 128,-1,22
 503 382 503 382 462 374 c 1,23,-1
 462 370 l 1,24,25
 489 368 489 368 516 360 c 128,-1,26
 543 352 543 352 564.5 336 c 128,-1,27
 586 320 586 320 599.5 295.5 c 128,-1,28
 613 271 613 271 613 237 c 0,29,30
 613 183 613 183 591.5 138.5 c 128,-1,31
 570 94 570 94 528 61.5 c 128,-1,32
 486 29 486 29 423 11 c 128,-1,33
 360 -7 360 -7 277 -7 c 0,34,35
 256 -7 256 -7 231.5 -6 c 128,-1,36
 207 -5 207 -5 182 -4 c 128,-1,37
 157 -3 157 -3 134 -2 c 128,-1,38
 111 -1 111 -1 95 -1 c 2,39,-1
 -24 -1 l 1,0,-1
290 58 m 0,40,41
 327 58 327 58 358 71 c 128,-1,42
 389 84 389 84 411 107.5 c 128,-1,43
 433 131 433 131 445.5 162.5 c 128,-1,44
 458 194 458 194 458 231 c 0,45,46
 458 286 458 286 422.5 304 c 128,-1,47
 387 322 387 322 323 322 c 2,48,-1
 270 322 l 1,49,-1
 216 65 l 1,50,51
 229 62 229 62 244 60 c 128,-1,52
 259 58 259 58 290 58 c 0,40,41
316 387 m 2,53,54
 333 387 333 387 350.5 388.5 c 128,-1,55
 368 390 368 390 383 392 c 1,56,57
 443 415 443 415 473 458 c 128,-1,58
 503 501 503 501 503 558 c 0,59,60
 503 597 503 597 480 618.5 c 128,-1,61
 457 640 457 640 405 640 c 0,62,63
 384 640 384 640 367.5 639 c 128,-1,64
 351 638 351 638 337 636 c 1,65,-1
 284 387 l 1,66,-1
 316 387 l 2,53,54
EndSplineSet
Position2: "'cpsp' Capital Spacing lookup 0 subtable" dx=40 dy=0 dh=80 dv=0
EndChar

StartChar: C
Encoding: 67 67 38
Width: 652
Flags: W
LayerCount: 2
Fore
SplineSet
561 210 m 1,0,-1
 603 210 l 1,1,2
 603 194 603 194 602 171.5 c 128,-1,3
 601 149 601 149 598 123.5 c 128,-1,4
 595 98 595 98 591 73 c 128,-1,5
 587 48 587 48 582 28 c 1,6,7
 561 17 561 17 535.5 9.5 c 128,-1,8
 510 2 510 2 484 -3 c 128,-1,9
 458 -8 458 -8 434 -10 c 128,-1,10
 410 -12 410 -12 392 -12 c 0,11,12
 300 -12 300 -12 237 13 c 128,-1,13
 174 38 174 38 134 78 c 128,-1,14
 94 118 94 118 76.5 168 c 128,-1,15
 59 218 59 218 59 269 c 0,16,17
 59 368 59 368 88 449.5 c 128,-1,18
 117 531 117 531 172.5 589.5 c 128,-1,19
 228 648 228 648 308.5 680 c 128,-1,20
 389 712 389 712 491 712 c 0,21,22
 557 712 557 712 609.5 702.5 c 128,-1,23
 662 693 662 693 695 677 c 1,24,25
 692 661 692 661 685 636 c 128,-1,26
 678 611 678 611 669 583.5 c 128,-1,27
 660 556 660 556 650 529.5 c 128,-1,28
 640 503 640 503 631 485 c 1,29,-1
 589 485 l 1,30,-1
 566 636 l 1,31,32
 557 641 557 641 536 644 c 128,-1,33
 515 647 515 647 494 647 c 0,34,35
 436 647 436 647 387.5 619 c 128,-1,36
 339 591 339 591 303.5 540 c 128,-1,37
 268 489 268 489 248.5 416.5 c 128,-1,38
 229 344 229 344 229 255 c 0,39,40
 229 199 229 199 245 160.5 c 128,-1,41
 261 122 261 122 286.5 98 c 128,-1,42
 312 74 312 74 342.5 63.5 c 128,-1,43
 373 53 373 53 402 53 c 256,44,45
 431 53 431 53 452 58.5 c 128,-1,46
 473 64 473 64 483 70 c 1,47,-1
 561 210 l 1,0,-1
EndSplineSet
Position2: "'cpsp' Capital Spacing lookup 0 subtable" dx=40 dy=0 dh=80 dv=0
EndChar

StartChar: D
Encoding: 68 68 39
Width: 734
Flags: W
LayerCount: 2
Fore
SplineSet
-24 0 m 1,0,-1
 -17 38 l 1,1,2
 2 48 2 48 25 55.5 c 128,-1,3
 48 63 48 63 72 67 c 1,4,-1
 192 633 l 1,5,6
 169 638 169 638 149.5 645.5 c 128,-1,7
 130 653 130 653 116 662 c 1,8,-1
 124 700 l 1,9,-1
 240 700 l 2,10,11
 257 700 257 700 282.5 701 c 128,-1,12
 308 702 308 702 335.5 703.5 c 128,-1,13
 363 705 363 705 388.5 706.5 c 128,-1,14
 414 708 414 708 432 708 c 0,15,16
 516 708 516 708 574.5 690 c 128,-1,17
 633 672 633 672 669.5 639 c 128,-1,18
 706 606 706 606 722.5 560.5 c 128,-1,19
 739 515 739 515 739 460 c 0,20,21
 739 403 739 403 729 346.5 c 128,-1,22
 719 290 719 290 696 238 c 128,-1,23
 673 186 673 186 637 141 c 128,-1,24
 601 96 601 96 548.5 62.5 c 128,-1,25
 496 29 496 29 427 10 c 128,-1,26
 358 -9 358 -9 269 -9 c 0,27,28
 256 -9 256 -9 233.5 -7.5 c 128,-1,29
 211 -6 211 -6 185 -4.5 c 128,-1,30
 159 -3 159 -3 133.5 -1.5 c 128,-1,31
 108 0 108 0 89 0 c 2,32,-1
 -24 0 l 1,0,-1
409 643 m 0,33,34
 391 643 391 643 375 642 c 128,-1,35
 359 641 359 641 345 639 c 1,36,-1
 222 60 l 1,37,38
 237 58 237 58 256 57 c 128,-1,39
 275 56 275 56 286 56 c 0,40,41
 367 56 367 56 422 94.5 c 128,-1,42
 477 133 477 133 511 193.5 c 128,-1,43
 545 254 545 254 559.5 328 c 128,-1,44
 574 402 574 402 574 473 c 0,45,46
 574 514 574 514 566 546 c 128,-1,47
 558 578 558 578 539 599.5 c 128,-1,48
 520 621 520 621 488 632 c 128,-1,49
 456 643 456 643 409 643 c 0,33,34
EndSplineSet
Position2: "'cpsp' Capital Spacing lookup 0 subtable" dx=40 dy=0 dh=80 dv=0
EndChar

StartChar: E
Encoding: 69 69 40
Width: 602
Flags: W
LayerCount: 2
Fore
SplineSet
650 700 m 1,0,1
 640 655 640 655 625 607 c 128,-1,2
 610 559 610 559 592 517 c 1,3,-1
 550 517 l 1,4,-1
 529 635 l 1,5,-1
 342 635 l 1,6,-1
 290 390 l 1,7,-1
 413 390 l 1,8,-1
 473 467 l 1,9,-1
 504 467 l 1,10,11
 499 418 499 418 486.5 358 c 128,-1,12
 474 298 474 298 458 246 c 1,13,-1
 426 246 l 1,14,-1
 399 325 l 1,15,-1
 276 325 l 1,16,-1
 222 65 l 1,17,-1
 416 65 l 1,18,-1
 496 192 l 1,19,-1
 538 192 l 1,20,21
 538 174 538 174 536.5 150 c 128,-1,22
 535 126 535 126 532.5 100 c 128,-1,23
 530 74 530 74 526 48 c 128,-1,24
 522 22 522 22 517 0 c 1,25,-1
 -24 0 l 1,26,-1
 -17 38 l 1,27,28
 3 47 3 47 25.5 55 c 128,-1,29
 48 63 48 63 72 67 c 1,30,-1
 192 633 l 1,31,32
 172 637 172 637 152 644.5 c 128,-1,33
 132 652 132 652 116 662 c 1,34,-1
 124 700 l 1,35,-1
 650 700 l 1,0,1
EndSplineSet
Position2: "'cpsp' Capital Spacing lookup 0 subtable" dx=40 dy=0 dh=80 dv=0
EndChar

StartChar: F
Encoding: 70 70 41
Width: 572
Flags: W
LayerCount: 2
Fore
SplineSet
212 67 m 1,0,1
 257 61 257 61 292 38 c 1,2,-1
 285 0 l 1,3,-1
 -24 0 l 1,4,-1
 -17 38 l 1,5,6
 1 47 1 47 20.5 54.5 c 128,-1,7
 40 62 40 62 62 67 c 1,8,-1
 182 633 l 1,9,10
 140 645 140 645 116 662 c 1,11,-1
 124 700 l 1,12,-1
 647 700 l 1,13,14
 643 680 643 680 636.5 656.5 c 128,-1,15
 630 633 630 633 622.5 608.5 c 128,-1,16
 615 584 615 584 606.5 560.5 c 128,-1,17
 598 537 598 537 589 517 c 1,18,-1
 547 517 l 1,19,-1
 526 635 l 1,20,-1
 332 635 l 1,21,-1
 276 372 l 1,22,-1
 414 372 l 1,23,-1
 475 449 l 1,24,-1
 506 449 l 1,25,26
 504 424 504 424 499.5 395 c 128,-1,27
 495 366 495 366 488.5 336 c 128,-1,28
 482 306 482 306 474 278 c 128,-1,29
 466 250 466 250 459 228 c 1,30,-1
 428 228 l 1,31,-1
 401 307 l 1,32,-1
 263 307 l 1,33,-1
 212 67 l 1,0,1
EndSplineSet
Position2: "'cpsp' Capital Spacing lookup 0 subtable" dx=40 dy=0 dh=80 dv=0
EndChar

StartChar: G
Encoding: 71 71 42
Width: 709
Flags: W
LayerCount: 2
Fore
SplineSet
603 44 m 1,0,1
 578 31 578 31 546.5 20.5 c 128,-1,2
 515 10 515 10 482.5 3 c 128,-1,3
 450 -4 450 -4 420 -8 c 128,-1,4
 390 -12 390 -12 368 -12 c 0,5,6
 300 -12 300 -12 243 5 c 128,-1,7
 186 22 186 22 145 57 c 128,-1,8
 104 92 104 92 81.5 145 c 128,-1,9
 59 198 59 198 59 270 c 0,10,11
 59 369 59 369 88.5 450 c 128,-1,12
 118 531 118 531 173.5 589.5 c 128,-1,13
 229 648 229 648 310 680 c 128,-1,14
 391 712 391 712 493 712 c 0,15,16
 526 712 526 712 558.5 709.5 c 128,-1,17
 591 707 591 707 620.5 702.5 c 128,-1,18
 650 698 650 698 674 691.5 c 128,-1,19
 698 685 698 685 713 677 c 1,20,21
 710 662 710 662 703 638.5 c 128,-1,22
 696 615 696 615 687 588 c 128,-1,23
 678 561 678 561 668 534 c 128,-1,24
 658 507 658 507 648 485 c 1,25,-1
 607 485 l 1,26,-1
 584 637 l 1,27,28
 570 642 570 642 544.5 644.5 c 128,-1,29
 519 647 519 647 497 647 c 0,30,31
 430 647 430 647 379.5 614.5 c 128,-1,32
 329 582 329 582 295.5 527 c 128,-1,33
 262 472 262 472 245.5 400 c 128,-1,34
 229 328 229 328 229 249 c 0,35,36
 229 197 229 197 241 160 c 128,-1,37
 253 123 253 123 273.5 99 c 128,-1,38
 294 75 294 75 321.5 64 c 128,-1,39
 349 53 349 53 381 53 c 0,40,41
 410 53 410 53 441.5 61 c 128,-1,42
 473 69 473 69 491 80 c 1,43,-1
 531 268 l 1,44,45
 506 270 506 270 484 278 c 128,-1,46
 462 286 462 286 445 297 c 1,47,-1
 453 335 l 1,48,-1
 726 335 l 1,49,-1
 718 297 l 1,50,51
 707 288 707 288 690.5 280.5 c 128,-1,52
 674 273 674 273 650 268 c 1,53,-1
 603 44 l 1,0,1
EndSplineSet
Position2: "'cpsp' Capital Spacing lookup 0 subtable" dx=40 dy=0 dh=80 dv=0
EndChar

StartChar: H
Encoding: 72 72 43
Width: 766
Flags: W
LayerCount: 2
Fore
SplineSet
279 0 m 1,0,-1
 -24 0 l 1,1,-1
 -17 38 l 1,2,3
 3 48 3 48 26.5 55.5 c 128,-1,4
 50 63 50 63 72 67 c 1,5,-1
 192 633 l 1,6,7
 169 637 169 637 149 645 c 128,-1,8
 129 653 129 653 116 662 c 1,9,-1
 124 700 l 1,10,-1
 427 700 l 1,11,-1
 419 662 l 1,12,13
 404 651 404 651 383 644 c 128,-1,14
 362 637 362 637 342 633 c 1,15,-1
 290 391 l 1,16,-1
 555 391 l 1,17,-1
 607 633 l 1,18,19
 564 644 564 644 542 662 c 1,20,-1
 550 700 l 1,21,-1
 853 700 l 1,22,-1
 845 662 l 1,23,24
 826 651 826 651 802.5 643.5 c 128,-1,25
 779 636 779 636 757 633 c 1,26,-1
 637 67 l 1,27,28
 659 63 659 63 678.5 55 c 128,-1,29
 698 47 698 47 712 38 c 1,30,-1
 705 0 l 1,31,-1
 402 0 l 1,32,-1
 409 38 l 1,33,34
 426 47 426 47 446 55 c 128,-1,35
 466 63 466 63 487 67 c 1,36,-1
 541 326 l 1,37,-1
 276 326 l 1,38,-1
 222 67 l 1,39,40
 256 60 256 60 286 38 c 1,41,-1
 279 0 l 1,0,-1
EndSplineSet
Position2: "'cpsp' Capital Spacing lookup 0 subtable" dx=40 dy=0 dh=80 dv=0
EndChar

StartChar: I
Encoding: 73 73 44
Width: 369
Flags: W
LayerCount: 2
Fore
SplineSet
298 0 m 1,0,-1
 -14 0 l 1,1,-1
 -7 38 l 1,2,3
 40 60 40 60 81 67 c 1,4,-1
 201 633 l 1,5,6
 181 636 181 636 161.5 643.5 c 128,-1,7
 142 651 142 651 126 662 c 1,8,-1
 134 700 l 1,9,-1
 446 700 l 1,10,-1
 438 662 l 1,11,12
 418 651 418 651 394.5 643.5 c 128,-1,13
 371 636 371 636 351 633 c 1,14,-1
 231 67 l 1,15,16
 250 63 250 63 270 56 c 128,-1,17
 290 49 290 49 305 38 c 1,18,-1
 298 0 l 1,0,-1
EndSplineSet
Position2: "'cpsp' Capital Spacing lookup 0 subtable" dx=40 dy=0 dh=80 dv=0
EndChar

StartChar: J
Encoding: 74 74 45
Width: 361
Flags: W
LayerCount: 2
Fore
SplineSet
129 700 m 1,0,-1
 438 700 l 1,1,-1
 430 662 l 1,2,3
 413 651 413 651 389.5 643.5 c 128,-1,4
 366 636 366 636 346 633 c 1,5,-1
 238 121 l 2,6,7
 221 39 221 39 185.5 -13.5 c 128,-1,8
 150 -66 150 -66 109.5 -97 c 128,-1,9
 69 -128 69 -128 30.5 -142 c 128,-1,10
 -8 -156 -8 -156 -31 -160 c 1,11,-1
 -43 -134 l 1,12,13
 -24 -121 -24 -121 -6.5 -102 c 128,-1,14
 11 -83 11 -83 27.5 -54.5 c 128,-1,15
 44 -26 44 -26 59 15 c 128,-1,16
 74 56 74 56 87 115 c 2,17,-1
 196 633 l 1,18,19
 175 637 175 637 155 644.5 c 128,-1,20
 135 652 135 652 121 662 c 1,21,-1
 129 700 l 1,0,-1
EndSplineSet
Position2: "'cpsp' Capital Spacing lookup 0 subtable" dx=40 dy=0 dh=80 dv=0
EndChar

StartChar: K
Encoding: 75 75 46
Width: 705
Flags: W
LayerCount: 2
Fore
SplineSet
499 700 m 1,0,-1
 771 700 l 1,1,-1
 763 662 l 1,2,3
 745 651 745 651 721.5 643.5 c 128,-1,4
 698 636 698 636 678 633 c 1,5,-1
 436 390 l 1,6,7
 452 357 452 357 475 317 c 128,-1,8
 498 277 498 277 523.5 234 c 128,-1,9
 549 191 549 191 576.5 147 c 128,-1,10
 604 103 604 103 631 63 c 1,11,-1
 673 34 l 1,12,-1
 666 0 l 1,13,-1
 498 0 l 1,14,-1
 463 28 l 1,15,16
 445 58 445 58 426 94.5 c 128,-1,17
 407 131 407 131 389 170.5 c 128,-1,18
 371 210 371 210 354.5 250 c 128,-1,19
 338 290 338 290 325 328 c 1,20,-1
 277 328 l 1,21,-1
 222 67 l 1,22,23
 242 62 242 62 258.5 54 c 128,-1,24
 275 46 275 46 286 38 c 1,25,-1
 279 0 l 1,26,-1
 -24 0 l 1,27,-1
 -17 38 l 1,28,29
 5 49 5 49 27.5 56 c 128,-1,30
 50 63 50 63 72 67 c 1,31,-1
 192 633 l 1,32,33
 169 636 169 636 149 644 c 128,-1,34
 129 652 129 652 116 662 c 1,35,-1
 124 700 l 1,36,-1
 427 700 l 1,37,-1
 419 662 l 1,38,39
 405 654 405 654 384.5 646 c 128,-1,40
 364 638 364 638 342 633 c 1,41,-1
 288 379 l 1,42,-1
 347 393 l 1,43,-1
 558 633 l 1,44,45
 538 638 538 638 520.5 645.5 c 128,-1,46
 503 653 503 653 491 662 c 1,47,-1
 499 700 l 1,0,-1
EndSplineSet
Position2: "'cpsp' Capital Spacing lookup 0 subtable" dx=40 dy=0 dh=80 dv=0
EndChar

StartChar: L
Encoding: 76 76 47
Width: 577
Flags: W
LayerCount: 2
Fore
SplineSet
124 700 m 1,0,-1
 452 700 l 1,1,-1
 444 662 l 1,2,3
 422 651 422 651 394.5 643.5 c 128,-1,4
 367 636 367 636 342 633 c 1,5,-1
 222 65 l 1,6,-1
 415 65 l 1,7,-1
 519 244 l 1,8,-1
 561 244 l 1,9,10
 561 221 561 221 558 190 c 128,-1,11
 555 159 555 159 550 125 c 128,-1,12
 545 91 545 91 538.5 58 c 128,-1,13
 532 25 532 25 525 0 c 1,14,-1
 -24 0 l 1,15,-1
 -17 38 l 1,16,17
 9 50 9 50 31 57 c 128,-1,18
 53 64 53 64 72 67 c 1,19,-1
 192 633 l 1,20,21
 170 637 170 637 150 644 c 128,-1,22
 130 651 130 651 116 662 c 1,23,-1
 124 700 l 1,0,-1
EndSplineSet
Position2: "'cpsp' Capital Spacing lookup 0 subtable" dx=40 dy=0 dh=80 dv=0
EndChar

StartChar: M
Encoding: 77 77 48
Width: 926
Flags: W
LayerCount: 2
Fore
SplineSet
864 0 m 1,0,-1
 565 0 l 1,1,-1
 573 38 l 1,2,3
 595 48 595 48 616 55 c 128,-1,4
 637 62 637 62 660 67 c 1,5,-1
 748 485 l 1,6,-1
 778 602 l 1,7,-1
 770 602 l 1,8,-1
 715 495 l 1,9,-1
 416 0 l 1,10,-1
 371 0 l 1,11,-1
 282 491 l 1,12,-1
 270 608 l 1,13,-1
 261 608 l 1,14,-1
 235 481 l 1,15,-1
 149 71 l 1,16,17
 167 67 167 67 188.5 58 c 128,-1,18
 210 49 210 49 227 38 c 1,19,-1
 219 0 l 1,20,-1
 -24 0 l 1,21,-1
 -17 38 l 1,22,23
 0 47 0 47 26 57.5 c 128,-1,24
 52 68 52 68 75 72 c 1,25,-1
 193 633 l 1,26,27
 173 637 173 637 152.5 644 c 128,-1,28
 132 651 132 651 117 662 c 1,29,-1
 125 700 l 1,30,-1
 396 700 l 1,31,-1
 459 293 l 1,32,-1
 467 197 l 1,33,-1
 468 197 l 1,34,-1
 515 295 l 1,35,-1
 761 700 l 1,36,-1
 1013 700 l 1,37,-1
 1005 662 l 1,38,39
 987 651 987 651 965.5 644 c 128,-1,40
 944 637 944 637 923 633 c 1,41,-1
 803 66 l 1,42,43
 823 62 823 62 841 54 c 128,-1,44
 859 46 859 46 872 38 c 1,45,-1
 864 0 l 1,0,-1
EndSplineSet
Position2: "'cpsp' Capital Spacing lookup 0 subtable" dx=40 dy=0 dh=80 dv=0
EndChar

StartChar: N
Encoding: 78 78 49
Width: 755
Flags: W
LayerCount: 2
Fore
SplineSet
595 700 m 1,0,-1
 842 700 l 1,1,-1
 834 662 l 1,2,3
 811 645 811 645 787 634.5 c 128,-1,4
 763 624 763 624 740 618 c 1,5,-1
 606 -12 l 1,6,-1
 525 -12 l 1,7,-1
 277 498 l 1,8,-1
 253 575 l 1,9,-1
 250 575 l 1,10,-1
 241 495 l 1,11,-1
 152 78 l 1,12,13
 170 73 170 73 192.5 61.5 c 128,-1,14
 215 50 215 50 229 38 c 1,15,-1
 222 0 l 1,16,-1
 -24 0 l 1,17,-1
 -17 38 l 1,18,19
 28 66 28 66 76 78 c 1,20,-1
 192 624 l 1,21,22
 175 631 175 631 155.5 642 c 128,-1,23
 136 653 136 653 125 663 c 1,24,-1
 132 700 l 1,25,-1
 344 700 l 1,26,-1
 545 284 l 1,27,-1
 575 198 l 1,28,-1
 579 198 l 1,29,-1
 594 284 l 1,30,-1
 664 618 l 1,31,32
 642 626 642 626 621.5 637.5 c 128,-1,33
 601 649 601 649 587 662 c 1,34,-1
 595 700 l 1,0,-1
EndSplineSet
Position2: "'cpsp' Capital Spacing lookup 0 subtable" dx=40 dy=0 dh=80 dv=0
EndChar

StartChar: O
Encoding: 79 79 50
Width: 751
Flags: W
LayerCount: 2
Fore
SplineSet
59 271 m 0,0,1
 59 363 59 363 87.5 443.5 c 128,-1,2
 116 524 116 524 169.5 583.5 c 128,-1,3
 223 643 223 643 300.5 677.5 c 128,-1,4
 378 712 378 712 476 712 c 0,5,6
 543 712 543 712 595 692.5 c 128,-1,7
 647 673 647 673 683 636.5 c 128,-1,8
 719 600 719 600 737.5 548 c 128,-1,9
 756 496 756 496 756 431 c 0,10,11
 756 349 756 349 731 269.5 c 128,-1,12
 706 190 706 190 655 127.5 c 128,-1,13
 604 65 604 65 527.5 26.5 c 128,-1,14
 451 -12 451 -12 348 -12 c 0,15,16
 279 -12 279 -12 225 9.5 c 128,-1,17
 171 31 171 31 134 69 c 128,-1,18
 97 107 97 107 78 159 c 128,-1,19
 59 211 59 211 59 271 c 0,0,1
229 252 m 0,20,21
 229 152 229 152 266.5 102.5 c 128,-1,22
 304 53 304 53 368 53 c 0,23,24
 425 53 425 53 466 90 c 128,-1,25
 507 127 507 127 534 184.5 c 128,-1,26
 561 242 561 242 573.5 313.5 c 128,-1,27
 586 385 586 385 586 454 c 0,28,29
 586 543 586 543 555.5 595 c 128,-1,30
 525 647 525 647 455 647 c 0,31,32
 416 647 416 647 384.5 629.5 c 128,-1,33
 353 612 353 612 327.5 582 c 128,-1,34
 302 552 302 552 283.5 512.5 c 128,-1,35
 265 473 265 473 253 429 c 128,-1,36
 241 385 241 385 235 339.5 c 128,-1,37
 229 294 229 294 229 252 c 0,20,21
EndSplineSet
Position2: "'cpsp' Capital Spacing lookup 0 subtable" dx=40 dy=0 dh=80 dv=0
EndChar

StartChar: P
Encoding: 80 80 51
Width: 634
Flags: W
LayerCount: 2
Fore
SplineSet
222 67 m 1,0,1
 248 63 248 63 272.5 55.5 c 128,-1,2
 297 48 297 48 316 38 c 1,3,-1
 309 0 l 1,4,-1
 -24 0 l 1,5,-1
 -17 38 l 1,6,7
 27 59 27 59 72 67 c 1,8,-1
 192 633 l 1,9,10
 170 637 170 637 151 644.5 c 128,-1,11
 132 652 132 652 116 662 c 1,12,-1
 124 700 l 1,13,-1
 250 700 l 2,14,15
 290 700 290 700 342.5 704 c 128,-1,16
 395 708 395 708 438 708 c 0,17,18
 490 708 490 708 534.5 699 c 128,-1,19
 579 690 579 690 610.5 670.5 c 128,-1,20
 642 651 642 651 660 619 c 128,-1,21
 678 587 678 587 678 541 c 0,22,23
 678 482 678 482 656 431.5 c 128,-1,24
 634 381 634 381 592 344 c 128,-1,25
 550 307 550 307 489 285.5 c 128,-1,26
 428 264 428 264 351 264 c 0,27,28
 346 264 346 264 334.5 264 c 128,-1,29
 323 264 323 264 309.5 264.5 c 128,-1,30
 296 265 296 265 283.5 265.5 c 128,-1,31
 271 266 271 266 264 267 c 1,32,-1
 222 67 l 1,0,1
401 643 m 0,33,34
 381 643 381 643 367.5 641 c 128,-1,35
 354 639 354 639 343 637 c 1,36,-1
 278 333 l 1,37,38
 287 331 287 331 305 330 c 128,-1,39
 323 329 323 329 334 329 c 0,40,41
 377 329 377 329 410 344.5 c 128,-1,42
 443 360 443 360 465.5 388.5 c 128,-1,43
 488 417 488 417 500 455.5 c 128,-1,44
 512 494 512 494 512 541 c 0,45,46
 512 564 512 564 506.5 583 c 128,-1,47
 501 602 501 602 488.5 615.5 c 128,-1,48
 476 629 476 629 454.5 636 c 128,-1,49
 433 643 433 643 401 643 c 0,33,34
EndSplineSet
Position2: "'cpsp' Capital Spacing lookup 0 subtable" dx=40 dy=0 dh=80 dv=0
EndChar

StartChar: Q
Encoding: 81 81 52
Width: 751
Flags: W
LayerCount: 2
Fore
SplineSet
755 -112 m 1,0,1
 733 -131 733 -131 709 -148.5 c 128,-1,2
 685 -166 685 -166 659 -180 c 128,-1,3
 633 -194 633 -194 606.5 -202 c 128,-1,4
 580 -210 580 -210 553 -210 c 0,5,6
 507 -210 507 -210 464 -193.5 c 128,-1,7
 421 -177 421 -177 375.5 -155.5 c 128,-1,8
 330 -134 330 -134 278.5 -114 c 128,-1,9
 227 -94 227 -94 164 -86 c 1,10,-1
 198 -42 l 1,11,12
 248 -33 248 -33 293.5 -37.5 c 128,-1,13
 339 -42 339 -42 382 -52.5 c 128,-1,14
 425 -63 425 -63 467.5 -76 c 128,-1,15
 510 -89 510 -89 554.5 -97 c 128,-1,16
 599 -105 599 -105 647 -104.5 c 128,-1,17
 695 -104 695 -104 750 -87 c 1,18,-1
 755 -112 l 1,0,1
59 271 m 0,19,20
 59 363 59 363 87.5 443.5 c 128,-1,21
 116 524 116 524 169.5 583.5 c 128,-1,22
 223 643 223 643 300.5 677.5 c 128,-1,23
 378 712 378 712 476 712 c 0,24,25
 543 712 543 712 595 692.5 c 128,-1,26
 647 673 647 673 683 636.5 c 128,-1,27
 719 600 719 600 737.5 548 c 128,-1,28
 756 496 756 496 756 431 c 0,29,30
 756 349 756 349 731 269.5 c 128,-1,31
 706 190 706 190 655 127.5 c 128,-1,32
 604 65 604 65 527.5 26.5 c 128,-1,33
 451 -12 451 -12 348 -12 c 0,34,35
 279 -12 279 -12 225 9.5 c 128,-1,36
 171 31 171 31 134 69 c 128,-1,37
 97 107 97 107 78 159 c 128,-1,38
 59 211 59 211 59 271 c 0,19,20
229 252 m 0,39,40
 229 152 229 152 266.5 102.5 c 128,-1,41
 304 53 304 53 368 53 c 0,42,43
 425 53 425 53 466 90 c 128,-1,44
 507 127 507 127 534 184.5 c 128,-1,45
 561 242 561 242 573.5 313.5 c 128,-1,46
 586 385 586 385 586 454 c 0,47,48
 586 543 586 543 555.5 595 c 128,-1,49
 525 647 525 647 455 647 c 0,50,51
 416 647 416 647 384.5 629.5 c 128,-1,52
 353 612 353 612 327.5 582 c 128,-1,53
 302 552 302 552 283.5 512.5 c 128,-1,54
 265 473 265 473 253 429 c 128,-1,55
 241 385 241 385 235 339.5 c 128,-1,56
 229 294 229 294 229 252 c 0,39,40
EndSplineSet
Position2: "'cpsp' Capital Spacing lookup 0 subtable" dx=40 dy=0 dh=80 dv=0
EndChar

StartChar: R
Encoding: 82 82 53
Width: 692
Flags: W
LayerCount: 2
Fore
SplineSet
222 67 m 1,0,1
 243 61 243 61 260 53.5 c 128,-1,2
 277 46 277 46 291 38 c 1,3,-1
 284 0 l 1,4,-1
 -24 0 l 1,5,-1
 -17 38 l 1,6,7
 8 50 8 50 29.5 56.5 c 128,-1,8
 51 63 51 63 72 67 c 1,9,-1
 192 633 l 1,10,11
 143 644 143 644 116 662 c 1,12,-1
 124 700 l 1,13,-1
 230 700 l 2,14,15
 250 700 250 700 275.5 701 c 128,-1,16
 301 702 301 702 329 703.5 c 128,-1,17
 357 705 357 705 386 706.5 c 128,-1,18
 415 708 415 708 441 708 c 0,19,20
 552 708 552 708 605.5 665 c 128,-1,21
 659 622 659 622 659 543 c 0,22,23
 659 506 659 506 647 471.5 c 128,-1,24
 635 437 635 437 611.5 407.5 c 128,-1,25
 588 378 588 378 553.5 355.5 c 128,-1,26
 519 333 519 333 473 320 c 1,27,28
 499 257 499 257 537.5 192 c 128,-1,29
 576 127 576 127 613 66 c 1,30,-1
 655 34 l 1,31,-1
 648 0 l 1,32,-1
 489 0 l 1,33,-1
 452 33 l 1,34,35
 418 88 418 88 389.5 160.5 c 128,-1,36
 361 233 361 233 348 303 c 1,37,-1
 272 303 l 1,38,-1
 222 67 l 1,0,1
395 643 m 0,39,40
 379 643 379 643 366 641 c 128,-1,41
 353 639 353 639 342 637 c 1,42,-1
 283 358 l 1,43,-1
 341 358 l 2,44,45
 382 358 382 358 412.5 373.5 c 128,-1,46
 443 389 443 389 463 415.5 c 128,-1,47
 483 442 483 442 493 476 c 128,-1,48
 503 510 503 510 503 548 c 0,49,50
 504 599 504 599 477.5 621 c 128,-1,51
 451 643 451 643 395 643 c 0,39,40
EndSplineSet
Position2: "'cpsp' Capital Spacing lookup 0 subtable" dx=40 dy=0 dh=80 dv=0
EndChar

StartChar: S
Encoding: 83 83 54
Width: 556
Flags: W
LayerCount: 2
Fore
SplineSet
140 83 m 1,0,1
 150 73 150 73 176 63 c 128,-1,2
 202 53 202 53 231 53 c 0,3,4
 262 53 262 53 289 58.5 c 128,-1,5
 316 64 316 64 335.5 76 c 128,-1,6
 355 88 355 88 366 107.5 c 128,-1,7
 377 127 377 127 377 155 c 0,8,9
 377 191 377 191 358 216.5 c 128,-1,10
 339 242 339 242 311 263 c 128,-1,11
 283 284 283 284 249.5 304.5 c 128,-1,12
 216 325 216 325 188 351 c 128,-1,13
 160 377 160 377 141 412 c 128,-1,14
 122 447 122 447 122 498 c 0,15,16
 122 551 122 551 143 591 c 128,-1,17
 164 631 164 631 201 658 c 128,-1,18
 238 685 238 685 289 698.5 c 128,-1,19
 340 712 340 712 401 712 c 256,20,21
 462 712 462 712 512.5 703.5 c 128,-1,22
 563 695 563 695 601 677 c 1,23,24
 596 657 596 657 588 631 c 128,-1,25
 580 605 580 605 570.5 579.5 c 128,-1,26
 561 554 561 554 551.5 531.5 c 128,-1,27
 542 509 542 509 535 494 c 1,28,-1
 494 494 l 1,29,-1
 477 631 l 1,30,31
 463 639 463 639 439.5 643 c 128,-1,32
 416 647 416 647 391 647 c 0,33,34
 365 647 365 647 342.5 641.5 c 128,-1,35
 320 636 320 636 303.5 624.5 c 128,-1,36
 287 613 287 613 277 595 c 128,-1,37
 267 577 267 577 267 552 c 0,38,39
 267 517 267 517 286.5 491 c 128,-1,40
 306 465 306 465 334.5 443.5 c 128,-1,41
 363 422 363 422 397 400.5 c 128,-1,42
 431 379 431 379 459.5 352.5 c 128,-1,43
 488 326 488 326 507.5 291 c 128,-1,44
 527 256 527 256 527 207 c 0,45,46
 527 101 527 101 448.5 44.5 c 128,-1,47
 370 -12 370 -12 224 -12 c 0,48,49
 192 -12 192 -12 159.5 -8 c 128,-1,50
 127 -4 127 -4 98 3 c 128,-1,51
 69 10 69 10 47 18 c 128,-1,52
 25 26 25 26 15 35 c 1,53,54
 21 59 21 59 30 85.5 c 128,-1,55
 39 112 39 112 49 138.5 c 128,-1,56
 59 165 59 165 69.5 188.5 c 128,-1,57
 80 212 80 212 89 230 c 1,58,-1
 130 230 l 1,59,-1
 140 83 l 1,0,1
EndSplineSet
Position2: "'cpsp' Capital Spacing lookup 0 subtable" dx=40 dy=0 dh=80 dv=0
EndChar

StartChar: T
Encoding: 84 84 55
Width: 662
Flags: W
LayerCount: 2
Fore
SplineSet
461 0 m 1,0,-1
 117 0 l 1,1,-1
 125 38 l 1,2,3
 147 47 147 47 174 55 c 128,-1,4
 201 63 201 63 228 67 c 1,5,-1
 349 635 l 1,6,-1
 233 635 l 1,7,-1
 132 464 l 1,8,-1
 91 464 l 1,9,10
 91 484 91 484 93.5 515 c 128,-1,11
 96 546 96 546 99.5 579 c 128,-1,12
 103 612 103 612 108 644.5 c 128,-1,13
 113 677 113 677 119 700 c 1,14,-1
 756 700 l 1,15,16
 751 676 751 676 742.5 644 c 128,-1,17
 734 612 734 612 724 579 c 128,-1,18
 714 546 714 546 703.5 515.5 c 128,-1,19
 693 485 693 485 684 464 c 1,20,-1
 642 464 l 1,21,-1
 615 635 l 1,22,-1
 499 635 l 1,23,-1
 378 67 l 1,24,25
 403 62 403 62 427 55 c 128,-1,26
 451 48 451 48 469 38 c 1,27,-1
 461 0 l 1,0,-1
EndSplineSet
Position2: "'cpsp' Capital Spacing lookup 0 subtable" dx=40 dy=0 dh=80 dv=0
EndChar

StartChar: U
Encoding: 85 85 56
Width: 715
Flags: W
LayerCount: 2
Fore
SplineSet
112 700 m 1,0,-1
 420 700 l 1,1,-1
 412 662 l 1,2,3
 376 641 376 641 330 633 c 1,4,-1
 251 260 l 2,5,6
 231 162 231 162 266 118 c 128,-1,7
 301 74 301 74 376 74 c 0,8,9
 446 74 446 74 493 114.5 c 128,-1,10
 540 155 540 155 561 253 c 2,11,-1
 640 628 l 1,12,13
 617 633 617 633 594.5 642 c 128,-1,14
 572 651 572 651 559 662 c 1,15,-1
 567 700 l 1,16,-1
 815 700 l 1,17,-1
 807 662 l 1,18,19
 789 649 789 649 764.5 641 c 128,-1,20
 740 633 740 633 717 628 c 1,21,-1
 637 252 l 2,22,23
 610 123 610 123 538.5 57 c 128,-1,24
 467 -9 467 -9 334 -9 c 0,25,26
 191 -9 191 -9 133.5 66 c 128,-1,27
 76 141 76 141 104 271 c 2,28,-1
 180 633 l 1,29,30
 160 637 160 637 138.5 644 c 128,-1,31
 117 651 117 651 104 662 c 1,32,-1
 112 700 l 1,0,-1
EndSplineSet
Position2: "'cpsp' Capital Spacing lookup 0 subtable" dx=40 dy=0 dh=80 dv=0
EndChar

StartChar: V
Encoding: 86 86 57
Width: 729
Flags: W
LayerCount: 2
Fore
SplineSet
652 633 m 1,0,1
 629 638 629 638 608.5 645 c 128,-1,2
 588 652 588 652 574 662 c 1,3,-1
 582 700 l 1,4,-1
 836 700 l 1,5,-1
 828 662 l 1,6,7
 814 654 814 654 793.5 646 c 128,-1,8
 773 638 773 638 750 633 c 1,9,-1
 386 0 l 1,10,-1
 286 -12 l 1,11,-1
 165 633 l 1,12,13
 144 638 144 638 125.5 645.5 c 128,-1,14
 107 653 107 653 96 662 c 1,15,-1
 104 700 l 1,16,-1
 434 700 l 1,17,-1
 426 662 l 1,18,19
 408 653 408 653 385 645.5 c 128,-1,20
 362 638 362 638 338 633 c 1,21,-1
 395 239 l 1,22,-1
 398 145 l 1,23,-1
 400 145 l 1,24,-1
 442 241 l 1,25,-1
 652 633 l 1,0,1
EndSplineSet
Position2: "'cpsp' Capital Spacing lookup 0 subtable" dx=40 dy=0 dh=80 dv=0
EndChar

StartChar: W
Encoding: 87 87 58
Width: 1029
Flags: W
LayerCount: 2
Fore
SplineSet
955 633 m 1,0,1
 935 636 935 636 914 643.5 c 128,-1,2
 893 651 893 651 876 662 c 1,3,-1
 884 700 l 1,4,-1
 1136 700 l 1,5,-1
 1128 662 l 1,6,7
 1110 651 1110 651 1089 644 c 128,-1,8
 1068 637 1068 637 1049 633 c 1,9,-1
 738 0 l 1,10,-1
 631 -12 l 1,11,-1
 579 472 l 1,12,-1
 328 0 l 1,13,-1
 221 -12 l 1,14,-1
 163 633 l 1,15,16
 122 642 122 642 96 662 c 1,17,-1
 104 700 l 1,18,-1
 425 700 l 1,19,-1
 417 662 l 1,20,21
 398 652 398 652 375 645 c 128,-1,22
 352 638 352 638 329 633 c 1,23,-1
 346 279 l 1,24,-1
 341 149 l 1,25,-1
 343 149 l 1,26,-1
 405 284 l 1,27,-1
 627 700 l 1,28,-1
 687 700 l 1,29,-1
 739 289 l 1,30,-1
 747 159 l 1,31,-1
 749 159 l 1,32,-1
 801 291 l 1,33,-1
 955 633 l 1,0,1
EndSplineSet
Position2: "'cpsp' Capital Spacing lookup 0 subtable" dx=40 dy=0 dh=80 dv=0
EndChar

StartChar: X
Encoding: 88 88 59
Width: 723
Flags: W
LayerCount: 2
Fore
SplineSet
539 700 m 1,0,-1
 787 700 l 1,1,-1
 779 662 l 1,2,3
 763 652 763 652 744.5 645 c 128,-1,4
 726 638 726 638 705 633 c 1,5,-1
 470 371 l 1,6,-1
 610 67 l 1,7,8
 632 62 632 62 649 55 c 128,-1,9
 666 48 666 48 680 38 c 1,10,-1
 673 0 l 1,11,-1
 350 0 l 1,12,-1
 357 38 l 1,13,14
 375 47 375 47 394 54.5 c 128,-1,15
 413 62 413 62 435 67 c 1,16,-1
 342 286 l 1,17,-1
 160 66 l 1,18,19
 180 61 180 61 196.5 55 c 128,-1,20
 213 49 213 49 228 38 c 1,21,-1
 220 0 l 1,22,-1
 -36 0 l 1,23,-1
 -28 38 l 1,24,25
 -11 49 -11 49 7.5 55.5 c 128,-1,26
 26 62 26 62 46 67 c 1,27,-1
 309 353 l 1,28,-1
 183 633 l 1,29,30
 165 638 165 638 150 645 c 128,-1,31
 135 652 135 652 121 662 c 1,32,-1
 129 700 l 1,33,-1
 445 700 l 1,34,-1
 437 662 l 1,35,36
 423 654 423 654 404 646.5 c 128,-1,37
 385 639 385 639 359 633 c 1,38,-1
 436 433 l 1,39,-1
 601 633 l 1,40,41
 582 638 582 638 563.5 645.5 c 128,-1,42
 545 653 545 653 531 662 c 1,43,-1
 539 700 l 1,0,-1
EndSplineSet
Position2: "'cpsp' Capital Spacing lookup 0 subtable" dx=40 dy=0 dh=80 dv=0
EndChar

StartChar: Y
Encoding: 89 89 60
Width: 695
Flags: W
LayerCount: 2
Fore
SplineSet
554 700 m 1,0,-1
 803 700 l 1,1,-1
 795 662 l 1,2,3
 778 652 778 652 758 644.5 c 128,-1,4
 738 637 738 637 718 633 c 1,5,-1
 451 293 l 1,6,-1
 403 67 l 1,7,8
 422 64 422 64 440 56 c 128,-1,9
 458 48 458 48 473 38 c 1,10,-1
 465 0 l 1,11,-1
 157 0 l 1,12,-1
 165 38 l 1,13,14
 184 47 184 47 207 55 c 128,-1,15
 230 63 230 63 253 67 c 1,16,-1
 301 292 l 1,17,-1
 171 633 l 1,18,19
 149 637 149 637 129.5 644.5 c 128,-1,20
 110 652 110 652 96 662 c 1,21,-1
 104 700 l 1,22,-1
 429 700 l 1,23,-1
 421 662 l 1,24,25
 407 654 407 654 387 646 c 128,-1,26
 367 638 367 638 341 633 c 1,27,-1
 428 364 l 1,28,-1
 619 633 l 1,29,30
 598 638 598 638 579 645.5 c 128,-1,31
 560 653 560 653 546 662 c 1,32,-1
 554 700 l 1,0,-1
EndSplineSet
Position2: "'cpsp' Capital Spacing lookup 0 subtable" dx=40 dy=0 dh=80 dv=0
EndChar

StartChar: Z
Encoding: 90 90 61
Width: 631
Flags: W
LayerCount: 2
Fore
SplineSet
539 211 m 1,0,-1
 580 211 l 1,1,2
 580 190 580 190 578 163 c 128,-1,3
 576 136 576 136 573 108 c 128,-1,4
 570 80 570 80 565.5 52 c 128,-1,5
 561 24 561 24 556 0 c 1,6,-1
 5 0 l 1,7,-1
 5 65 l 1,8,-1
 496 635 l 1,9,-1
 266 635 l 1,10,-1
 177 492 l 1,11,-1
 135 492 l 1,12,13
 135 514 135 514 136.5 542 c 128,-1,14
 138 570 138 570 141.5 598.5 c 128,-1,15
 145 627 145 627 149 653.5 c 128,-1,16
 153 680 153 680 158 700 c 1,17,-1
 674 700 l 1,18,-1
 674 635 l 1,19,-1
 182 65 l 1,20,-1
 446 65 l 1,21,-1
 539 211 l 1,0,-1
EndSplineSet
Position2: "'cpsp' Capital Spacing lookup 0 subtable" dx=40 dy=0 dh=80 dv=0
EndChar

StartChar: bracketleft
Encoding: 91 91 62
Width: 324
Flags: W
LayerCount: 2
Fore
SplineSet
179 700 m 1,0,-1
 413 700 l 1,1,-1
 401 645 l 1,2,-1
 297 645 l 1,3,-1
 123 -175 l 1,4,-1
 227 -175 l 1,5,-1
 216 -230 l 1,6,-1
 -18 -230 l 1,7,-1
 179 700 l 1,0,-1
EndSplineSet
Position2: "'case' Case-Sensitive Forms lookup 1 per glyph data 3" dx=0 dy=100 dh=0 dv=0
EndChar

StartChar: backslash
Encoding: 92 92 63
Width: 382
Flags: W
LayerCount: 2
Fore
SplineSet
416 -104 m 1,0,-1
 359 -134 l 1,1,-1
 -56 686 l 1,2,-1
 2 715 l 1,3,-1
 416 -104 l 1,0,-1
EndSplineSet
EndChar

StartChar: asciicircum
Encoding: 94 94 65
Width: 508
Flags: W
LayerCount: 2
Fore
SplineSet
283 711 m 1,0,-1
 329 711 l 1,1,-1
 499 434 l 1,2,-1
 379 434 l 1,3,-1
 300 569 l 1,4,-1
 282 622 l 1,5,-1
 256 568 l 1,6,-1
 167 434 l 1,7,-1
 97 434 l 1,8,-1
 283 711 l 1,0,-1
EndSplineSet
EndChar

StartChar: underscore
Encoding: 95 95 66
Width: 410
Flags: W
LayerCount: 2
Fore
SplineSet
-43 -116 m 1,0,-1
 367 -116 l 1,1,-1
 367 -196 l 1,2,-1
 -43 -196 l 1,3,-1
 -43 -116 l 1,0,-1
EndSplineSet
EndChar

StartChar: grave
Encoding: 96 96 67
Width: 337
Flags: W
LayerCount: 2
Fore
SplineSet
357 589 m 1,0,-1
 312 567 l 1,1,-1
 146 712 l 1,2,-1
 146 741 l 1,3,4
 152 747 152 747 172 752.5 c 128,-1,5
 192 758 192 758 214.5 761 c 128,-1,6
 237 764 237 764 257 764.5 c 128,-1,7
 277 765 277 765 284 763 c 1,8,-1
 357 589 l 1,0,-1
EndSplineSet
EndChar

StartChar: a
Encoding: 97 97 68
Width: 563
Flags: W
LayerCount: 2
Fore
SplineSet
215 68 m 0,0,1
 234 68 234 68 254.5 85 c 128,-1,2
 275 102 275 102 293.5 127.5 c 128,-1,3
 312 153 312 153 327.5 183.5 c 128,-1,4
 343 214 343 214 354 240 c 1,5,-1
 391 438 l 1,6,7
 379 446 379 446 368.5 449.5 c 128,-1,8
 358 453 358 453 341 453 c 0,9,10
 301 453 301 453 269 426.5 c 128,-1,11
 237 400 237 400 215 357.5 c 128,-1,12
 193 315 193 315 181.5 262 c 128,-1,13
 170 209 170 209 170 156 c 0,14,15
 170 110 170 110 181 89 c 128,-1,16
 192 68 192 68 215 68 c 0,0,1
339 159 m 1,17,18
 326 127 326 127 306.5 96.5 c 128,-1,19
 287 66 287 66 262 42 c 128,-1,20
 237 18 237 18 207 3 c 128,-1,21
 177 -12 177 -12 142 -12 c 0,22,23
 90 -12 90 -12 59 26 c 128,-1,24
 28 64 28 64 28 139 c 0,25,26
 28 217 28 217 49.5 284.5 c 128,-1,27
 71 352 71 352 110.5 402.5 c 128,-1,28
 150 453 150 453 206 481.5 c 128,-1,29
 262 510 262 510 331 510 c 0,30,31
 357 510 357 510 375.5 504 c 128,-1,32
 394 498 394 498 415 489 c 1,33,34
 441 499 441 499 471 504 c 128,-1,35
 501 509 501 509 543 509 c 1,36,-1
 459 69 l 1,37,-1
 529 69 l 1,38,-1
 529 35 l 1,39,40
 519 27 519 27 502.5 19 c 128,-1,41
 486 11 486 11 466.5 5 c 128,-1,42
 447 -1 447 -1 426.5 -5 c 128,-1,43
 406 -9 406 -9 388 -9 c 0,44,45
 353 -9 353 -9 338 6 c 128,-1,46
 323 21 323 21 323 37 c 0,47,48
 323 55 323 55 328 84.5 c 128,-1,49
 333 114 333 114 343 159 c 1,50,-1
 339 159 l 1,17,18
EndSplineSet
Substitution2: "Single Substitution lookup 17 subtable" ordfeminine
EndChar

StartChar: b
Encoding: 98 98 69
Width: 565
Flags: W
LayerCount: 2
Fore
SplineSet
145 669 m 1,0,-1
 79 682 l 1,1,-1
 79 714 l 1,2,3
 98 721 98 721 126 727.5 c 128,-1,4
 154 734 154 734 182.5 739 c 128,-1,5
 211 744 211 744 237.5 747.5 c 128,-1,6
 264 751 264 751 280 752 c 1,7,-1
 301 741 l 1,8,-1
 224 362 l 1,9,-1
 229 362 l 1,10,11
 245 392 245 392 265 419 c 128,-1,12
 285 446 285 446 308.5 467 c 128,-1,13
 332 488 332 488 358 500 c 128,-1,14
 384 512 384 512 414 512 c 0,15,16
 440 512 440 512 462.5 502.5 c 128,-1,17
 485 493 485 493 501.5 473.5 c 128,-1,18
 518 454 518 454 527.5 423.5 c 128,-1,19
 537 393 537 393 537 351 c 0,20,21
 537 277 537 277 517 211.5 c 128,-1,22
 497 146 497 146 457.5 96 c 128,-1,23
 418 46 418 46 359.5 17 c 128,-1,24
 301 -12 301 -12 225 -12 c 0,25,26
 193 -12 193 -12 162.5 -8 c 128,-1,27
 132 -4 132 -4 105.5 3 c 128,-1,28
 79 10 79 10 58 20 c 128,-1,29
 37 30 37 30 24 41 c 1,30,-1
 145 669 l 1,0,-1
341 432 m 0,31,32
 320 432 320 432 300.5 415 c 128,-1,33
 281 398 281 398 264.5 374 c 128,-1,34
 248 350 248 350 235 324 c 128,-1,35
 222 298 222 298 214 280 c 1,36,-1
 171 65 l 1,37,38
 182 55 182 55 199 50 c 128,-1,39
 216 45 216 45 233 45 c 0,40,41
 267 45 267 45 296.5 70 c 128,-1,42
 326 95 326 95 348 136 c 128,-1,43
 370 177 370 177 382.5 230.5 c 128,-1,44
 395 284 395 284 395 341 c 0,45,46
 395 383 395 383 382 407.5 c 128,-1,47
 369 432 369 432 341 432 c 0,31,32
EndSplineSet
EndChar

StartChar: c
Encoding: 99 99 70
Width: 445
Flags: W
LayerCount: 2
Fore
SplineSet
412 109 m 1,0,1
 399 88 399 88 378 66 c 128,-1,2
 357 44 357 44 329.5 27 c 128,-1,3
 302 10 302 10 269 -1 c 128,-1,4
 236 -12 236 -12 199 -12 c 0,5,6
 120 -12 120 -12 73.5 35 c 128,-1,7
 27 82 27 82 27 166 c 0,8,9
 27 236 27 236 48.5 299 c 128,-1,10
 70 362 70 362 109 409.5 c 128,-1,11
 148 457 148 457 203.5 484.5 c 128,-1,12
 259 512 259 512 327 512 c 0,13,14
 372 512 372 512 405.5 502.5 c 128,-1,15
 439 493 439 493 450 480 c 1,16,17
 451 469 451 469 446.5 452.5 c 128,-1,18
 442 436 442 436 433 419.5 c 128,-1,19
 424 403 424 403 411.5 388.5 c 128,-1,20
 399 374 399 374 386 368 c 1,21,-1
 325 455 l 1,22,23
 298 455 298 455 270.5 436.5 c 128,-1,24
 243 418 243 418 221 383.5 c 128,-1,25
 199 349 199 349 185 300.5 c 128,-1,26
 171 252 171 252 171 191 c 256,27,28
 171 130 171 130 196 101.5 c 128,-1,29
 221 73 221 73 263 73 c 0,30,31
 283 73 283 73 301.5 79.5 c 128,-1,32
 320 86 320 86 336 95 c 128,-1,33
 352 104 352 104 365.5 114.5 c 128,-1,34
 379 125 379 125 389 134 c 1,35,-1
 412 109 l 1,0,1
EndSplineSet
EndChar

StartChar: d
Encoding: 100 100 71
Width: 570
Flags: W
LayerCount: 2
Fore
SplineSet
215 68 m 0,0,1
 236 68 236 68 256.5 85.5 c 128,-1,2
 277 103 277 103 295.5 129 c 128,-1,3
 314 155 314 155 329.5 185 c 128,-1,4
 345 215 345 215 356 240 c 1,5,-1
 392 437 l 1,6,7
 379 445 379 445 367.5 448.5 c 128,-1,8
 356 452 356 452 340 452 c 0,9,10
 302 452 302 452 270.5 426.5 c 128,-1,11
 239 401 239 401 217 359.5 c 128,-1,12
 195 318 195 318 183 264.5 c 128,-1,13
 171 211 171 211 171 155 c 0,14,15
 171 68 171 68 215 68 c 0,0,1
340 159 m 1,16,17
 325 124 325 124 304.5 93 c 128,-1,18
 284 62 284 62 259.5 39 c 128,-1,19
 235 16 235 16 206 2 c 128,-1,20
 177 -12 177 -12 145 -12 c 0,21,22
 94 -12 94 -12 61.5 27 c 128,-1,23
 29 66 29 66 29 145 c 0,24,25
 29 216 29 216 48.5 281.5 c 128,-1,26
 68 347 68 347 105.5 397.5 c 128,-1,27
 143 448 143 448 197.5 478.5 c 128,-1,28
 252 509 252 509 322 509 c 0,29,30
 355 509 355 509 370.5 505 c 128,-1,31
 386 501 386 501 403 493 c 1,32,-1
 437 669 l 1,33,-1
 368 682 l 1,34,-1
 368 716 l 1,35,36
 383 722 383 722 409 728 c 128,-1,37
 435 734 435 734 464.5 739 c 128,-1,38
 494 744 494 744 522.5 747.5 c 128,-1,39
 551 751 551 751 569 752 c 1,40,-1
 589 741 l 1,41,-1
 460 69 l 1,42,-1
 532 69 l 1,43,-1
 532 35 l 1,44,45
 522 27 522 27 505.5 19 c 128,-1,46
 489 11 489 11 469.5 5 c 128,-1,47
 450 -1 450 -1 429 -5 c 128,-1,48
 408 -9 408 -9 390 -9 c 0,49,50
 355 -9 355 -9 340 7 c 128,-1,51
 325 23 325 23 325 40 c 256,52,53
 325 57 325 57 330 89 c 128,-1,54
 335 121 335 121 344 159 c 1,55,-1
 340 159 l 1,16,17
EndSplineSet
EndChar

StartChar: e
Encoding: 101 101 72
Width: 472
Flags: W
LayerCount: 2
Fore
SplineSet
429 109 m 1,0,1
 418 89 418 89 397 67.5 c 128,-1,2
 376 46 376 46 348 28.5 c 128,-1,3
 320 11 320 11 286 -0.5 c 128,-1,4
 252 -12 252 -12 215 -12 c 0,5,6
 126 -12 126 -12 76.5 36.5 c 128,-1,7
 27 85 27 85 27 174 c 0,8,9
 27 243 27 243 49 304 c 128,-1,10
 71 365 71 365 110.5 411.5 c 128,-1,11
 150 458 150 458 204.5 485 c 128,-1,12
 259 512 259 512 324 512 c 0,13,14
 384 512 384 512 423 484.5 c 128,-1,15
 462 457 462 457 462 409 c 0,16,17
 462 341 462 341 394.5 297 c 128,-1,18
 327 253 327 253 176 242 c 1,19,20
 173 228 173 228 171.5 213.5 c 128,-1,21
 170 199 170 199 170 186 c 0,22,23
 170 129 170 129 199 98.5 c 128,-1,24
 228 68 228 68 273 68 c 0,25,26
 292 68 292 68 311 74 c 128,-1,27
 330 80 330 80 347.5 90 c 128,-1,28
 365 100 365 100 379.5 111.5 c 128,-1,29
 394 123 394 123 405 134 c 1,30,-1
 429 109 l 1,0,1
301 455 m 0,31,32
 267 455 267 455 235.5 418 c 128,-1,33
 204 381 204 381 183 293 c 1,34,35
 257 295 257 295 302.5 326 c 128,-1,36
 348 357 348 357 348 407 c 0,37,38
 348 427 348 427 337.5 441 c 128,-1,39
 327 455 327 455 301 455 c 0,31,32
EndSplineSet
EndChar

StartChar: f
Encoding: 102 102 73
Width: 316
Flags: W
LayerCount: 2
Fore
SplineSet
113 437 m 1,0,-1
 42 437 l 1,1,-1
 42 476 l 1,2,3
 62 487 62 487 84.5 495.5 c 128,-1,4
 107 504 107 504 127 509 c 1,5,-1
 134 544 l 2,6,7
 147 606 147 606 169.5 646.5 c 128,-1,8
 192 687 192 687 222 710.5 c 128,-1,9
 252 734 252 734 290 743 c 128,-1,10
 328 752 328 752 372 752 c 0,11,12
 404 752 404 752 437 746.5 c 128,-1,13
 470 741 470 741 490 730 c 1,14,15
 492 716 492 716 488.5 699.5 c 128,-1,16
 485 683 485 683 477.5 668 c 128,-1,17
 470 653 470 653 460 641 c 128,-1,18
 450 629 450 629 438 623 c 1,19,-1
 366 699 l 1,20,21
 352 696 352 696 338.5 689.5 c 128,-1,22
 325 683 325 683 313 668 c 128,-1,23
 301 653 301 653 289.5 625 c 128,-1,24
 278 597 278 597 269 550 c 2,25,-1
 260 500 l 1,26,-1
 370 500 l 1,27,28
 372 489 372 489 370 469.5 c 128,-1,29
 368 450 368 450 357 437 c 1,30,-1
 247 437 l 1,31,-1
 185 43 l 1,32,33
 175 -28 175 -28 144 -75 c 128,-1,34
 113 -122 113 -122 75.5 -150.5 c 128,-1,35
 38 -179 38 -179 0 -193 c 128,-1,36
 -38 -207 -38 -207 -62 -212 c 1,37,-1
 -73 -178 l 1,38,39
 -61 -172 -61 -172 -43 -158.5 c 128,-1,40
 -25 -145 -25 -145 -7 -121 c 128,-1,41
 11 -97 11 -97 26.5 -61.5 c 128,-1,42
 42 -26 42 -26 50 24 c 2,43,-1
 113 437 l 1,0,-1
EndSplineSet
EndChar

StartChar: g
Encoding: 103 103 74
Width: 520
Flags: W
LayerCount: 2
Fore
SplineSet
294 512 m 0,0,1
 351 512 351 512 387.5 499 c 128,-1,2
 424 486 424 486 441 472 c 1,3,4
 451 481 451 481 468 490.5 c 128,-1,5
 485 500 485 500 504.5 508.5 c 128,-1,6
 524 517 524 517 543.5 524 c 128,-1,7
 563 531 563 531 579 536 c 1,8,9
 584 527 584 527 585.5 512 c 128,-1,10
 587 497 587 497 585.5 481.5 c 128,-1,11
 584 466 584 466 579 452 c 128,-1,12
 574 438 574 438 566 429 c 1,13,-1
 467 440 l 1,14,15
 472 432 472 432 475.5 419 c 128,-1,16
 479 406 479 406 479 390 c 0,17,18
 479 354 479 354 462 321.5 c 128,-1,19
 445 289 445 289 412.5 265 c 128,-1,20
 380 241 380 241 334.5 226.5 c 128,-1,21
 289 212 289 212 232 212 c 0,22,23
 215 212 215 212 204.5 212.5 c 128,-1,24
 194 213 194 213 181 216 c 1,25,26
 176 212 176 212 169.5 207.5 c 128,-1,27
 163 203 163 203 156.5 198 c 128,-1,28
 150 193 150 193 145.5 186.5 c 128,-1,29
 141 180 141 180 141 172 c 0,30,31
 141 157 141 157 166 149 c 128,-1,32
 191 141 191 141 228 135 c 128,-1,33
 265 129 265 129 309 121 c 128,-1,34
 353 113 353 113 390 98 c 128,-1,35
 427 83 427 83 452 57.5 c 128,-1,36
 477 32 477 32 477 -10 c 0,37,38
 477 -56 477 -56 447.5 -93 c 128,-1,39
 418 -130 418 -130 370.5 -156.5 c 128,-1,40
 323 -183 323 -183 263.5 -197.5 c 128,-1,41
 204 -212 204 -212 143 -212 c 0,42,43
 93 -212 93 -212 55 -202.5 c 128,-1,44
 17 -193 17 -193 -8.5 -176.5 c 128,-1,45
 -34 -160 -34 -160 -46.5 -139 c 128,-1,46
 -59 -118 -59 -118 -59 -95 c 0,47,48
 -59 -43 -59 -43 -14 -7.5 c 128,-1,49
 31 28 31 28 100 51 c 1,50,51
 74 62 74 62 58.5 77.5 c 128,-1,52
 43 93 43 93 43 117 c 0,53,54
 43 132 43 132 52 148 c 128,-1,55
 61 164 61 164 75 179 c 128,-1,56
 89 194 89 194 106 206.5 c 128,-1,57
 123 219 123 219 140 227 c 1,58,59
 125 230 125 230 108.5 239 c 128,-1,60
 92 248 92 248 78.5 261.5 c 128,-1,61
 65 275 65 275 56 293.5 c 128,-1,62
 47 312 47 312 47 333 c 0,63,64
 47 372 47 372 64 405 c 128,-1,65
 81 438 81 438 113 461.5 c 128,-1,66
 145 485 145 485 190.5 498.5 c 128,-1,67
 236 512 236 512 294 512 c 0,0,1
190 -155 m 0,68,69
 217 -155 217 -155 242.5 -148.5 c 128,-1,70
 268 -142 268 -142 288 -129.5 c 128,-1,71
 308 -117 308 -117 320.5 -98 c 128,-1,72
 333 -79 333 -79 333 -53 c 0,73,74
 333 -29 333 -29 313.5 -14.5 c 128,-1,75
 294 0 294 0 264 9.5 c 128,-1,76
 234 19 234 19 198.5 25 c 128,-1,77
 163 31 163 31 131 39 c 1,78,79
 103 18 103 18 89 -11 c 128,-1,80
 75 -40 75 -40 75 -69 c 0,81,82
 75 -109 75 -109 106 -132 c 128,-1,83
 137 -155 137 -155 190 -155 c 0,68,69
282 457 m 0,84,85
 258 457 258 457 240 447 c 128,-1,86
 222 437 222 437 210 420 c 128,-1,87
 198 403 198 403 192 380 c 128,-1,88
 186 357 186 357 186 331 c 0,89,90
 186 296 186 296 203.5 281.5 c 128,-1,91
 221 267 221 267 241 267 c 0,92,93
 265 267 265 267 283 277 c 128,-1,94
 301 287 301 287 313 303.5 c 128,-1,95
 325 320 325 320 331 342 c 128,-1,96
 337 364 337 364 337 389 c 0,97,98
 337 419 337 419 323 438 c 128,-1,99
 309 457 309 457 282 457 c 0,84,85
EndSplineSet
EndChar

StartChar: h
Encoding: 104 104 75
Width: 581
Flags: W
LayerCount: 2
Fore
SplineSet
90 682 m 1,0,-1
 90 714 l 1,1,2
 105 720 105 720 128.5 726.5 c 128,-1,3
 152 733 152 733 179.5 738.5 c 128,-1,4
 207 744 207 744 236 748 c 128,-1,5
 265 752 265 752 291 752 c 1,6,-1
 312 743 l 1,7,-1
 228 354 l 1,8,-1
 233 354 l 1,9,10
 252 386 252 386 275.5 415 c 128,-1,11
 299 444 299 444 325 465.5 c 128,-1,12
 351 487 351 487 380 499.5 c 128,-1,13
 409 512 409 512 439 512 c 0,14,15
 485 512 485 512 510 485.5 c 128,-1,16
 535 459 535 459 535 420 c 0,17,18
 535 393 535 393 530 362 c 128,-1,19
 525 331 525 331 518 302 c 2,20,-1
 461 69 l 1,21,-1
 535 69 l 1,22,-1
 535 35 l 1,23,24
 515 19 515 19 476.5 5 c 128,-1,25
 438 -9 438 -9 389 -9 c 0,26,27
 356 -9 356 -9 341 4.5 c 128,-1,28
 326 18 326 18 326 37 c 0,29,30
 326 55 326 55 330.5 74 c 128,-1,31
 335 93 335 93 340 118 c 2,32,-1
 377 285 l 2,33,34
 384 316 384 316 389.5 341.5 c 128,-1,35
 395 367 395 367 395 390 c 0,36,37
 395 408 395 408 387.5 420 c 128,-1,38
 380 432 380 432 365 432 c 0,39,40
 342 432 342 432 319 415.5 c 128,-1,41
 296 399 296 399 276 376 c 128,-1,42
 256 353 256 353 240.5 328 c 128,-1,43
 225 303 225 303 218 286 c 1,44,-1
 159 0 l 1,45,-1
 21 0 l 1,46,-1
 156 669 l 1,47,-1
 90 682 l 1,0,-1
EndSplineSet
EndChar

StartChar: k
Encoding: 107 107 78
Width: 539
Flags: W
LayerCount: 2
Fore
SplineSet
315 45 m 1,0,1
 287 93 287 93 270.5 140 c 128,-1,2
 254 187 254 187 239 229 c 1,3,-1
 206 239 l 1,4,-1
 161 0 l 1,5,-1
 21 0 l 1,6,-1
 154 669 l 1,7,-1
 87 682 l 1,8,-1
 87 716 l 1,9,10
 101 722 101 722 124 728.5 c 128,-1,11
 147 735 147 735 174 740 c 128,-1,12
 201 745 201 745 230.5 748.5 c 128,-1,13
 260 752 260 752 288 752 c 1,14,-1
 309 741 l 1,15,-1
 216 283 l 1,16,-1
 248 283 l 1,17,18
 265 296 265 296 283 314 c 128,-1,19
 301 332 301 332 317 350 c 128,-1,20
 333 368 333 368 345.5 385.5 c 128,-1,21
 358 403 358 403 365 415 c 1,22,23
 366 422 366 422 366.5 434 c 128,-1,24
 367 446 367 446 366.5 458.5 c 128,-1,25
 366 471 366 471 365.5 482.5 c 128,-1,26
 365 494 365 494 364 500 c 1,27,28
 381 506 381 506 407 509.5 c 128,-1,29
 433 513 433 513 460 513 c 256,30,31
 487 513 487 513 510.5 509.5 c 128,-1,32
 534 506 534 506 545 500 c 1,33,34
 532 467 532 467 506.5 435 c 128,-1,35
 481 403 481 403 451.5 375 c 128,-1,36
 422 347 422 347 393.5 324.5 c 128,-1,37
 365 302 365 302 347 289 c 1,38,39
 354 270 354 270 368.5 241 c 128,-1,40
 383 212 383 212 401 180.5 c 128,-1,41
 419 149 419 149 439 119.5 c 128,-1,42
 459 90 459 90 476 69 c 1,43,-1
 530 69 l 1,44,-1
 530 35 l 1,45,46
 520 27 520 27 504.5 19 c 128,-1,47
 489 11 489 11 471 5 c 128,-1,48
 453 -1 453 -1 434 -5 c 128,-1,49
 415 -9 415 -9 397 -9 c 0,50,51
 373 -9 373 -9 352.5 2 c 128,-1,52
 332 13 332 13 315 45 c 1,0,1
EndSplineSet
EndChar

StartChar: l
Encoding: 108 108 79
Width: 299
Flags: W
LayerCount: 2
Fore
SplineSet
153 669 m 1,0,-1
 85 682 l 1,1,-1
 85 716 l 1,2,3
 99 722 99 722 123 728 c 128,-1,4
 147 734 147 734 175 739.5 c 128,-1,5
 203 745 203 745 232.5 748.5 c 128,-1,6
 262 752 262 752 287 752 c 1,7,-1
 307 741 l 1,8,-1
 176 69 l 1,9,-1
 247 69 l 1,10,-1
 247 35 l 1,11,12
 237 27 237 27 220 19 c 128,-1,13
 203 11 203 11 182.5 5 c 128,-1,14
 162 -1 162 -1 140 -5 c 128,-1,15
 118 -9 118 -9 98 -9 c 0,16,17
 64 -9 64 -9 48.5 5.5 c 128,-1,18
 33 20 33 20 33 37 c 0,19,20
 33 57 33 57 36 76 c 128,-1,21
 39 95 39 95 44 118 c 2,22,-1
 153 669 l 1,0,-1
EndSplineSet
EndChar

StartChar: m
Encoding: 109 109 80
Width: 849
Flags: W
LayerCount: 2
Fore
SplineSet
645 300 m 2,0,1
 650 323 650 323 656 349.5 c 128,-1,2
 662 376 662 376 662 391 c 0,3,4
 662 410 662 410 655.5 421 c 128,-1,5
 649 432 649 432 632 432 c 256,6,7
 615 432 615 432 597 419.5 c 128,-1,8
 579 407 579 407 562 386.5 c 128,-1,9
 545 366 545 366 529.5 340 c 128,-1,10
 514 314 514 314 502 287 c 1,11,-1
 437 0 l 1,12,-1
 303 0 l 1,13,-1
 364 281 l 2,14,15
 371 312 371 312 376 341 c 128,-1,16
 381 370 381 370 381 395 c 0,17,18
 381 432 381 432 353 432 c 0,19,20
 339 432 339 432 321 419 c 128,-1,21
 303 406 303 406 285 385.5 c 128,-1,22
 267 365 267 365 251 339 c 128,-1,23
 235 313 235 313 226 286 c 1,24,-1
 168 0 l 1,25,-1
 28 0 l 1,26,-1
 117 429 l 1,27,-1
 60 442 l 1,28,-1
 60 476 l 1,29,30
 76 484 76 484 99.5 491 c 128,-1,31
 123 498 123 498 149 502.5 c 128,-1,32
 175 507 175 507 202 509.5 c 128,-1,33
 229 512 229 512 252 512 c 1,34,-1
 273 500 l 1,35,-1
 234 354 l 1,36,-1
 238 354 l 1,37,38
 253 381 253 381 274.5 409.5 c 128,-1,39
 296 438 296 438 323 460.5 c 128,-1,40
 350 483 350 483 381 497.5 c 128,-1,41
 412 512 412 512 444 512 c 0,42,43
 456 512 456 512 469 508 c 128,-1,44
 482 504 482 504 493.5 493.5 c 128,-1,45
 505 483 505 483 512 465 c 128,-1,46
 519 447 519 447 519 419 c 0,47,48
 519 405 519 405 516.5 387 c 128,-1,49
 514 369 514 369 510 354 c 1,50,51
 527 385 527 385 550 414 c 128,-1,52
 573 443 573 443 599.5 464.5 c 128,-1,53
 626 486 626 486 655.5 499 c 128,-1,54
 685 512 685 512 717 512 c 0,55,56
 755 512 755 512 779 488 c 128,-1,57
 803 464 803 464 803 422 c 0,58,59
 803 390 803 390 797 361 c 128,-1,60
 791 332 791 332 784 300 c 2,61,-1
 727 69 l 1,62,-1
 797 69 l 1,63,-1
 797 35 l 1,64,65
 787 27 787 27 769.5 19 c 128,-1,66
 752 11 752 11 732 5 c 128,-1,67
 712 -1 712 -1 691 -5 c 128,-1,68
 670 -9 670 -9 652 -9 c 0,69,70
 616 -9 616 -9 602 5.5 c 128,-1,71
 588 20 588 20 588 38 c 0,72,73
 588 67 588 67 602 118 c 1,74,-1
 645 300 l 2,0,1
EndSplineSet
EndChar

StartChar: n
Encoding: 110 110 81
Width: 588
Flags: W
LayerCount: 2
Fore
SplineSet
384 285 m 2,0,1
 391 316 391 316 396.5 340 c 128,-1,2
 402 364 402 364 402 390 c 0,3,4
 402 407 402 407 394.5 419.5 c 128,-1,5
 387 432 387 432 368 432 c 256,6,7
 349 432 349 432 328.5 417.5 c 128,-1,8
 308 403 308 403 288.5 381.5 c 128,-1,9
 269 360 269 360 252.5 334 c 128,-1,10
 236 308 236 308 226 286 c 1,11,-1
 166 0 l 1,12,-1
 28 0 l 1,13,-1
 114 429 l 1,14,-1
 55 442 l 1,15,-1
 57 476 l 1,16,17
 71 483 71 483 93 489.5 c 128,-1,18
 115 496 115 496 141 501 c 128,-1,19
 167 506 167 506 194.5 509 c 128,-1,20
 222 512 222 512 247 512 c 1,21,-1
 267 500 l 1,22,-1
 236 354 l 1,23,-1
 241 354 l 1,24,25
 259 387 259 387 283 416 c 128,-1,26
 307 445 307 445 334 466 c 128,-1,27
 361 487 361 487 391 499.5 c 128,-1,28
 421 512 421 512 452 512 c 0,29,30
 494 512 494 512 518 485 c 128,-1,31
 542 458 542 458 542 413 c 0,32,33
 542 390 542 390 537 360.5 c 128,-1,34
 532 331 532 331 525 302 c 2,35,-1
 470 69 l 1,36,-1
 542 69 l 1,37,-1
 542 35 l 1,38,39
 532 27 532 27 515.5 19 c 128,-1,40
 499 11 499 11 479.5 5 c 128,-1,41
 460 -1 460 -1 439 -5 c 128,-1,42
 418 -9 418 -9 399 -9 c 0,43,44
 365 -9 365 -9 349.5 4 c 128,-1,45
 334 17 334 17 334 34 c 0,46,47
 334 55 334 55 339 79 c 128,-1,48
 344 103 344 103 349 125 c 2,49,-1
 384 285 l 2,0,1
EndSplineSet
EndChar

StartChar: o
Encoding: 111 111 82
Width: 549
Flags: W
LayerCount: 2
Fore
SplineSet
29 192 m 0,0,1
 29 246 29 246 47 302.5 c 128,-1,2
 65 359 65 359 102 405.5 c 128,-1,3
 139 452 139 452 195.5 482 c 128,-1,4
 252 512 252 512 328 512 c 0,5,6
 418 512 418 512 469 463 c 128,-1,7
 520 414 520 414 520 317 c 0,8,9
 520 251 520 251 500 191.5 c 128,-1,10
 480 132 480 132 442 86.5 c 128,-1,11
 404 41 404 41 349.5 14.5 c 128,-1,12
 295 -12 295 -12 225 -12 c 0,13,14
 183 -12 183 -12 147 0.5 c 128,-1,15
 111 13 111 13 84.5 38.5 c 128,-1,16
 58 64 58 64 43.5 102 c 128,-1,17
 29 140 29 140 29 192 c 0,0,1
311 455 m 0,18,19
 271 455 271 455 244.5 425 c 128,-1,20
 218 395 218 395 201.5 349.5 c 128,-1,21
 185 304 185 304 178 251 c 128,-1,22
 171 198 171 198 171 153 c 0,23,24
 171 102 171 102 190.5 73.5 c 128,-1,25
 210 45 210 45 244 45 c 0,26,27
 273 45 273 45 297.5 69.5 c 128,-1,28
 322 94 322 94 340 135.5 c 128,-1,29
 358 177 358 177 368 230.5 c 128,-1,30
 378 284 378 284 378 342 c 0,31,32
 378 397 378 397 360.5 426 c 128,-1,33
 343 455 343 455 311 455 c 0,18,19
EndSplineSet
Substitution2: "Single Substitution lookup 17 subtable" ordmasculine
EndChar

StartChar: q
Encoding: 113 113 84
Width: 546
Flags: W
LayerCount: 2
Fore
SplineSet
408 -132 m 1,0,1
 424 -135 424 -135 442 -143 c 128,-1,2
 460 -151 460 -151 474 -162 c 1,3,-1
 474 -200 l 1,4,-1
 268 -200 l 1,5,-1
 259 -192 l 1,6,-1
 336 152 l 1,7,-1
 332 152 l 1,8,9
 319 123 319 123 300.5 94 c 128,-1,10
 282 65 282 65 258 41.5 c 128,-1,11
 234 18 234 18 204.5 3 c 128,-1,12
 175 -12 175 -12 140 -12 c 0,13,14
 88 -12 88 -12 57 29 c 128,-1,15
 26 70 26 70 26 148 c 0,16,17
 26 220 26 220 45.5 285.5 c 128,-1,18
 65 351 65 351 105.5 401 c 128,-1,19
 146 451 146 451 207 480.5 c 128,-1,20
 268 510 268 510 351 510 c 0,21,22
 381 510 381 510 410.5 506.5 c 128,-1,23
 440 503 440 503 465 498 c 128,-1,24
 490 493 490 493 509 487 c 128,-1,25
 528 481 528 481 538 476 c 1,26,-1
 408 -132 l 1,0,1
218 68 m 0,27,28
 237 68 237 68 256 84.5 c 128,-1,29
 275 101 275 101 292 126 c 128,-1,30
 309 151 309 151 324 180.5 c 128,-1,31
 339 210 339 210 350 236 c 1,32,-1
 390 442 l 1,33,34
 372 453 372 453 337 453 c 0,35,36
 296 453 296 453 265 426.5 c 128,-1,37
 234 400 234 400 212 357.5 c 128,-1,38
 190 315 190 315 179 262 c 128,-1,39
 168 209 168 209 168 156 c 0,40,41
 168 68 168 68 218 68 c 0,27,28
EndSplineSet
EndChar

StartChar: r
Encoding: 114 114 85
Width: 435
Flags: W
LayerCount: 2
Fore
SplineSet
314 405 m 1,0,1
 295 397 295 397 271.5 369 c 128,-1,2
 248 341 248 341 232 298 c 1,3,-1
 168 0 l 1,4,-1
 28 0 l 1,5,-1
 117 429 l 1,6,-1
 60 442 l 1,7,-1
 60 476 l 1,8,9
 77 484 77 484 99.5 490.5 c 128,-1,10
 122 497 122 497 147.5 501.5 c 128,-1,11
 173 506 173 506 200 508.5 c 128,-1,12
 227 511 227 511 252 512 c 1,13,-1
 272 500 l 1,14,-1
 246 376 l 1,15,-1
 250 376 l 1,16,17
 280 434 280 434 319 473 c 128,-1,18
 358 512 358 512 410 512 c 0,19,20
 424 512 424 512 438 509.5 c 128,-1,21
 452 507 452 507 464 500 c 1,22,23
 466 479 466 479 460.5 454.5 c 128,-1,24
 455 430 455 430 446 408 c 128,-1,25
 437 386 437 386 425 369 c 128,-1,26
 413 352 413 352 402 346 c 1,27,-1
 314 405 l 1,0,1
EndSplineSet
EndChar

StartChar: s
Encoding: 115 115 86
Width: 432
Flags: W
LayerCount: 2
Fore
SplineSet
229 110 m 0,0,1
 229 132 229 132 217 149.5 c 128,-1,2
 205 167 205 167 187 184 c 128,-1,3
 169 201 169 201 147.5 217.5 c 128,-1,4
 126 234 126 234 108 255 c 128,-1,5
 90 276 90 276 78 301.5 c 128,-1,6
 66 327 66 327 66 361 c 0,7,8
 66 437 66 437 120.5 474.5 c 128,-1,9
 175 512 175 512 269 512 c 0,10,11
 285 512 285 512 304.5 510.5 c 128,-1,12
 324 509 324 509 344 505 c 128,-1,13
 364 501 364 501 382.5 495.5 c 128,-1,14
 401 490 401 490 416 481 c 1,15,16
 417 470 417 470 414.5 452.5 c 128,-1,17
 412 435 412 435 405.5 417.5 c 128,-1,18
 399 400 399 400 388.5 385.5 c 128,-1,19
 378 371 378 371 363 366 c 1,20,-1
 283 455 l 1,21,22
 251 455 251 455 229.5 442 c 128,-1,23
 208 429 208 429 208 396 c 0,24,25
 208 374 208 374 220.5 356 c 128,-1,26
 233 338 233 338 251 321.5 c 128,-1,27
 269 305 269 305 291 288 c 128,-1,28
 313 271 313 271 331 250.5 c 128,-1,29
 349 230 349 230 361.5 204 c 128,-1,30
 374 178 374 178 374 144 c 0,31,32
 374 106 374 106 357 77 c 128,-1,33
 340 48 340 48 310.5 28 c 128,-1,34
 281 8 281 8 240 -2 c 128,-1,35
 199 -12 199 -12 151 -12 c 0,36,37
 100 -12 100 -12 59.5 -0.5 c 128,-1,38
 19 11 19 11 -1 25 c 1,39,40
 -2 57 -2 57 10.5 88 c 128,-1,41
 23 119 23 119 47 136 c 1,42,-1
 144 45 l 1,43,44
 177 45 177 45 203 61 c 128,-1,45
 229 77 229 77 229 110 c 0,0,1
EndSplineSet
Substitution2: "'hist' Historical Forms lookup 16 subtable" longs
Substitution2: "'aalt' Access All Alternates lookup 0 subtable" longs
EndChar

StartChar: t
Encoding: 116 116 87
Width: 367
Flags: W
LayerCount: 2
Fore
SplineSet
45 476 m 1,0,1
 64 488 64 488 87 496.5 c 128,-1,2
 110 505 110 505 132 510 c 1,3,-1
 148 586 l 1,4,5
 155 592 155 592 170 597.5 c 128,-1,6
 185 603 185 603 203 607.5 c 128,-1,7
 221 612 221 612 239.5 616 c 128,-1,8
 258 620 258 620 273 622 c 1,9,-1
 294 610 l 1,10,-1
 270 500 l 1,11,-1
 387 500 l 1,12,13
 389 488 389 488 385.5 468.5 c 128,-1,14
 382 449 382 449 374 437 c 1,15,-1
 257 437 l 1,16,-1
 199 178 l 2,17,18
 195 159 195 159 193 144.5 c 128,-1,19
 191 130 191 130 191 118 c 0,20,21
 191 92 191 92 204 80 c 128,-1,22
 217 68 217 68 239 68 c 0,23,24
 264 68 264 68 286 74 c 128,-1,25
 308 80 308 80 328 91 c 1,26,-1
 341 65 l 1,27,28
 329 52 329 52 309 38.5 c 128,-1,29
 289 25 289 25 264 13.5 c 128,-1,30
 239 2 239 2 210 -5 c 128,-1,31
 181 -12 181 -12 151 -12 c 0,32,33
 99 -12 99 -12 73 12 c 128,-1,34
 47 36 47 36 47 78 c 0,35,36
 47 101 47 101 51 127 c 128,-1,37
 55 153 55 153 59 171 c 2,38,-1
 117 437 l 1,39,-1
 45 437 l 1,40,-1
 45 476 l 1,0,1
EndSplineSet
EndChar

StartChar: v
Encoding: 118 118 89
Width: 481
Flags: W
LayerCount: 2
Fore
SplineSet
289 175 m 1,0,1
 316 224 316 224 338 274.5 c 128,-1,2
 360 325 360 325 376 381 c 1,3,4
 376 392 376 392 373.5 409.5 c 128,-1,5
 371 427 371 427 368.5 445 c 128,-1,6
 366 463 366 463 363 478.5 c 128,-1,7
 360 494 360 494 358 500 c 1,8,9
 372 506 372 506 392.5 509 c 128,-1,10
 413 512 413 512 433.5 512 c 128,-1,11
 454 512 454 512 473 509 c 128,-1,12
 492 506 492 506 503 500 c 1,13,14
 488 438 488 438 460.5 372.5 c 128,-1,15
 433 307 433 307 398 242 c 128,-1,16
 363 177 363 177 322 115.5 c 128,-1,17
 281 54 281 54 238 0 c 1,18,-1
 146 -12 l 1,19,-1
 72 429 l 1,20,-1
 8 437 l 1,21,-1
 8 471 l 1,22,23
 20 478 20 478 37 485 c 128,-1,24
 54 492 54 492 74.5 498 c 128,-1,25
 95 504 95 504 116.5 508 c 128,-1,26
 138 512 138 512 159 512 c 0,27,28
 186 512 186 512 197 497.5 c 128,-1,29
 208 483 208 483 211 461 c 2,30,-1
 249 173 l 1,31,-1
 255 106 l 1,32,-1
 257 106 l 1,33,-1
 289 175 l 1,0,1
EndSplineSet
EndChar

StartChar: w
Encoding: 119 119 90
Width: 762
Flags: W
LayerCount: 2
Fore
SplineSet
579 174 m 1,0,1
 606 226 606 226 625.5 274 c 128,-1,2
 645 322 645 322 660 374 c 1,3,4
 660 385 660 385 657 403.5 c 128,-1,5
 654 422 654 422 651 441.5 c 128,-1,6
 648 461 648 461 644.5 477.5 c 128,-1,7
 641 494 641 494 639 500 c 1,8,9
 653 506 653 506 674 509 c 128,-1,10
 695 512 695 512 716 512 c 0,11,12
 736 512 736 512 754.5 509 c 128,-1,13
 773 506 773 506 784 500 c 1,14,15
 769 438 769 438 744 373 c 128,-1,16
 719 308 719 308 687.5 243.5 c 128,-1,17
 656 179 656 179 620 117 c 128,-1,18
 584 55 584 55 545 0 c 1,19,-1
 442 -12 l 1,20,-1
 397 243 l 1,21,-1
 394 320 l 1,22,-1
 391 320 l 1,23,-1
 358 242 l 1,24,25
 329 183 329 183 295 119.5 c 128,-1,26
 261 56 261 56 227 0 c 1,27,-1
 120 -12 l 1,28,-1
 72 429 l 1,29,-1
 8 437 l 1,30,-1
 8 471 l 1,31,32
 20 478 20 478 37.5 485 c 128,-1,33
 55 492 55 492 74.5 498 c 128,-1,34
 94 504 94 504 114.5 508 c 128,-1,35
 135 512 135 512 154 512 c 0,36,37
 181 512 181 512 196 498.5 c 128,-1,38
 211 485 211 485 213 463 c 2,39,-1
 236 177 l 1,40,-1
 234 105 l 1,41,-1
 236 105 l 1,42,-1
 264 178 l 1,43,-1
 403 480 l 1,44,-1
 482 500 l 1,45,46
 502 425 502 425 518 341.5 c 128,-1,47
 534 258 534 258 545 177 c 1,48,-1
 550 106 l 1,49,-1
 552 106 l 1,50,-1
 579 174 l 1,0,1
EndSplineSet
EndChar

StartChar: x
Encoding: 120 120 91
Width: 506
Flags: W
LayerCount: 2
Fore
SplineSet
201 202 m 1,0,1
 181 179 181 179 158 152 c 128,-1,2
 135 125 135 125 122 100 c 1,3,4
 121 92 121 92 121 79 c 128,-1,5
 121 66 121 66 122 52 c 128,-1,6
 123 38 123 38 124.5 25.5 c 128,-1,7
 126 13 126 13 128 7 c 1,8,9
 111 0 111 0 88.5 -3 c 128,-1,10
 66 -6 66 -6 44 -6 c 256,11,12
 22 -6 22 -6 3 -3 c 128,-1,13
 -16 0 -16 0 -27 7 c 1,14,15
 -18 37 -18 37 7.5 73 c 128,-1,16
 33 109 33 109 64.5 143.5 c 128,-1,17
 96 178 96 178 128.5 208.5 c 128,-1,18
 161 239 161 239 184 257 c 1,19,-1
 123 423 l 1,20,-1
 54 431 l 1,21,-1
 54 465 l 1,22,23
 68 473 68 473 87.5 481 c 128,-1,24
 107 489 107 489 128 495 c 128,-1,25
 149 501 149 501 170.5 505 c 128,-1,26
 192 509 192 509 209 509 c 0,27,28
 235 509 235 509 248.5 495.5 c 128,-1,29
 262 482 262 482 269 460 c 2,30,-1
 314 302 l 1,31,32
 333 322 333 322 354 350 c 128,-1,33
 375 378 375 378 386 401 c 1,34,35
 387 408 387 408 386.5 421 c 128,-1,36
 386 434 386 434 384.5 448.5 c 128,-1,37
 383 463 383 463 380.5 475.5 c 128,-1,38
 378 488 378 488 377 494 c 1,39,40
 414 507 414 507 458 507 c 0,41,42
 478 507 478 507 497 503.5 c 128,-1,43
 516 500 516 500 527 494 c 1,44,45
 518 464 518 464 493.5 428 c 128,-1,46
 469 392 469 392 439 358 c 128,-1,47
 409 324 409 324 378.5 295.5 c 128,-1,48
 348 267 348 267 329 252 c 1,49,-1
 395 77 l 1,50,-1
 464 69 l 1,51,-1
 464 35 l 1,52,53
 454 28 454 28 436 20.5 c 128,-1,54
 418 13 418 13 397 6.5 c 128,-1,55
 376 0 376 0 354 -4.5 c 128,-1,56
 332 -9 332 -9 314 -9 c 0,57,58
 288 -9 288 -9 273 4 c 128,-1,59
 258 17 258 17 251 39 c 2,60,-1
 201 202 l 1,0,1
EndSplineSet
EndChar

StartChar: y
Encoding: 121 121 92
Width: 487
Flags: W
LayerCount: 2
Fore
SplineSet
72 429 m 1,0,-1
 8 437 l 1,1,-1
 8 471 l 1,2,3
 13 475 13 475 28 481.5 c 128,-1,4
 43 488 43 488 63.5 495 c 128,-1,5
 84 502 84 502 107 507 c 128,-1,6
 130 512 130 512 152 512 c 0,7,8
 179 512 179 512 194 499 c 128,-1,9
 209 486 209 486 214 463 c 2,10,-1
 291 160 l 1,11,-1
 296 100 l 1,12,-1
 298 100 l 1,13,-1
 319 159 l 1,14,15
 339 207 339 207 358 262.5 c 128,-1,16
 377 318 377 318 388 366 c 1,17,18
 388 377 388 377 384.5 396.5 c 128,-1,19
 381 416 381 416 377 436.5 c 128,-1,20
 373 457 373 457 369 474.5 c 128,-1,21
 365 492 365 492 363 498 c 1,22,23
 377 504 377 504 398 507 c 128,-1,24
 419 510 419 510 440 510 c 256,25,26
 461 510 461 510 479 507 c 128,-1,27
 497 504 497 504 508 498 c 1,28,29
 482 379 482 379 428.5 251 c 128,-1,30
 375 123 375 123 305 0 c 0,31,32
 247 -103 247 -103 189.5 -156 c 128,-1,33
 132 -209 132 -209 57 -209 c 0,34,35
 36 -209 36 -209 18.5 -203.5 c 128,-1,36
 1 -198 1 -198 -13 -189 c 1,37,38
 -16 -175 -16 -175 -11 -156 c 128,-1,39
 -6 -137 -6 -137 3.5 -119 c 128,-1,40
 13 -101 13 -101 26 -86 c 128,-1,41
 39 -71 39 -71 53 -66 c 1,42,-1
 128 -119 l 1,43,44
 135 -114 135 -114 146 -104.5 c 128,-1,45
 157 -95 157 -95 168 -80.5 c 128,-1,46
 179 -66 179 -66 190 -46 c 128,-1,47
 201 -26 201 -26 210 0 c 1,48,-1
 72 429 l 1,0,-1
EndSplineSet
EndChar

StartChar: z
Encoding: 122 122 93
Width: 468
Flags: W
LayerCount: 2
Fore
SplineSet
122 183 m 1,0,-1
 122 184 l 1,1,-1
 313 383 l 1,2,3
 274 382 274 382 228.5 386.5 c 128,-1,4
 183 391 183 391 135 399 c 1,5,-1
 89 327 l 1,6,-1
 55 333 l 1,7,-1
 69 474 l 1,8,9
 75 513 75 513 126 513 c 0,10,11
 146 513 146 513 176 509.5 c 128,-1,12
 206 506 206 506 243.5 501 c 128,-1,13
 281 496 281 496 324.5 491.5 c 128,-1,14
 368 487 368 487 415 484 c 1,15,-1
 441 512 l 1,16,17
 455 511 455 511 470 498.5 c 128,-1,18
 485 486 485 486 487 469 c 1,19,-1
 165 133 l 1,20,21
 216 122 216 122 264 105.5 c 128,-1,22
 312 89 312 89 354 66 c 1,23,-1
 421 132 l 1,24,-1
 454 118 l 1,25,-1
 410 -23 l 2,26,27
 405 -38 405 -38 390.5 -48 c 128,-1,28
 376 -58 376 -58 356 -58 c 0,29,30
 335 -58 335 -58 305.5 -45 c 128,-1,31
 276 -32 276 -32 239 -15.5 c 128,-1,32
 202 1 202 1 160 17 c 128,-1,33
 118 33 118 33 72 39 c 1,34,-1
 25 -9 l 1,35,36
 17 -9 17 -9 9 -5 c 128,-1,37
 1 -1 1 -1 -6 5 c 128,-1,38
 -13 11 -13 11 -17.5 19 c 128,-1,39
 -22 27 -22 27 -21 36 c 1,40,-1
 122 183 l 1,0,-1
EndSplineSet
EndChar

StartChar: braceleft
Encoding: 123 123 94
Width: 356
Flags: W
LayerCount: 2
Fore
SplineSet
98 102 m 2,0,1
 103 125 103 125 103 141 c 0,2,3
 103 174 103 174 87 192.5 c 128,-1,4
 71 211 71 211 41 211 c 1,5,-1
 51 259 l 1,6,7
 70 259 70 259 86.5 267 c 128,-1,8
 103 275 103 275 116.5 289.5 c 128,-1,9
 130 304 130 304 139.5 323 c 128,-1,10
 149 342 149 342 154 364 c 2,11,-1
 203 594 l 2,12,13
 213 642 213 642 243 671 c 128,-1,14
 273 700 273 700 321 700 c 2,15,-1
 442 700 l 1,16,-1
 431 645 l 1,17,-1
 396 645 l 2,18,19
 369 645 369 645 353.5 631 c 128,-1,20
 338 617 338 617 331 585 c 2,21,-1
 284 365 l 2,22,23
 277 332 277 332 261.5 309 c 128,-1,24
 246 286 246 286 227 271.5 c 128,-1,25
 208 257 208 257 187 249.5 c 128,-1,26
 166 242 166 242 148 240 c 1,27,-1
 146 234 l 1,28,29
 161 232 161 232 176 225.5 c 128,-1,30
 191 219 191 219 203.5 207 c 128,-1,31
 216 195 216 195 224 177.5 c 128,-1,32
 232 160 232 160 232 136 c 0,33,34
 232 121 232 121 229 105 c 2,35,-1
 182 -115 l 2,36,37
 179 -129 179 -129 179 -138 c 0,38,39
 179 -175 179 -175 222 -175 c 2,40,-1
 256 -175 l 1,41,-1
 245 -230 l 1,42,-1
 124 -230 l 2,43,44
 87 -230 87 -230 66.5 -212 c 128,-1,45
 46 -194 46 -194 46 -158 c 0,46,47
 46 -141 46 -141 50 -125 c 2,48,-1
 98 102 l 2,0,1
EndSplineSet
Position2: "'case' Case-Sensitive Forms lookup 1 per glyph data 3" dx=0 dy=100 dh=0 dv=0
EndChar

StartChar: braceright
Encoding: 125 125 96
Width: 356
Flags: W
LayerCount: 2
Fore
SplineSet
277 369 m 2,0,1
 272 346 272 346 272 330 c 0,2,3
 272 260 272 260 334 260 c 1,4,-1
 323 212 l 1,5,6
 285 212 285 212 257.5 181.5 c 128,-1,7
 230 151 230 151 221 107 c 2,8,-1
 172 -124 l 2,9,10
 162 -172 162 -172 132 -201 c 128,-1,11
 102 -230 102 -230 54 -230 c 2,12,-1
 -67 -230 l 1,13,-1
 -56 -175 l 1,14,-1
 -21 -175 l 2,15,16
 6 -175 6 -175 21.5 -161 c 128,-1,17
 37 -147 37 -147 44 -115 c 2,18,-1
 91 106 l 2,19,20
 98 139 98 139 112 162 c 128,-1,21
 126 185 126 185 143.5 199.5 c 128,-1,22
 161 214 161 214 180.5 221.5 c 128,-1,23
 200 229 200 229 218 231 c 1,24,-1
 219 237 l 1,25,26
 205 238 205 238 191 244.5 c 128,-1,27
 177 251 177 251 166 262 c 128,-1,28
 155 273 155 273 148.5 290 c 128,-1,29
 142 307 142 307 142 330 c 0,30,31
 142 349 142 349 146 366 c 2,32,-1
 193 585 l 2,33,34
 195 591 195 591 195 596.5 c 128,-1,35
 195 602 195 602 195 607 c 0,36,37
 196 645 196 645 152 645 c 2,38,-1
 118 645 l 1,39,-1
 130 700 l 1,40,-1
 252 700 l 2,41,42
 289 700 289 700 309 681.5 c 128,-1,43
 329 663 329 663 329 628 c 0,44,45
 329 611 329 611 325 595 c 2,46,-1
 277 369 l 2,0,1
EndSplineSet
Position2: "'case' Case-Sensitive Forms lookup 1 per glyph data 3" dx=0 dy=100 dh=0 dv=0
EndChar

StartChar: asciitilde
Encoding: 126 126 97
Width: 560
Flags: W
LayerCount: 2
Fore
SplineSet
81 312 m 1,0,1
 107 370 107 370 147 400.5 c 128,-1,2
 187 431 187 431 224 431 c 0,3,4
 249 431 249 431 273 420.5 c 128,-1,5
 297 410 297 410 320 397 c 128,-1,6
 343 384 343 384 366.5 373.5 c 128,-1,7
 390 363 390 363 415 363 c 0,8,9
 433 363 433 363 452.5 370.5 c 128,-1,10
 472 378 472 378 492 397 c 1,11,-1
 515 367 l 1,12,13
 492 319 492 319 459.5 295.5 c 128,-1,14
 427 272 427 272 392 272 c 0,15,16
 366 272 366 272 341.5 282.5 c 128,-1,17
 317 293 317 293 293 306 c 128,-1,18
 269 319 269 319 245 329.5 c 128,-1,19
 221 340 221 340 197 340 c 0,20,21
 175 340 175 340 152.5 328 c 128,-1,22
 130 316 130 316 107 285 c 1,23,-1
 81 312 l 1,0,1
EndSplineSet
EndChar

StartChar: exclamdown
Encoding: 161 161 99
Width: 347
Flags: W
LayerCount: 2
Fore
SplineSet
210 286 m 1,0,-1
 222 92 l 1,1,-1
 168 -186 l 1,2,3
 156 -192 156 -192 135 -194.5 c 128,-1,4
 114 -197 114 -197 91 -197 c 256,5,6
 68 -197 68 -197 47.5 -194.5 c 128,-1,7
 27 -192 27 -192 18 -186 c 1,8,-1
 78 92 l 1,9,-1
 166 286 l 1,10,-1
 210 286 l 1,0,-1
128 432 m 256,11,12
 128 468 128 468 151 490 c 128,-1,13
 174 512 174 512 212 512 c 256,14,15
 250 512 250 512 274 490 c 128,-1,16
 298 468 298 468 298 432 c 256,17,18
 298 396 298 396 274 374.5 c 128,-1,19
 250 353 250 353 212 353 c 256,20,21
 174 353 174 353 151 374.5 c 128,-1,22
 128 396 128 396 128 432 c 256,11,12
EndSplineSet
Position2: "'case' Case-Sensitive Forms lookup 1 per glyph data 3" dx=0 dy=100 dh=0 dv=0
EndChar

StartChar: cent
Encoding: 162 162 100
Width: 560
Flags: W
LayerCount: 2
Fore
SplineSet
475 109 m 1,0,1
 449 68 449 68 407.5 38 c 128,-1,2
 366 8 366 8 312 -3 c 1,3,-1
 278 -170 l 1,4,-1
 201 -170 l 1,5,-1
 235 -11 l 1,6,7
 150 -6 150 -6 98.5 41.5 c 128,-1,8
 47 89 47 89 47 175 c 0,9,10
 47 240 47 240 68.5 297.5 c 128,-1,11
 90 355 90 355 129.5 399.5 c 128,-1,12
 169 444 169 444 224 472.5 c 128,-1,13
 279 501 279 501 345 508 c 1,14,-1
 378 660 l 1,15,-1
 455 660 l 1,16,-1
 423 509 l 1,17,18
 431 508 431 508 437.5 508 c 128,-1,19
 444 508 444 508 452 506 c 1,20,21
 483 504 483 504 514 497.5 c 128,-1,22
 545 491 545 491 559 480 c 1,23,24
 560 469 560 469 555.5 452.5 c 128,-1,25
 551 436 551 436 542 419.5 c 128,-1,26
 533 403 533 403 520.5 388.5 c 128,-1,27
 508 374 508 374 494 368 c 1,28,-1
 433 455 l 1,29,30
 418 455 418 455 403 452 c 1,31,-1
 322 74 l 1,32,33
 370 79 370 79 401 98 c 128,-1,34
 432 117 432 117 451 134 c 1,35,-1
 475 109 l 1,0,1
191 184 m 0,36,37
 191 139 191 139 210 112.5 c 128,-1,38
 229 86 229 86 260 77 c 1,39,-1
 337 434 l 1,40,41
 304 419 304 419 277 395 c 128,-1,42
 250 371 250 371 231 338.5 c 128,-1,43
 212 306 212 306 201.5 267 c 128,-1,44
 191 228 191 228 191 184 c 0,36,37
EndSplineSet
EndChar

StartChar: sterling
Encoding: 163 163 101
Width: 560
Flags: W
LayerCount: 2
Fore
SplineSet
68 375 m 1,0,-1
 145 375 l 1,1,2
 133 407 133 407 126 439.5 c 128,-1,3
 119 472 119 472 119 501 c 0,4,5
 119 598 119 598 183.5 655 c 128,-1,6
 248 712 248 712 389 712 c 0,7,8
 452 712 452 712 506 701.5 c 128,-1,9
 560 691 560 691 596 674 c 1,10,11
 591 658 591 658 582.5 634 c 128,-1,12
 574 610 574 610 564 584.5 c 128,-1,13
 554 559 554 559 543.5 535 c 128,-1,14
 533 511 533 511 524 494 c 1,15,-1
 490 494 l 1,16,-1
 479 631 l 1,17,18
 461 639 461 639 440 643 c 128,-1,19
 419 647 419 647 393 647 c 0,20,21
 346 647 346 647 315 630 c 128,-1,22
 284 613 284 613 276 575 c 0,23,24
 271 551 271 551 272.5 527.5 c 128,-1,25
 274 504 274 504 277 487 c 256,26,27
 280 470 280 470 283 457.5 c 128,-1,28
 286 445 286 445 288.5 433 c 128,-1,29
 291 421 291 421 294 407.5 c 128,-1,30
 297 394 297 394 300 375 c 1,31,-1
 425 375 l 1,32,-1
 411 314 l 1,33,-1
 304 314 l 1,34,35
 301 283 301 283 291.5 265 c 128,-1,36
 282 247 282 247 266 223 c 1,37,38
 260 203 260 203 244 180 c 128,-1,39
 228 157 228 157 202 139 c 1,40,-1
 163 116 l 1,41,-1
 163 112 l 1,42,-1
 214 118 l 1,43,-1
 391 118 l 1,44,-1
 464 230 l 1,45,-1
 498 230 l 1,46,47
 496 207 496 207 493 175 c 128,-1,48
 490 143 490 143 486 110 c 128,-1,49
 482 77 482 77 477.5 47.5 c 128,-1,50
 473 18 473 18 469 0 c 1,51,-1
 -9 0 l 1,52,-1
 2 54 l 1,53,54
 27 63 27 63 47.5 73.5 c 128,-1,55
 68 84 68 84 84.5 96 c 128,-1,56
 101 108 101 108 114.5 122.5 c 128,-1,57
 128 137 128 137 141 154 c 0,58,59
 156 175 156 175 165.5 203 c 128,-1,60
 175 231 175 231 175 249 c 0,61,62
 175 271 175 271 173 285.5 c 128,-1,63
 171 300 171 300 166 314 c 1,64,-1
 54 314 l 1,65,-1
 68 375 l 1,0,-1
EndSplineSet
EndChar

StartChar: currency
Encoding: 164 164 102
Width: 560
Flags: W
LayerCount: 2
Fore
SplineSet
44 178 m 1,0,-1
 118 252 l 1,1,-1
 158 266 l 1,2,3
 145 283 145 283 140 301.5 c 128,-1,4
 135 320 135 320 135 346 c 0,5,6
 135 393 135 393 158 425 c 1,7,-1
 118 440 l 1,8,-1
 44 514 l 1,9,-1
 122 592 l 1,10,-1
 196 518 l 1,11,-1
 211 478 l 1,12,13
 227 489 227 489 245.5 495 c 128,-1,14
 264 501 264 501 289 501 c 0,15,16
 342 500 342 500 370 479 c 1,17,-1
 385 518 l 1,18,-1
 458 590 l 1,19,-1
 535 513 l 1,20,-1
 462 440 l 1,21,-1
 424 426 l 1,22,23
 433 409 433 409 438 390 c 128,-1,24
 443 371 443 371 444 345 c 0,25,26
 445 323 445 323 439.5 303 c 128,-1,27
 434 283 434 283 424 266 c 1,28,-1
 462 252 l 1,29,-1
 535 178 l 1,30,-1
 457 100 l 1,31,-1
 384 173 l 1,32,-1
 370 212 l 1,33,34
 355 203 355 203 334 197 c 128,-1,35
 313 191 313 191 290 191 c 0,36,37
 264 192 264 192 245 197.5 c 128,-1,38
 226 203 226 203 209 212 c 1,39,-1
 196 174 l 1,40,-1
 122 100 l 1,41,-1
 44 178 l 1,0,-1
289 263 m 1,42,43
 325 264 325 264 349.5 287 c 128,-1,44
 374 310 374 310 374 346 c 256,45,46
 374 382 374 382 349.5 405.5 c 128,-1,47
 325 429 325 429 289 429 c 0,48,49
 253 430 253 430 228.5 406 c 128,-1,50
 204 382 204 382 205 346 c 1,51,52
 204 310 204 310 228.5 287 c 128,-1,53
 253 264 253 264 289 263 c 1,42,43
EndSplineSet
EndChar

StartChar: yen
Encoding: 165 165 103
Width: 560
Flags: W
LayerCount: 2
Fore
SplineSet
472 700 m 1,0,-1
 713 700 l 1,1,-1
 705 662 l 1,2,3
 688 652 688 652 665.5 644 c 128,-1,4
 643 636 643 636 623 633 c 1,5,-1
 410 342 l 1,6,-1
 527 342 l 1,7,-1
 513 277 l 1,8,-1
 371 277 l 1,9,-1
 358 220 l 1,10,-1
 501 220 l 1,11,-1
 487 155 l 1,12,-1
 345 155 l 1,13,-1
 326 67 l 1,14,15
 345 64 345 64 363 56 c 128,-1,16
 381 48 381 48 396 38 c 1,17,-1
 388 0 l 1,18,-1
 80 0 l 1,19,-1
 88 38 l 1,20,21
 107 47 107 47 130 55 c 128,-1,22
 153 63 153 63 176 67 c 1,23,-1
 195 155 l 1,24,-1
 52 155 l 1,25,-1
 66 220 l 1,26,-1
 208 220 l 1,27,-1
 221 277 l 1,28,-1
 78 277 l 1,29,-1
 92 342 l 1,30,-1
 206 342 l 1,31,-1
 106 633 l 1,32,33
 84 637 84 637 64.5 645 c 128,-1,34
 45 653 45 653 31 662 c 1,35,-1
 39 700 l 1,36,-1
 366 700 l 1,37,-1
 358 662 l 1,38,39
 330 647 330 647 278 633 c 1,40,-1
 350 351 l 1,41,-1
 538 633 l 1,42,43
 516 638 516 638 497 645.5 c 128,-1,44
 478 653 478 653 464 662 c 1,45,-1
 472 700 l 1,0,-1
EndSplineSet
EndChar

StartChar: brokenbar
Encoding: 166 166 104
Width: 235
Flags: W
LayerCount: 2
Fore
SplineSet
97 190 m 1,0,-1
 167 190 l 1,1,-1
 167 -130 l 1,2,-1
 97 -130 l 1,3,-1
 97 190 l 1,0,-1
167 380 m 1,4,-1
 97 380 l 1,5,-1
 97 700 l 1,6,-1
 167 700 l 1,7,-1
 167 380 l 1,4,-1
EndSplineSet
EndChar

StartChar: section
Encoding: 167 167 105
Width: 566
Flags: W
LayerCount: 2
Fore
SplineSet
366 39 m 0,0,1
 366 66 366 66 345 84 c 128,-1,2
 324 102 324 102 292.5 115.5 c 128,-1,3
 261 129 261 129 224 143 c 128,-1,4
 187 157 187 157 155.5 176.5 c 128,-1,5
 124 196 124 196 103 224.5 c 128,-1,6
 82 253 82 253 82 298 c 0,7,8
 82 347 82 347 121 382.5 c 128,-1,9
 160 418 160 418 218 441 c 1,10,11
 197 452 197 452 179 465 c 128,-1,12
 161 478 161 478 147 494.5 c 128,-1,13
 133 511 133 511 125 532 c 128,-1,14
 117 553 117 553 117 580 c 0,15,16
 117 610 117 610 130.5 634.5 c 128,-1,17
 144 659 144 659 169 676 c 128,-1,18
 194 693 194 693 228 702.5 c 128,-1,19
 262 712 262 712 304 712 c 0,20,21
 358 712 358 712 401.5 704 c 128,-1,22
 445 696 445 696 481 685 c 1,23,24
 477 653 477 653 470.5 626.5 c 128,-1,25
 464 600 464 600 452 570 c 1,26,-1
 418 570 l 1,27,-1
 366 647 l 1,28,29
 354 652 354 652 343.5 653.5 c 128,-1,30
 333 655 333 655 317 655 c 0,31,32
 283 655 283 655 267 637.5 c 128,-1,33
 251 620 251 620 251 598 c 0,34,35
 251 571 251 571 272.5 552.5 c 128,-1,36
 294 534 294 534 326 518.5 c 128,-1,37
 358 503 358 503 395.5 487.5 c 128,-1,38
 433 472 433 472 465 451.5 c 128,-1,39
 497 431 497 431 518.5 402.5 c 128,-1,40
 540 374 540 374 540 333 c 0,41,42
 540 307 540 307 528.5 285 c 128,-1,43
 517 263 517 263 499 244.5 c 128,-1,44
 481 226 481 226 458.5 211.5 c 128,-1,45
 436 197 436 197 414 186 c 1,46,47
 450 166 450 166 475 139 c 128,-1,48
 500 112 500 112 500 68 c 0,49,50
 500 -2 500 -2 445 -42 c 128,-1,51
 390 -82 390 -82 290 -82 c 0,52,53
 242 -82 242 -82 193.5 -72 c 128,-1,54
 145 -62 145 -62 107 -44 c 1,55,56
 109 -8 109 -8 119.5 16.5 c 128,-1,57
 130 41 130 41 146 70 c 1,58,-1
 180 70 l 1,59,-1
 239 -14 l 1,60,61
 250 -22 250 -22 261 -23.5 c 128,-1,62
 272 -25 272 -25 284 -25 c 0,63,64
 316 -25 316 -25 341 -8 c 128,-1,65
 366 9 366 9 366 39 c 0,0,1
406 301 m 256,66,67
 406 323 406 323 394.5 340 c 128,-1,68
 383 357 383 357 364.5 370 c 128,-1,69
 346 383 346 383 321.5 393.5 c 128,-1,70
 297 404 297 404 271 415 c 1,71,72
 249 399 249 399 232.5 376 c 128,-1,73
 216 353 216 353 216 328 c 0,74,75
 216 306 216 306 228 289.5 c 128,-1,76
 240 273 240 273 259.5 260 c 128,-1,77
 279 247 279 247 304 236.5 c 128,-1,78
 329 226 329 226 356 215 c 1,79,80
 376 232 376 232 391 255.5 c 128,-1,81
 406 279 406 279 406 301 c 256,66,67
EndSplineSet
EndChar

StartChar: dieresis
Encoding: 168 168 106
Width: 520
Flags: W
LayerCount: 2
Fore
SplineSet
175 659 m 0,0,1
 175 691 175 691 195 710 c 128,-1,2
 215 729 215 729 248 729 c 0,3,4
 280 729 280 729 300.5 710 c 128,-1,5
 321 691 321 691 321 659 c 0,6,7
 321 629 321 629 300.5 610 c 128,-1,8
 280 591 280 591 248 591 c 0,9,10
 215 591 215 591 195 610 c 128,-1,11
 175 629 175 629 175 659 c 0,0,1
394 659 m 0,12,13
 394 691 394 691 414 710 c 128,-1,14
 434 729 434 729 466 729 c 0,15,16
 499 729 499 729 519.5 710 c 128,-1,17
 540 691 540 691 540 659 c 0,18,19
 540 629 540 629 519.5 610 c 128,-1,20
 499 591 499 591 466 591 c 0,21,22
 434 591 434 591 414 610 c 128,-1,23
 394 629 394 629 394 659 c 0,12,13
EndSplineSet
EndChar

StartChar: copyright
Encoding: 169 169 107
Width: 813
Flags: W
LayerCount: 2
Fore
SplineSet
65 290 m 256,0,1
 65 373 65 373 94.5 438.5 c 128,-1,2
 124 504 124 504 173.5 549 c 128,-1,3
 223 594 223 594 286.5 618 c 128,-1,4
 350 642 350 642 419 642 c 256,5,6
 488 642 488 642 551.5 618 c 128,-1,7
 615 594 615 594 664.5 549 c 128,-1,8
 714 504 714 504 743.5 438.5 c 128,-1,9
 773 373 773 373 773 290 c 256,10,11
 773 207 773 207 743.5 141.5 c 128,-1,12
 714 76 714 76 664.5 31 c 128,-1,13
 615 -14 615 -14 551.5 -38 c 128,-1,14
 488 -62 488 -62 419 -62 c 0,15,16
 347 -62 347 -62 282.5 -38 c 128,-1,17
 218 -14 218 -14 169.5 31 c 128,-1,18
 121 76 121 76 93 141.5 c 128,-1,19
 65 207 65 207 65 290 c 256,0,1
132 290 m 256,20,21
 132 223 132 223 155 169 c 128,-1,22
 178 115 178 115 217 77 c 128,-1,23
 256 39 256 39 308 18.5 c 128,-1,24
 360 -2 360 -2 419 -2 c 0,25,26
 480 -2 480 -2 532.5 18.5 c 128,-1,27
 585 39 585 39 623.5 77 c 128,-1,28
 662 115 662 115 684 169 c 128,-1,29
 706 223 706 223 706 290 c 0,30,31
 706 359 706 359 682 413 c 128,-1,32
 658 467 658 467 618.5 504.5 c 128,-1,33
 579 542 579 542 527 562 c 128,-1,34
 475 582 475 582 419 582 c 0,35,36
 356 582 356 582 303.5 561.5 c 128,-1,37
 251 541 251 541 213 503 c 128,-1,38
 175 465 175 465 153.5 411 c 128,-1,39
 132 357 132 357 132 290 c 256,20,21
525 220 m 1,40,-1
 559 220 l 1,41,42
 561 212 561 212 563.5 199.5 c 128,-1,43
 566 187 566 187 567.5 172 c 128,-1,44
 569 157 569 157 569.5 142 c 128,-1,45
 570 127 570 127 569 115 c 1,46,47
 552 101 552 101 516 91.5 c 128,-1,48
 480 82 480 82 440 82 c 0,49,50
 391 82 391 82 350.5 95.5 c 128,-1,51
 310 109 310 109 280.5 135.5 c 128,-1,52
 251 162 251 162 234.5 201 c 128,-1,53
 218 240 218 240 218 291 c 0,54,55
 218 343 218 343 236.5 382 c 128,-1,56
 255 421 255 421 284.5 447 c 128,-1,57
 314 473 314 473 351.5 486.5 c 128,-1,58
 389 500 389 500 427 500 c 0,59,60
 475 500 475 500 510 491.5 c 128,-1,61
 545 483 545 483 566 470 c 1,62,63
 567 461 567 461 566 446 c 128,-1,64
 565 431 565 431 563 414.5 c 128,-1,65
 561 398 561 398 558.5 382 c 128,-1,66
 556 366 556 366 553 356 c 1,67,-1
 519 356 l 1,68,-1
 489 439 l 1,69,70
 482 444 482 444 470 444.5 c 128,-1,71
 458 445 458 445 445 445 c 0,72,73
 400 445 400 445 376.5 407 c 128,-1,74
 353 369 353 369 353 291 c 0,75,76
 353 258 353 258 358.5 229.5 c 128,-1,77
 364 201 364 201 376 180.5 c 128,-1,78
 388 160 388 160 407 148.5 c 128,-1,79
 426 137 426 137 453 137 c 0,80,81
 469 137 469 137 481 139.5 c 128,-1,82
 493 142 493 142 497 146 c 1,83,-1
 525 220 l 1,40,-1
EndSplineSet
EndChar

StartChar: ordfeminine
Encoding: 170 170 108
Width: 460
Flags: W
LayerCount: 2
Fore
SplineSet
269 475 m 1,0,1
 262 461 262 461 249 444 c 128,-1,2
 236 427 236 427 218.5 412.5 c 128,-1,3
 201 398 201 398 178.5 388 c 128,-1,4
 156 378 156 378 129 378 c 0,5,6
 78 378 78 378 52 408 c 128,-1,7
 26 438 26 438 26 489 c 256,8,9
 26 540 26 540 44 581 c 128,-1,10
 62 622 62 622 92 651 c 128,-1,11
 122 680 122 680 160.5 695.5 c 128,-1,12
 199 711 199 711 240 711 c 0,13,14
 264 711 264 711 287.5 705 c 128,-1,15
 311 699 311 699 328 688 c 1,16,-1
 415 710 l 1,17,-1
 433 700 l 1,18,-1
 380 445 l 1,19,-1
 430 435 l 1,20,-1
 429 407 l 1,21,22
 409 395 409 395 372 386.5 c 128,-1,23
 335 378 335 378 303 378 c 0,24,25
 280 378 280 378 271 389.5 c 128,-1,26
 262 401 262 401 264 418 c 2,27,-1
 273 475 l 1,28,-1
 269 475 l 1,0,1
187 446 m 0,29,30
 199 446 199 446 213.5 454.5 c 128,-1,31
 228 463 228 463 241 476 c 128,-1,32
 254 489 254 489 265.5 504.5 c 128,-1,33
 277 520 277 520 283 533 c 1,34,-1
 304 635 l 1,35,36
 290 641 290 641 278.5 646 c 128,-1,37
 267 651 267 651 252 651 c 0,38,39
 232 651 232 651 213.5 641 c 128,-1,40
 195 631 195 631 180 612.5 c 128,-1,41
 165 594 165 594 156 566 c 128,-1,42
 147 538 147 538 147 502 c 0,43,44
 147 476 147 476 157 461 c 128,-1,45
 167 446 167 446 187 446 c 0,29,30
EndSplineSet
EndChar

StartChar: guillemotleft
Encoding: 171 171 109
Width: 500
Flags: W
LayerCount: 2
Fore
SplineSet
254 259 m 1,0,-1
 479 481 l 1,1,-1
 514 445 l 1,2,-1
 364 256 l 1,3,-1
 442 77 l 1,4,-1
 392 41 l 1,5,-1
 254 259 l 1,0,-1
38 259 m 1,6,-1
 325 482 l 1,7,-1
 356 446 l 1,8,-1
 168 255 l 1,9,-1
 284 76 l 1,10,-1
 237 39 l 1,11,-1
 38 259 l 1,6,-1
EndSplineSet
Position2: "'case' Case-Sensitive Forms lookup 1 per glyph data 3" dx=0 dy=100 dh=0 dv=0
EndChar

StartChar: logicalnot
Encoding: 172 172 110
Width: 560
Flags: W
LayerCount: 2
Fore
SplineSet
61 401 m 1,0,-1
 495 401 l 1,1,-1
 495 185 l 1,2,-1
 415 185 l 1,3,-1
 415 311 l 1,4,-1
 61 311 l 1,5,-1
 61 401 l 1,0,-1
EndSplineSet
EndChar

StartChar: registered
Encoding: 174 174 112
Width: 700
Flags: W
LayerCount: 2
Fore
SplineSet
115 451 m 256,0,1
 115 517 115 517 138 569 c 128,-1,2
 161 621 161 621 200 657 c 128,-1,3
 239 693 239 693 290 712 c 128,-1,4
 341 731 341 731 397 731 c 0,5,6
 454 731 454 731 505.5 712 c 128,-1,7
 557 693 557 693 595.5 657 c 128,-1,8
 634 621 634 621 656.5 569 c 128,-1,9
 679 517 679 517 679 451 c 256,10,11
 679 385 679 385 656 333 c 128,-1,12
 633 281 633 281 594 245 c 128,-1,13
 555 209 555 209 504 190 c 128,-1,14
 453 171 453 171 397 171 c 0,15,16
 340 171 340 171 288.5 190 c 128,-1,17
 237 209 237 209 198.5 245 c 128,-1,18
 160 281 160 281 137.5 333 c 128,-1,19
 115 385 115 385 115 451 c 256,0,1
177 451 m 256,20,21
 177 399 177 399 194.5 357.5 c 128,-1,22
 212 316 212 316 242 286.5 c 128,-1,23
 272 257 272 257 312 241.5 c 128,-1,24
 352 226 352 226 397 226 c 0,25,26
 444 226 444 226 484.5 241.5 c 128,-1,27
 525 257 525 257 554.5 286 c 128,-1,28
 584 315 584 315 600.5 356.5 c 128,-1,29
 617 398 617 398 617 451 c 0,30,31
 617 503 617 503 599.5 544.5 c 128,-1,32
 582 586 582 586 552 615 c 128,-1,33
 522 644 522 644 482 660 c 128,-1,34
 442 676 442 676 397 676 c 0,35,36
 349 676 349 676 309 660 c 128,-1,37
 269 644 269 644 239.5 615 c 128,-1,38
 210 586 210 586 193.5 544.5 c 128,-1,39
 177 503 177 503 177 451 c 256,20,21
366 351 m 1,40,41
 379 350 379 350 386 347.5 c 128,-1,42
 393 345 393 345 400 342 c 1,43,-1
 400 309 l 1,44,-1
 262 309 l 1,45,-1
 262 342 l 1,46,47
 279 348 279 348 297 351 c 1,48,-1
 297 566 l 1,49,50
 286 567 286 567 278 569.5 c 128,-1,51
 270 572 270 572 262 577 c 1,52,-1
 262 608 l 1,53,-1
 314 608 l 2,54,55
 332 608 332 608 357 610 c 128,-1,56
 382 612 382 612 398 612 c 0,57,58
 452 612 452 612 486 592.5 c 128,-1,59
 520 573 520 573 520 528 c 0,60,61
 520 497 520 497 501 477.5 c 128,-1,62
 482 458 482 458 454 449 c 1,63,64
 463 434 463 434 470.5 422 c 128,-1,65
 478 410 478 410 486 398.5 c 128,-1,66
 494 387 494 387 504.5 375.5 c 128,-1,67
 515 364 515 364 529 351 c 1,68,-1
 552 339 l 1,69,-1
 552 309 l 1,70,-1
 488 309 l 1,71,-1
 460 320 l 1,72,73
 435 350 435 350 422.5 380 c 128,-1,74
 410 410 410 410 399 439 c 1,75,-1
 366 439 l 1,76,-1
 366 351 l 1,40,41
393 571 m 0,77,78
 382 571 382 571 377 570.5 c 128,-1,79
 372 570 372 570 366 568 c 1,80,-1
 366 477 l 1,81,-1
 395 477 l 2,82,83
 419 477 419 477 432 489 c 128,-1,84
 445 501 445 501 444 528 c 0,85,86
 443 551 443 551 429.5 561 c 128,-1,87
 416 571 416 571 393 571 c 0,77,78
EndSplineSet
EndChar

StartChar: macron
Encoding: 175 175 113
Width: 491
Flags: W
LayerCount: 2
Fore
SplineSet
194 619 m 1,0,-1
 209 689 l 1,1,-1
 503 689 l 1,2,-1
 488 619 l 1,3,-1
 194 619 l 1,0,-1
EndSplineSet
EndChar

StartChar: degree
Encoding: 176 176 114
Width: 408
Flags: W
LayerCount: 2
Fore
SplineSet
122 571 m 0,0,1
 122 602 122 602 133.5 628 c 128,-1,2
 145 654 145 654 164.5 672.5 c 128,-1,3
 184 691 184 691 210.5 701.5 c 128,-1,4
 237 712 237 712 266 712 c 256,5,6
 295 712 295 712 321.5 703 c 128,-1,7
 348 694 348 694 367.5 676.5 c 128,-1,8
 387 659 387 659 398.5 632.5 c 128,-1,9
 410 606 410 606 410 571 c 0,10,11
 410 538 410 538 398.5 512 c 128,-1,12
 387 486 387 486 367.5 467.5 c 128,-1,13
 348 449 348 449 321.5 439.5 c 128,-1,14
 295 430 295 430 266 430 c 256,15,16
 237 430 237 430 210.5 439.5 c 128,-1,17
 184 449 184 449 164.5 467.5 c 128,-1,18
 145 486 145 486 133.5 512 c 128,-1,19
 122 538 122 538 122 571 c 0,0,1
191 571 m 256,20,21
 191 533 191 533 213.5 511.5 c 128,-1,22
 236 490 236 490 266 490 c 0,23,24
 298 490 298 490 319.5 510 c 128,-1,25
 341 530 341 530 341 571 c 0,26,27
 341 610 341 610 319.5 631 c 128,-1,28
 298 652 298 652 266 652 c 0,29,30
 233 652 233 652 212 630.5 c 128,-1,31
 191 609 191 609 191 571 c 256,20,21
EndSplineSet
EndChar

StartChar: plusminus
Encoding: 177 177 115
Width: 560
Flags: W
LayerCount: 2
Fore
SplineSet
65 504 m 1,0,-1
 250 504 l 1,1,-1
 250 700 l 1,2,-1
 330 700 l 1,3,-1
 330 504 l 1,4,-1
 515 504 l 1,5,-1
 515 424 l 1,6,-1
 330 424 l 1,7,-1
 330 292 l 1,8,-1
 250 292 l 1,9,-1
 250 424 l 1,10,-1
 65 424 l 1,11,-1
 65 504 l 1,0,-1
65 244 m 1,12,-1
 515 244 l 1,13,-1
 515 164 l 1,14,-1
 65 164 l 1,15,-1
 65 244 l 1,12,-1
EndSplineSet
EndChar

StartChar: acute
Encoding: 180 180 118
Width: 532
Flags: W
LayerCount: 2
Fore
SplineSet
357 763 m 1,0,1
 365 765 365 765 383.5 764.5 c 128,-1,2
 402 764 402 764 422 761 c 128,-1,3
 442 758 442 758 458.5 752.5 c 128,-1,4
 475 747 475 747 480 741 c 1,5,-1
 480 717 l 1,6,-1
 279 562 l 1,7,-1
 239 584 l 1,8,-1
 357 763 l 1,0,1
EndSplineSet
EndChar

StartChar: mu
Encoding: 181 181 119
AltUni2: 0003bc.ffffffff.0
Width: 622
Flags: W
LayerCount: 2
Fore
SplineSet
163 13 m 1,0,-1
 180 -161 l 1,1,-1
 172 -200 l 1,2,3
 134 -208 134 -208 102.5 -208 c 128,-1,4
 71 -208 71 -208 44 -200 c 1,5,-1
 177 429 l 1,6,-1
 118 437 l 1,7,-1
 124 476 l 1,8,9
 141 482 141 482 165.5 488 c 128,-1,10
 190 494 190 494 216 499 c 128,-1,11
 242 504 242 504 266 507.5 c 128,-1,12
 290 511 290 511 306 512 c 1,13,-1
 339 506 l 1,14,15
 331 469 331 469 323.5 435.5 c 128,-1,16
 316 402 316 402 308 368 c 128,-1,17
 300 334 300 334 292 298.5 c 128,-1,18
 284 263 284 263 275 222 c 0,19,20
 258 140 258 140 261.5 104 c 128,-1,21
 265 68 265 68 297 68 c 0,22,23
 328 68 328 68 368.5 108 c 128,-1,24
 409 148 409 148 442 223 c 1,25,-1
 489 457 l 1,26,-1
 640 506 l 1,27,-1
 554 70 l 1,28,-1
 623 66 l 1,29,-1
 617 28 l 1,30,31
 594 16 594 16 558.5 4 c 128,-1,32
 523 -8 523 -8 491 -10 c 0,33,34
 481 -11 481 -11 472.5 -10.5 c 128,-1,35
 464 -10 464 -10 456 -8 c 1,36,-1
 407 11 l 1,37,-1
 431 154 l 1,38,-1
 427 154 l 1,39,40
 392 78 392 78 340.5 33 c 128,-1,41
 289 -12 289 -12 228 -12 c 0,42,43
 208 -12 208 -12 193.5 -5 c 128,-1,44
 179 2 179 2 168 13 c 1,45,-1
 163 13 l 1,0,-1
EndSplineSet
EndChar

StartChar: paragraph
Encoding: 182 182 120
Width: 547
Flags: W
LayerCount: 2
Fore
SplineSet
452 94 m 2,0,1
 452 27 452 27 442 -16.5 c 128,-1,2
 432 -60 432 -60 412.5 -86.5 c 128,-1,3
 393 -113 393 -113 364.5 -126.5 c 128,-1,4
 336 -140 336 -140 299 -148 c 1,5,6
 279 -177 279 -177 249.5 -191.5 c 128,-1,7
 220 -206 220 -206 189 -212 c 1,8,-1
 173 -179 l 1,9,10
 195 -170 195 -170 214.5 -156.5 c 128,-1,11
 234 -143 234 -143 248 -120.5 c 128,-1,12
 262 -98 262 -98 270.5 -63 c 128,-1,13
 279 -28 279 -28 279 24 c 2,14,-1
 279 310 l 1,15,16
 247 310 247 310 215.5 320 c 128,-1,17
 184 330 184 330 158.5 352.5 c 128,-1,18
 133 375 133 375 117 411.5 c 128,-1,19
 101 448 101 448 101 500 c 0,20,21
 101 542 101 542 113.5 578.5 c 128,-1,22
 126 615 126 615 150.5 642 c 128,-1,23
 175 669 175 669 213 684.5 c 128,-1,24
 251 700 251 700 302 700 c 2,25,-1
 528 700 l 1,26,-1
 528 657 l 1,27,28
 511 649 511 649 493 643 c 128,-1,29
 475 637 475 637 452 633 c 1,30,-1
 452 94 l 2,0,1
319 -111 m 1,31,32
 360 -98 360 -98 374 -46.5 c 128,-1,33
 388 5 388 5 388 94 c 2,34,-1
 388 638 l 1,35,-1
 344 638 l 1,36,-1
 344 24 l 2,37,38
 344 -16 344 -16 338.5 -50.5 c 128,-1,39
 333 -85 333 -85 319 -111 c 1,31,32
EndSplineSet
EndChar

StartChar: cedilla
Encoding: 184 184 122
Width: 415
Flags: W
LayerCount: 2
Fore
SplineSet
155 -68 m 1,0,1
 209 -71 209 -71 230.5 -88.5 c 128,-1,2
 252 -106 252 -106 253 -139 c 0,3,4
 253 -170 253 -170 233 -192 c 128,-1,5
 213 -214 213 -214 181.5 -228.5 c 128,-1,6
 150 -243 150 -243 112 -250 c 128,-1,7
 74 -257 74 -257 38 -257 c 1,8,-1
 38 -218 l 1,9,10
 55 -215 55 -215 71.5 -210 c 128,-1,11
 88 -205 88 -205 100.5 -197.5 c 128,-1,12
 113 -190 113 -190 120.5 -180 c 128,-1,13
 128 -170 128 -170 128 -157 c 0,14,15
 127 -140 127 -140 117 -128.5 c 128,-1,16
 107 -117 107 -117 75 -114 c 1,17,-1
 136 1 l 1,18,-1
 198 1 l 1,19,-1
 155 -68 l 1,0,1
EndSplineSet
EndChar

StartChar: ordmasculine
Encoding: 186 186 124
Width: 446
Flags: W
LayerCount: 2
Fore
SplineSet
26 504 m 0,0,1
 26 547 26 547 44 585 c 128,-1,2
 62 623 62 623 93.5 651.5 c 128,-1,3
 125 680 125 680 167.5 696 c 128,-1,4
 210 712 210 712 259 712 c 0,5,6
 335 712 335 712 377.5 676.5 c 128,-1,7
 420 641 420 641 420 581 c 0,8,9
 420 531 420 531 400 492.5 c 128,-1,10
 380 454 380 454 347 427 c 128,-1,11
 314 400 314 400 272 386 c 128,-1,12
 230 372 230 372 187 372 c 0,13,14
 154 372 154 372 124.5 381 c 128,-1,15
 95 390 95 390 73 407.5 c 128,-1,16
 51 425 51 425 38.5 449.5 c 128,-1,17
 26 474 26 474 26 504 c 0,0,1
145 492 m 0,18,19
 145 465 145 465 157.5 444 c 128,-1,20
 170 423 170 423 200 423 c 0,21,22
 218 423 218 423 236 434 c 128,-1,23
 254 445 254 445 269 466.5 c 128,-1,24
 284 488 284 488 293 521 c 128,-1,25
 302 554 302 554 302 599 c 0,26,27
 302 622 302 622 290.5 641.5 c 128,-1,28
 279 661 279 661 248 661 c 0,29,30
 230 661 230 661 211.5 649 c 128,-1,31
 193 637 193 637 178.5 614.5 c 128,-1,32
 164 592 164 592 154.5 561 c 128,-1,33
 145 530 145 530 145 492 c 0,18,19
EndSplineSet
EndChar

StartChar: guillemotright
Encoding: 187 187 125
Width: 500
Flags: W
LayerCount: 2
Fore
SplineSet
286 262 m 1,0,-1
 61 40 l 1,1,-1
 26 76 l 1,2,-1
 176 265 l 1,3,-1
 98 444 l 1,4,-1
 148 480 l 1,5,-1
 286 262 l 1,0,-1
502 262 m 1,6,-1
 215 39 l 1,7,-1
 184 75 l 1,8,-1
 372 266 l 1,9,-1
 256 445 l 1,10,-1
 303 482 l 1,11,-1
 502 262 l 1,6,-1
EndSplineSet
Position2: "'case' Case-Sensitive Forms lookup 1 per glyph data 3" dx=0 dy=100 dh=0 dv=0
EndChar

StartChar: questiondown
Encoding: 191 191 129
Width: 486
Flags: W
LayerCount: 2
Fore
SplineSet
318 3 m 1,0,-1
 352 3 l 1,1,2
 357 -17 357 -17 364.5 -49.5 c 128,-1,3
 372 -82 372 -82 374 -115 c 0,4,5
 375 -126 375 -126 374.5 -136.5 c 128,-1,6
 374 -147 374 -147 373 -157 c 1,7,8
 331 -180 331 -180 281 -194 c 128,-1,9
 231 -208 231 -208 166 -208 c 0,10,11
 77 -208 77 -208 26.5 -172 c 128,-1,12
 -24 -136 -24 -136 -24 -70 c 0,13,14
 -24 -21 -24 -21 -3.5 14 c 128,-1,15
 17 49 17 49 48.5 75.5 c 128,-1,16
 80 102 80 102 117.5 124.5 c 128,-1,17
 155 147 155 147 188.5 172 c 128,-1,18
 222 197 222 197 247.5 227.5 c 128,-1,19
 273 258 273 258 280 301 c 1,20,-1
 313 301 l 1,21,22
 318 253 318 253 306 216 c 128,-1,23
 294 179 294 179 273 149 c 128,-1,24
 252 119 252 119 225.5 94 c 128,-1,25
 199 69 199 69 176 44 c 128,-1,26
 153 19 153 19 137.5 -7.5 c 128,-1,27
 122 -34 122 -34 122 -66 c 0,28,29
 122 -106 122 -106 143.5 -124.5 c 128,-1,30
 165 -143 165 -143 200 -143 c 0,31,32
 248 -143 248 -143 267 -129 c 1,33,-1
 318 3 l 1,0,-1
217 432 m 256,34,35
 217 468 217 468 240 490 c 128,-1,36
 263 512 263 512 301 512 c 256,37,38
 339 512 339 512 363 490 c 128,-1,39
 387 468 387 468 387 432 c 256,40,41
 387 396 387 396 363 374.5 c 128,-1,42
 339 353 339 353 301 353 c 256,43,44
 263 353 263 353 240 374.5 c 128,-1,45
 217 396 217 396 217 432 c 256,34,35
EndSplineSet
Position2: "'case' Case-Sensitive Forms lookup 1 per glyph data 3" dx=0 dy=100 dh=0 dv=0
EndChar

StartChar: Aring
Encoding: 197 197 135
Width: 724
Flags: W
LayerCount: 2
Fore
SplineSet
356 777 m 0,0,1
 356 798 356 798 367 816.5 c 128,-1,2
 378 835 378 835 398 848.5 c 128,-1,3
 418 862 418 862 446.5 870 c 128,-1,4
 475 878 475 878 510 878 c 0,5,6
 558 878 558 878 587 861 c 128,-1,7
 616 844 616 844 616 806 c 256,8,9
 616 768 616 768 585.5 742 c 128,-1,10
 555 716 555 716 510 709 c 1,11,-1
 623 67 l 1,12,13
 642 63 642 63 660.5 55 c 128,-1,14
 679 47 679 47 692 38 c 1,15,-1
 684 0 l 1,16,-1
 376 0 l 1,17,-1
 383 38 l 1,18,19
 404 48 404 48 427.5 55.5 c 128,-1,20
 451 63 451 63 472 67 c 1,21,-1
 448 226 l 1,22,-1
 227 226 l 1,23,-1
 132 67 l 1,24,25
 153 64 153 64 174 56.5 c 128,-1,26
 195 49 195 49 212 38 c 1,27,-1
 205 0 l 1,28,-1
 -44 0 l 1,29,-1
 -37 38 l 1,30,31
 -19 48 -19 48 1 55.5 c 128,-1,32
 21 63 21 63 41 67 c 1,33,-1
 434 706 l 1,34,35
 356 715 356 715 356 777 c 0,0,1
261 291 m 1,36,-1
 440 291 l 1,37,-1
 412 482 l 1,38,-1
 412 568 l 1,39,-1
 410 568 l 1,40,-1
 372 480 l 1,41,-1
 261 291 l 1,36,-1
439 785 m 0,42,43
 439 769 439 769 451.5 761.5 c 128,-1,44
 464 754 464 754 479 754 c 0,45,46
 503 754 503 754 518 765 c 128,-1,47
 533 776 533 776 533 792 c 0,48,49
 533 812 533 812 522 820 c 128,-1,50
 511 828 511 828 492 828 c 0,51,52
 469 828 469 828 454 816.5 c 128,-1,53
 439 805 439 805 439 785 c 0,42,43
EndSplineSet
Position2: "'cpsp' Capital Spacing lookup 0 subtable" dx=40 dy=0 dh=80 dv=0
EndChar

StartChar: AE
Encoding: 198 198 136
Width: 953
Flags: W
LayerCount: 2
Fore
SplineSet
1001 700 m 1,0,1
 991 655 991 655 975.5 607 c 128,-1,2
 960 559 960 559 943 517 c 1,3,-1
 901 517 l 1,4,-1
 880 635 l 1,5,-1
 693 635 l 1,6,-1
 641 390 l 1,7,-1
 764 390 l 1,8,-1
 824 467 l 1,9,-1
 855 467 l 1,10,11
 853 443 853 443 848.5 414.5 c 128,-1,12
 844 386 844 386 838 357 c 128,-1,13
 832 328 832 328 824.5 299.5 c 128,-1,14
 817 271 817 271 809 246 c 1,15,-1
 777 246 l 1,16,-1
 750 325 l 1,17,-1
 627 325 l 1,18,-1
 572 65 l 1,19,-1
 767 65 l 1,20,-1
 847 192 l 1,21,-1
 889 192 l 1,22,23
 889 173 889 173 887.5 149 c 128,-1,24
 886 125 886 125 883.5 99.5 c 128,-1,25
 881 74 881 74 877 48 c 128,-1,26
 873 22 873 22 868 0 c 1,27,-1
 332 0 l 1,28,-1
 339 38 l 1,29,30
 357 46 357 46 378.5 54 c 128,-1,31
 400 62 400 62 423 67 c 1,32,-1
 461 244 l 1,33,-1
 279 244 l 1,34,-1
 141 67 l 1,35,36
 179 58 179 58 211 38 c 1,37,-1
 204 0 l 1,38,-1
 -44 0 l 1,39,-1
 -37 38 l 1,40,41
 -19 48 -19 48 1 55.5 c 128,-1,42
 21 63 21 63 40 67 c 1,43,-1
 508 638 l 1,44,45
 494 643 494 643 480 648.5 c 128,-1,46
 466 654 466 654 455 662 c 1,47,-1
 463 700 l 1,48,-1
 1001 700 l 1,0,1
329 309 m 1,49,-1
 476 309 l 1,50,-1
 540 594 l 1,51,-1
 538 594 l 1,52,-1
 484 504 l 1,53,-1
 329 309 l 1,49,-1
EndSplineSet
Position2: "'cpsp' Capital Spacing lookup 0 subtable" dx=40 dy=0 dh=80 dv=0
EndChar

StartChar: Ccedilla
Encoding: 199 199 137
Width: 652
Flags: W
LayerCount: 2
Fore
SplineSet
561 210 m 1,0,-1
 603 210 l 1,1,2
 603 194 603 194 602 171.5 c 128,-1,3
 601 149 601 149 598 123.5 c 128,-1,4
 595 98 595 98 591 73 c 128,-1,5
 587 48 587 48 582 28 c 1,6,7
 563 18 563 18 540 10.5 c 128,-1,8
 517 3 517 3 493 -1.5 c 128,-1,9
 469 -6 469 -6 446 -8.5 c 128,-1,10
 423 -11 423 -11 403 -12 c 1,11,-1
 371 -67 l 1,12,13
 426 -69 426 -69 451 -88 c 128,-1,14
 476 -107 476 -107 476 -142 c 0,15,16
 476 -180 476 -180 450.5 -205 c 128,-1,17
 425 -230 425 -230 389 -245 c 128,-1,18
 353 -260 353 -260 313 -266 c 128,-1,19
 273 -272 273 -272 244 -272 c 1,20,-1
 244 -226 l 1,21,22
 262 -224 262 -224 279.5 -220 c 128,-1,23
 297 -216 297 -216 311.5 -209 c 128,-1,24
 326 -202 326 -202 334.5 -190.5 c 128,-1,25
 343 -179 343 -179 343 -162 c 0,26,27
 342 -144 342 -144 332 -133 c 128,-1,28
 322 -122 322 -122 287 -120 c 1,29,-1
 341 -10 l 1,30,31
 264 -3 264 -3 210.5 23.5 c 128,-1,32
 157 50 157 50 123 89 c 128,-1,33
 89 128 89 128 74 175 c 128,-1,34
 59 222 59 222 59 269 c 0,35,36
 59 368 59 368 88 449.5 c 128,-1,37
 117 531 117 531 172.5 589.5 c 128,-1,38
 228 648 228 648 308.5 680 c 128,-1,39
 389 712 389 712 491 712 c 0,40,41
 557 712 557 712 609.5 702.5 c 128,-1,42
 662 693 662 693 695 677 c 1,43,44
 692 661 692 661 685 636 c 128,-1,45
 678 611 678 611 669 583.5 c 128,-1,46
 660 556 660 556 650 529.5 c 128,-1,47
 640 503 640 503 631 485 c 1,48,-1
 589 485 l 1,49,-1
 566 636 l 1,50,51
 557 641 557 641 536 644 c 128,-1,52
 515 647 515 647 494 647 c 0,53,54
 436 647 436 647 387.5 619 c 128,-1,55
 339 591 339 591 303.5 540 c 128,-1,56
 268 489 268 489 248.5 416.5 c 128,-1,57
 229 344 229 344 229 255 c 0,58,59
 229 199 229 199 245 160.5 c 128,-1,60
 261 122 261 122 286.5 98 c 128,-1,61
 312 74 312 74 342.5 63.5 c 128,-1,62
 373 53 373 53 402 53 c 256,63,64
 431 53 431 53 452 58.5 c 128,-1,65
 473 64 473 64 483 70 c 1,66,-1
 561 210 l 1,0,-1
EndSplineSet
Position2: "'cpsp' Capital Spacing lookup 0 subtable" dx=40 dy=0 dh=80 dv=0
EndChar

StartChar: Eth
Encoding: 208 208 146
Width: 734
Flags: W
LayerCount: 2
Fore
SplineSet
-24 0 m 1,0,-1
 -17 38 l 1,1,2
 2 48 2 48 25 55.5 c 128,-1,3
 48 63 48 63 72 67 c 1,4,-1
 127 329 l 1,5,-1
 40 329 l 1,6,-1
 53 389 l 1,7,-1
 140 389 l 1,8,-1
 192 633 l 1,9,10
 169 638 169 638 149.5 645.5 c 128,-1,11
 130 653 130 653 116 662 c 1,12,-1
 124 700 l 1,13,-1
 240 700 l 2,14,15
 257 700 257 700 282.5 701 c 128,-1,16
 308 702 308 702 335.5 703.5 c 128,-1,17
 363 705 363 705 388.5 706.5 c 128,-1,18
 414 708 414 708 432 708 c 0,19,20
 516 708 516 708 574.5 690 c 128,-1,21
 633 672 633 672 669.5 639 c 128,-1,22
 706 606 706 606 722.5 560.5 c 128,-1,23
 739 515 739 515 739 460 c 0,24,25
 739 403 739 403 729 346.5 c 128,-1,26
 719 290 719 290 696 238 c 128,-1,27
 673 186 673 186 637 141 c 128,-1,28
 601 96 601 96 548.5 62.5 c 128,-1,29
 496 29 496 29 427 10 c 128,-1,30
 358 -9 358 -9 269 -9 c 0,31,32
 256 -9 256 -9 233.5 -7.5 c 128,-1,33
 211 -6 211 -6 185 -4.5 c 128,-1,34
 159 -3 159 -3 133.5 -1.5 c 128,-1,35
 108 0 108 0 89 0 c 2,36,-1
 -24 0 l 1,0,-1
409 643 m 0,37,38
 391 643 391 643 371 642 c 128,-1,39
 351 641 351 641 337 639 c 1,40,-1
 283 389 l 1,41,-1
 435 389 l 1,42,-1
 422 329 l 1,43,-1
 271 329 l 1,44,-1
 214 60 l 1,45,46
 229 58 229 58 252 57 c 128,-1,47
 275 56 275 56 286 56 c 0,48,49
 367 56 367 56 422 94.5 c 128,-1,50
 477 133 477 133 511 193.5 c 128,-1,51
 545 254 545 254 559.5 328 c 128,-1,52
 574 402 574 402 574 473 c 0,53,54
 574 514 574 514 566 546 c 128,-1,55
 558 578 558 578 539 599.5 c 128,-1,56
 520 621 520 621 488 632 c 128,-1,57
 456 643 456 643 409 643 c 0,37,38
EndSplineSet
Position2: "'cpsp' Capital Spacing lookup 0 subtable" dx=40 dy=0 dh=80 dv=0
EndChar

StartChar: multiply
Encoding: 215 215 153
Width: 560
Flags: W
LayerCount: 2
Fore
SplineSet
101 213 m 1,0,-1
 232 344 l 1,1,-1
 103 473 l 1,2,-1
 160 529 l 1,3,-1
 289 401 l 1,4,-1
 419 531 l 1,5,-1
 476 475 l 1,6,-1
 345 344 l 1,7,-1
 478 211 l 1,8,-1
 421 154 l 1,9,-1
 288 287 l 1,10,-1
 158 157 l 1,11,-1
 101 213 l 1,0,-1
EndSplineSet
EndChar

StartChar: Oslash
Encoding: 216 216 154
Width: 751
Flags: W
LayerCount: 2
Fore
SplineSet
59 271 m 0,0,1
 59 363 59 363 87.5 443.5 c 128,-1,2
 116 524 116 524 169.5 583.5 c 128,-1,3
 223 643 223 643 300.5 677.5 c 128,-1,4
 378 712 378 712 476 712 c 0,5,6
 524 712 524 712 564 702 c 128,-1,7
 604 692 604 692 636 673 c 1,8,-1
 674 718 l 1,9,-1
 724 677 l 1,10,-1
 687 633 l 1,11,12
 722 596 722 596 739 545 c 128,-1,13
 756 494 756 494 756 431 c 0,14,15
 756 349 756 349 731 269.5 c 128,-1,16
 706 190 706 190 655 127.5 c 128,-1,17
 604 65 604 65 527.5 26.5 c 128,-1,18
 451 -12 451 -12 348 -12 c 0,19,20
 297 -12 297 -12 255 0 c 128,-1,21
 213 12 213 12 180 33 c 1,22,-1
 136 -18 l 1,23,-1
 87 25 l 1,24,-1
 129 74 l 1,25,26
 94 112 94 112 76.5 162 c 128,-1,27
 59 212 59 212 59 271 c 0,0,1
368 53 m 0,28,29
 421 53 421 53 459 82.5 c 128,-1,30
 497 112 497 112 522.5 160 c 128,-1,31
 548 208 548 208 562 268 c 128,-1,32
 576 328 576 328 581 389 c 1,33,34
 584 446 584 446 573 498 c 1,35,-1
 258 126 l 1,36,37
 292 53 292 53 368 53 c 0,28,29
455 647 m 0,38,39
 402 647 402 647 362.5 616.5 c 128,-1,40
 323 586 323 586 295.5 537.5 c 128,-1,41
 268 489 268 489 253 429.5 c 128,-1,42
 238 370 238 370 234 312 c 0,43,44
 231 256 231 256 242 207 c 1,45,-1
 557 580 l 1,46,47
 543 612 543 612 518 629.5 c 128,-1,48
 493 647 493 647 455 647 c 0,38,39
EndSplineSet
Position2: "'cpsp' Capital Spacing lookup 0 subtable" dx=40 dy=0 dh=80 dv=0
EndChar

StartChar: Thorn
Encoding: 222 222 160
Width: 629
Flags: W
LayerCount: 2
Fore
SplineSet
221 63 m 1,0,1
 247 60 247 60 272.5 51.5 c 128,-1,2
 298 43 298 43 315 33 c 1,3,-1
 309 0 l 1,4,-1
 -24 0 l 1,5,-1
 -18 33 l 1,6,7
 26 54 26 54 71 62 c 1,8,-1
 193 638 l 1,9,10
 173 641 173 641 153 649 c 128,-1,11
 133 657 133 657 117 667 c 1,12,-1
 124 700 l 1,13,-1
 437 700 l 1,14,-1
 430 667 l 1,15,16
 410 656 410 656 386.5 648.5 c 128,-1,17
 363 641 363 641 343 638 c 1,18,-1
 334 593 l 1,19,20
 355 595 355 595 378.5 596.5 c 128,-1,21
 402 598 402 598 421 598 c 0,22,23
 530 598 530 598 591 558 c 128,-1,24
 652 518 652 518 652 434 c 0,25,26
 652 373 652 373 627.5 324.5 c 128,-1,27
 603 276 603 276 559.5 242 c 128,-1,28
 516 208 516 208 455.5 190 c 128,-1,29
 395 172 395 172 324 172 c 0,30,31
 319 172 319 172 308 172 c 128,-1,32
 297 172 297 172 284.5 172.5 c 128,-1,33
 272 173 272 173 261 173.5 c 128,-1,34
 250 174 250 174 245 175 c 1,35,-1
 221 63 l 1,0,1
375 533 m 0,36,37
 355 533 355 533 343 531.5 c 128,-1,38
 331 530 331 530 320 527 c 1,39,-1
 258 241 l 1,40,41
 267 238 267 238 285 237.5 c 128,-1,42
 303 237 303 237 314 237 c 0,43,44
 354 237 354 237 385.5 251 c 128,-1,45
 417 265 417 265 439.5 290.5 c 128,-1,46
 462 316 462 316 474 350.5 c 128,-1,47
 486 385 486 385 486 426 c 0,48,49
 486 478 486 478 461.5 505.5 c 128,-1,50
 437 533 437 533 375 533 c 0,36,37
EndSplineSet
Position2: "'cpsp' Capital Spacing lookup 0 subtable" dx=40 dy=0 dh=80 dv=0
EndChar

StartChar: germandbls
Encoding: 223 223 161
Width: 661
Flags: W
LayerCount: 2
Fore
SplineSet
300 376 m 0,0,1
 300 421 300 421 316.5 455 c 128,-1,2
 333 489 333 489 360 514 c 128,-1,3
 387 539 387 539 421.5 556 c 128,-1,4
 456 573 456 573 493 584 c 1,5,6
 504 635 504 635 481 665 c 128,-1,7
 458 695 458 695 410 695 c 0,8,9
 390 695 390 695 368 689 c 128,-1,10
 346 683 346 683 326.5 667.5 c 128,-1,11
 307 652 307 652 291.5 623.5 c 128,-1,12
 276 595 276 595 269 550 c 2,13,-1
 185 43 l 1,14,15
 175 -28 175 -28 144 -75 c 128,-1,16
 113 -122 113 -122 75.5 -150.5 c 128,-1,17
 38 -179 38 -179 0 -193 c 128,-1,18
 -38 -207 -38 -207 -62 -212 c 1,19,-1
 -73 -178 l 1,20,21
 -61 -172 -61 -172 -43 -158.5 c 128,-1,22
 -25 -145 -25 -145 -7 -121 c 128,-1,23
 11 -97 11 -97 26.5 -61.5 c 128,-1,24
 42 -26 42 -26 50 24 c 2,25,-1
 113 437 l 1,26,-1
 42 437 l 1,27,-1
 42 476 l 1,28,29
 62 487 62 487 84.5 495.5 c 128,-1,30
 107 504 107 504 127 509 c 1,31,-1
 134 544 l 2,32,33
 146 606 146 606 178.5 646.5 c 128,-1,34
 211 687 211 687 253 710.5 c 128,-1,35
 295 734 295 734 341.5 743 c 128,-1,36
 388 752 388 752 429 752 c 0,37,38
 526 752 526 752 575 717 c 128,-1,39
 624 682 624 682 629 622 c 0,40,41
 630 611 630 611 628.5 599.5 c 128,-1,42
 627 588 627 588 625 575 c 1,43,44
 594 570 594 570 561.5 559.5 c 128,-1,45
 529 549 529 549 502.5 530 c 128,-1,46
 476 511 476 511 459 484 c 128,-1,47
 442 457 442 457 442 419 c 0,48,49
 442 395 442 395 454.5 376.5 c 128,-1,50
 467 358 467 358 485 340.5 c 128,-1,51
 503 323 503 323 525 305 c 128,-1,52
 547 287 547 287 565 266 c 128,-1,53
 583 245 583 245 595.5 219 c 128,-1,54
 608 193 608 193 608 159 c 0,55,56
 608 121 608 121 591 89.5 c 128,-1,57
 574 58 574 58 544.5 35.5 c 128,-1,58
 515 13 515 13 474 0.5 c 128,-1,59
 433 -12 433 -12 385 -12 c 0,60,61
 334 -12 334 -12 299 -2.5 c 128,-1,62
 264 7 264 7 244 21 c 1,63,64
 244 52 244 52 256 80.5 c 128,-1,65
 268 109 268 109 292 126 c 1,66,-1
 378 45 l 1,67,68
 394 45 394 45 409.5 51.5 c 128,-1,69
 425 58 425 58 437 68.5 c 128,-1,70
 449 79 449 79 456 93.5 c 128,-1,71
 463 108 463 108 463 125 c 0,72,73
 463 150 463 150 451 169 c 128,-1,74
 439 188 439 188 421 205 c 128,-1,75
 403 222 403 222 381.5 238.5 c 128,-1,76
 360 255 360 255 342 274.5 c 128,-1,77
 324 294 324 294 312 318.5 c 128,-1,78
 300 343 300 343 300 376 c 0,0,1
EndSplineSet
EndChar

StartChar: eth
Encoding: 240 240 178
Width: 530
Flags: W
LayerCount: 2
Fore
SplineSet
240 614 m 1,0,-1
 334 654 l 1,1,2
 315 679 315 679 290.5 696 c 128,-1,3
 266 713 266 713 238 722 c 1,4,-1
 238 750 l 1,5,-1
 365 750 l 1,6,7
 382 744 382 744 401.5 730.5 c 128,-1,8
 421 717 421 717 441 696 c 1,9,-1
 536 736 l 1,10,-1
 559 683 l 1,11,-1
 476 647 l 1,12,13
 496 613 496 613 508 567.5 c 128,-1,14
 520 522 520 522 520 462 c 0,15,16
 520 362 520 362 496.5 275.5 c 128,-1,17
 473 189 473 189 430 125 c 128,-1,18
 387 61 387 61 326 24.5 c 128,-1,19
 265 -12 265 -12 191 -12 c 0,20,21
 154 -12 154 -12 122.5 0.5 c 128,-1,22
 91 13 91 13 68.5 36 c 128,-1,23
 46 59 46 59 33.5 93 c 128,-1,24
 21 127 21 127 21 171 c 0,25,26
 21 243 21 243 44.5 304.5 c 128,-1,27
 68 366 68 366 108 410.5 c 128,-1,28
 148 455 148 455 201 480.5 c 128,-1,29
 254 506 254 506 312 506 c 0,30,31
 332 506 332 506 352 502 c 128,-1,32
 372 498 372 498 383 490 c 1,33,34
 383 522 383 522 377.5 550 c 128,-1,35
 372 578 372 578 362 601 c 1,36,-1
 264 560 l 1,37,-1
 240 614 l 1,0,-1
315 449 m 0,38,39
 274 449 274 449 245 421 c 128,-1,40
 216 393 216 393 198 349.5 c 128,-1,41
 180 306 180 306 171.5 254 c 128,-1,42
 163 202 163 202 163 154 c 0,43,44
 163 132 163 132 166 112 c 128,-1,45
 169 92 169 92 175.5 77 c 128,-1,46
 182 62 182 62 194 53.5 c 128,-1,47
 206 45 206 45 224 45 c 0,48,49
 254 45 254 45 281 75.5 c 128,-1,50
 308 106 308 106 329 158.5 c 128,-1,51
 350 211 350 211 363 281 c 128,-1,52
 376 351 376 351 378 431 c 1,53,54
 363 441 363 441 347 445 c 128,-1,55
 331 449 331 449 315 449 c 0,38,39
EndSplineSet
EndChar

StartChar: divide
Encoding: 247 247 185
Width: 560
Flags: W
LayerCount: 2
Fore
SplineSet
65 386 m 1,0,-1
 515 386 l 1,1,-1
 515 306 l 1,2,-1
 65 306 l 1,3,-1
 65 386 l 1,0,-1
205 536 m 256,4,5
 205 572 205 572 228 594 c 128,-1,6
 251 616 251 616 289 616 c 256,7,8
 327 616 327 616 351 594 c 128,-1,9
 375 572 375 572 375 536 c 256,10,11
 375 500 375 500 351 478.5 c 128,-1,12
 327 457 327 457 289 457 c 256,13,14
 251 457 251 457 228 478.5 c 128,-1,15
 205 500 205 500 205 536 c 256,4,5
205 155 m 256,16,17
 205 191 205 191 228 213 c 128,-1,18
 251 235 251 235 289 235 c 256,19,20
 327 235 327 235 351 213 c 128,-1,21
 375 191 375 191 375 155 c 256,22,23
 375 119 375 119 351 97.5 c 128,-1,24
 327 76 327 76 289 76 c 256,25,26
 251 76 251 76 228 97.5 c 128,-1,27
 205 119 205 119 205 155 c 256,16,17
EndSplineSet
EndChar

StartChar: oslash
Encoding: 248 248 186
Width: 549
Flags: W
LayerCount: 2
Fore
SplineSet
29 192 m 0,0,1
 29 246 29 246 47 302.5 c 128,-1,2
 65 359 65 359 102 405.5 c 128,-1,3
 139 452 139 452 195.5 482 c 128,-1,4
 252 512 252 512 328 512 c 0,5,6
 397 512 397 512 444 480 c 1,7,-1
 510 553 l 1,8,-1
 558 512 l 1,9,-1
 489 436 l 1,10,11
 520 388 520 388 520 317 c 0,12,13
 520 251 520 251 500 191.5 c 128,-1,14
 480 132 480 132 442 86.5 c 128,-1,15
 404 41 404 41 349.5 14.5 c 128,-1,16
 295 -12 295 -12 225 -12 c 0,17,18
 153 -12 153 -12 106 22 c 1,19,-1
 33 -58 l 1,20,-1
 -13 -16 l 1,21,-1
 62 66 l 1,22,23
 29 116 29 116 29 192 c 0,0,1
244 45 m 0,24,25
 269 45 269 45 290.5 64 c 128,-1,26
 312 83 312 83 328 114.5 c 128,-1,27
 344 146 344 146 354.5 187.5 c 128,-1,28
 365 229 365 229 369 274 c 1,29,30
 371 284 371 284 372 294 c 128,-1,31
 373 304 373 304 374 315 c 1,32,-1
 180 101 l 1,33,34
 195 45 195 45 244 45 c 0,24,25
311 455 m 0,35,36
 276 455 276 455 252 433 c 128,-1,37
 228 411 228 411 212.5 377 c 128,-1,38
 197 343 197 343 189 302 c 128,-1,39
 181 261 181 261 178 223 c 1,40,41
 176 213 176 213 175.5 204 c 128,-1,42
 175 195 175 195 174 185 c 1,43,-1
 369 400 l 1,44,45
 354 455 354 455 311 455 c 0,35,36
EndSplineSet
EndChar

StartChar: thorn
Encoding: 254 254 192
Width: 572
Flags: W
LayerCount: 2
Fore
SplineSet
135 -133 m 1,0,1
 152 -136 152 -136 170.5 -144.5 c 128,-1,2
 189 -153 189 -153 202 -162 c 1,3,-1
 202 -200 l 1,4,-1
 -4 -200 l 1,5,-1
 -17 -187 l 1,6,-1
 164 678 l 1,7,-1
 106 692 l 1,8,-1
 106 726 l 1,9,10
 122 733 122 733 147 739.5 c 128,-1,11
 172 746 172 746 199 751 c 128,-1,12
 226 756 226 756 252 759 c 128,-1,13
 278 762 278 762 298 762 c 1,14,-1
 318 750 l 1,15,-1
 236 362 l 1,16,-1
 240 362 l 1,17,18
 256 393 256 393 276.5 420.5 c 128,-1,19
 297 448 297 448 320.5 468.5 c 128,-1,20
 344 489 344 489 371.5 500.5 c 128,-1,21
 399 512 399 512 430 512 c 0,22,23
 481 512 481 512 514.5 472 c 128,-1,24
 548 432 548 432 548 360 c 0,25,26
 548 279 548 279 525 210.5 c 128,-1,27
 502 142 502 142 462.5 92.5 c 128,-1,28
 423 43 423 43 368.5 15.5 c 128,-1,29
 314 -12 314 -12 251 -12 c 0,30,31
 222 -12 222 -12 203.5 -7.5 c 128,-1,32
 185 -3 185 -3 165 8 c 1,33,-1
 135 -133 l 1,0,1
353 432 m 0,34,35
 332 432 332 432 312.5 416.5 c 128,-1,36
 293 401 293 401 276 378 c 128,-1,37
 259 355 259 355 245 328 c 128,-1,38
 231 301 231 301 222 279 c 1,39,-1
 178 62 l 1,40,41
 191 53 191 53 203.5 49 c 128,-1,42
 216 45 216 45 240 45 c 0,43,44
 274 45 274 45 304 72 c 128,-1,45
 334 99 334 99 356.5 142 c 128,-1,46
 379 185 379 185 391.5 239 c 128,-1,47
 404 293 404 293 404 346 c 0,48,49
 404 388 404 388 391 410 c 128,-1,50
 378 432 378 432 353 432 c 0,34,35
EndSplineSet
EndChar

StartChar: Aogonek
Encoding: 260 260 198
Width: 724
Flags: W
LayerCount: 2
Fore
SplineSet
205 0 m 1,0,-1
 -44 0 l 1,1,-1
 -37 38 l 1,2,3
 -19 48 -19 48 1 55.5 c 128,-1,4
 21 63 21 63 41 67 c 1,5,-1
 437 712 l 1,6,-1
 510 712 l 1,7,-1
 623 67 l 1,8,9
 642 63 642 63 660.5 55 c 128,-1,10
 679 47 679 47 692 38 c 1,11,-1
 688 18 l 1,12,-1
 684 0 l 1,13,-1
 651 0 l 1,14,15
 608 -27 608 -27 581 -65 c 128,-1,16
 554 -103 554 -103 554 -135 c 0,17,18
 554 -161 554 -161 569.5 -175 c 128,-1,19
 585 -189 585 -189 608 -189 c 0,20,21
 620 -189 620 -189 631 -188 c 128,-1,22
 642 -187 642 -187 654 -184 c 1,23,-1
 654 -227 l 1,24,25
 640 -238 640 -238 612.5 -246.5 c 128,-1,26
 585 -255 585 -255 553 -255 c 0,27,28
 492 -255 492 -255 459.5 -226.5 c 128,-1,29
 427 -198 427 -198 427 -157 c 0,30,31
 427 -103 427 -103 468 -65 c 128,-1,32
 509 -27 509 -27 577 0 c 1,33,-1
 376 0 l 1,34,-1
 383 38 l 1,35,36
 404 48 404 48 427.5 55.5 c 128,-1,37
 451 63 451 63 472 67 c 1,38,-1
 448 226 l 1,39,-1
 227 226 l 1,40,-1
 132 67 l 1,41,42
 153 64 153 64 174 56.5 c 128,-1,43
 195 49 195 49 212 38 c 1,44,-1
 205 0 l 1,0,-1
261 291 m 1,45,-1
 440 291 l 1,46,-1
 412 482 l 1,47,-1
 412 568 l 1,48,-1
 410 568 l 1,49,-1
 372 480 l 1,50,-1
 261 291 l 1,45,-1
EndSplineSet
Position2: "'cpsp' Capital Spacing lookup 0 subtable" dx=40 dy=0 dh=80 dv=0
EndChar

StartChar: aogonek
Encoding: 261 261 199
Width: 563
Flags: W
LayerCount: 2
Fore
SplineSet
339 159 m 1,0,1
 326 127 326 127 306.5 96.5 c 128,-1,2
 287 66 287 66 262 42 c 128,-1,3
 237 18 237 18 207 3 c 128,-1,4
 177 -12 177 -12 142 -12 c 0,5,6
 90 -12 90 -12 59 26 c 128,-1,7
 28 64 28 64 28 139 c 0,8,9
 28 217 28 217 49.5 284.5 c 128,-1,10
 71 352 71 352 110.5 402.5 c 128,-1,11
 150 453 150 453 206 481.5 c 128,-1,12
 262 510 262 510 331 510 c 0,13,14
 357 510 357 510 375.5 504 c 128,-1,15
 394 498 394 498 415 489 c 1,16,17
 441 499 441 499 471 504 c 128,-1,18
 501 509 501 509 543 509 c 1,19,-1
 459 69 l 1,20,-1
 529 69 l 1,21,-1
 529 35 l 1,22,23
 512 21 512 21 486 12 c 1,24,25
 469 1 469 1 452 -12.5 c 128,-1,26
 435 -26 435 -26 421.5 -43 c 128,-1,27
 408 -60 408 -60 399.5 -79 c 128,-1,28
 391 -98 391 -98 391 -119 c 0,29,30
 391 -142 391 -142 404 -155.5 c 128,-1,31
 417 -169 417 -169 441 -169 c 0,32,33
 451 -169 451 -169 460.5 -167 c 128,-1,34
 470 -165 470 -165 484 -160 c 1,35,-1
 484 -201 l 1,36,37
 476 -207 476 -207 465 -211.5 c 128,-1,38
 454 -216 454 -216 441 -219 c 128,-1,39
 428 -222 428 -222 416 -224 c 128,-1,40
 404 -226 404 -226 395 -226 c 0,41,42
 326 -226 326 -226 296.5 -199 c 128,-1,43
 267 -172 267 -172 267 -134 c 0,44,45
 267 -92 267 -92 295.5 -61.5 c 128,-1,46
 324 -31 324 -31 374 -8 c 1,47,48
 347 -5 347 -5 335 9 c 128,-1,49
 323 23 323 23 323 37 c 0,50,51
 323 55 323 55 328 84.5 c 128,-1,52
 333 114 333 114 343 159 c 1,53,-1
 339 159 l 1,0,1
215 68 m 0,54,55
 234 68 234 68 254.5 85 c 128,-1,56
 275 102 275 102 293.5 127.5 c 128,-1,57
 312 153 312 153 327.5 183.5 c 128,-1,58
 343 214 343 214 354 240 c 1,59,-1
 391 438 l 1,60,61
 379 446 379 446 368.5 449.5 c 128,-1,62
 358 453 358 453 341 453 c 0,63,64
 301 453 301 453 269 426.5 c 128,-1,65
 237 400 237 400 215 357.5 c 128,-1,66
 193 315 193 315 181.5 262 c 128,-1,67
 170 209 170 209 170 156 c 0,68,69
 170 110 170 110 181 89 c 128,-1,70
 192 68 192 68 215 68 c 0,54,55
EndSplineSet
EndChar

StartChar: dcroat
Encoding: 273 273 209
Width: 570
Flags: W
LayerCount: 2
Fore
SplineSet
276 620 m 1,0,-1
 427 620 l 1,1,-1
 437 669 l 1,2,-1
 368 682 l 1,3,-1
 368 716 l 1,4,5
 383 722 383 722 409 728 c 128,-1,6
 435 734 435 734 464.5 739 c 128,-1,7
 494 744 494 744 522.5 747.5 c 128,-1,8
 551 751 551 751 569 752 c 1,9,-1
 589 741 l 1,10,-1
 566 620 l 1,11,-1
 643 620 l 1,12,-1
 629 559 l 1,13,-1
 554 559 l 1,14,-1
 460 69 l 1,15,-1
 532 69 l 1,16,-1
 532 35 l 1,17,18
 522 27 522 27 505.5 19 c 128,-1,19
 489 11 489 11 469.5 5 c 128,-1,20
 450 -1 450 -1 429 -5 c 128,-1,21
 408 -9 408 -9 390 -9 c 0,22,23
 355 -9 355 -9 340 7 c 128,-1,24
 325 23 325 23 325 40 c 256,25,26
 325 57 325 57 330 89 c 128,-1,27
 335 121 335 121 344 159 c 1,28,-1
 340 159 l 1,29,30
 325 124 325 124 304.5 93 c 128,-1,31
 284 62 284 62 259.5 39 c 128,-1,32
 235 16 235 16 206 2 c 128,-1,33
 177 -12 177 -12 145 -12 c 0,34,35
 94 -12 94 -12 61.5 27 c 128,-1,36
 29 66 29 66 29 145 c 0,37,38
 29 216 29 216 48.5 281.5 c 128,-1,39
 68 347 68 347 105.5 397.5 c 128,-1,40
 143 448 143 448 197.5 478.5 c 128,-1,41
 252 509 252 509 322 509 c 0,42,43
 355 509 355 509 370.5 505 c 128,-1,44
 386 501 386 501 403 493 c 1,45,-1
 415 559 l 1,46,-1
 262 559 l 1,47,-1
 276 620 l 1,0,-1
215 68 m 0,48,49
 236 68 236 68 256.5 85.5 c 128,-1,50
 277 103 277 103 295.5 129 c 128,-1,51
 314 155 314 155 329.5 185 c 128,-1,52
 345 215 345 215 356 240 c 1,53,-1
 392 437 l 1,54,55
 379 445 379 445 367.5 448.5 c 128,-1,56
 356 452 356 452 340 452 c 0,57,58
 302 452 302 452 270.5 426.5 c 128,-1,59
 239 401 239 401 217 359.5 c 128,-1,60
 195 318 195 318 183 264.5 c 128,-1,61
 171 211 171 211 171 155 c 0,62,63
 171 68 171 68 215 68 c 0,48,49
EndSplineSet
EndChar

StartChar: Eogonek
Encoding: 280 280 214
Width: 602
Flags: W
LayerCount: 2
Fore
SplineSet
650 700 m 1,0,1
 640 655 640 655 625 607 c 128,-1,2
 610 559 610 559 592 517 c 1,3,-1
 550 517 l 1,4,-1
 529 635 l 1,5,-1
 342 635 l 1,6,-1
 290 390 l 1,7,-1
 413 390 l 1,8,-1
 473 467 l 1,9,-1
 504 467 l 1,10,11
 499 418 499 418 486.5 358 c 128,-1,12
 474 298 474 298 458 246 c 1,13,-1
 426 246 l 1,14,-1
 399 325 l 1,15,-1
 276 325 l 1,16,-1
 222 65 l 1,17,-1
 416 65 l 1,18,-1
 496 192 l 1,19,-1
 538 192 l 1,20,21
 538 174 538 174 536.5 150 c 128,-1,22
 535 126 535 126 532.5 100 c 128,-1,23
 530 74 530 74 526 48 c 128,-1,24
 522 22 522 22 517 0 c 1,25,-1
 472 0 l 1,26,27
 429 -27 429 -27 402 -65 c 128,-1,28
 375 -103 375 -103 375 -135 c 0,29,30
 375 -161 375 -161 390.5 -175 c 128,-1,31
 406 -189 406 -189 429 -189 c 0,32,33
 441 -189 441 -189 452 -188 c 128,-1,34
 463 -187 463 -187 475 -184 c 1,35,-1
 475 -227 l 1,36,37
 461 -238 461 -238 433.5 -246.5 c 128,-1,38
 406 -255 406 -255 374 -255 c 0,39,40
 313 -255 313 -255 280.5 -226.5 c 128,-1,41
 248 -198 248 -198 248 -157 c 0,42,43
 248 -103 248 -103 289 -65 c 128,-1,44
 330 -27 330 -27 398 0 c 1,45,-1
 -24 0 l 1,46,-1
 -17 38 l 1,47,48
 3 47 3 47 25.5 55 c 128,-1,49
 48 63 48 63 72 67 c 1,50,-1
 192 633 l 1,51,52
 172 637 172 637 152 644.5 c 128,-1,53
 132 652 132 652 116 662 c 1,54,-1
 124 700 l 1,55,-1
 650 700 l 1,0,1
EndSplineSet
Position2: "'cpsp' Capital Spacing lookup 0 subtable" dx=40 dy=0 dh=80 dv=0
EndChar

StartChar: eogonek
Encoding: 281 281 215
Width: 472
Flags: W
LayerCount: 2
Fore
SplineSet
429 109 m 1,0,1
 415 83 415 83 385.5 55.5 c 128,-1,2
 356 28 356 28 316 10 c 1,3,4
 299 0 299 0 282 -14 c 128,-1,5
 265 -28 265 -28 251.5 -44.5 c 128,-1,6
 238 -61 238 -61 230 -79.5 c 128,-1,7
 222 -98 222 -98 222 -119 c 0,8,9
 222 -142 222 -142 235 -155.5 c 128,-1,10
 248 -169 248 -169 272 -169 c 0,11,12
 282 -169 282 -169 291.5 -167 c 128,-1,13
 301 -165 301 -165 315 -160 c 1,14,-1
 315 -201 l 1,15,16
 307 -207 307 -207 296 -211.5 c 128,-1,17
 285 -216 285 -216 272 -219 c 128,-1,18
 259 -222 259 -222 247 -224 c 128,-1,19
 235 -226 235 -226 226 -226 c 0,20,21
 157 -226 157 -226 127.5 -199 c 128,-1,22
 98 -172 98 -172 98 -134 c 0,23,24
 98 -93 98 -93 124.5 -63.5 c 128,-1,25
 151 -34 151 -34 199 -11 c 1,26,27
 117 -6 117 -6 72 41 c 128,-1,28
 27 88 27 88 27 174 c 0,29,30
 27 243 27 243 49 304 c 128,-1,31
 71 365 71 365 110.5 411.5 c 128,-1,32
 150 458 150 458 204.5 485 c 128,-1,33
 259 512 259 512 324 512 c 0,34,35
 384 512 384 512 423 484.5 c 128,-1,36
 462 457 462 457 462 409 c 0,37,38
 462 341 462 341 394.5 297 c 128,-1,39
 327 253 327 253 176 242 c 1,40,41
 173 228 173 228 171.5 213.5 c 128,-1,42
 170 199 170 199 170 186 c 0,43,44
 170 131 170 131 198.5 99.5 c 128,-1,45
 227 68 227 68 273 68 c 0,46,47
 292 68 292 68 311 74 c 128,-1,48
 330 80 330 80 347.5 90 c 128,-1,49
 365 100 365 100 379.5 111.5 c 128,-1,50
 394 123 394 123 405 134 c 1,51,-1
 429 109 l 1,0,1
301 455 m 0,52,53
 267 455 267 455 235.5 418 c 128,-1,54
 204 381 204 381 183 293 c 1,55,56
 257 295 257 295 302.5 326 c 128,-1,57
 348 357 348 357 348 407 c 0,58,59
 348 427 348 427 337.5 441 c 128,-1,60
 327 455 327 455 301 455 c 0,52,53
EndSplineSet
EndChar

StartChar: Hbar
Encoding: 294 294 226
Width: 782
Flags: W
LayerCount: 2
Fore
SplineSet
101 561 m 1,0,-1
 176 561 l 1,1,-1
 192 633 l 1,2,3
 169 637 169 637 149 645 c 128,-1,4
 129 653 129 653 116 662 c 1,5,-1
 124 700 l 1,6,-1
 427 700 l 1,7,-1
 419 662 l 1,8,9
 404 651 404 651 383 644 c 128,-1,10
 362 637 362 637 342 633 c 1,11,-1
 326 561 l 1,12,-1
 591 561 l 1,13,-1
 607 633 l 1,14,15
 564 644 564 644 542 662 c 1,16,-1
 550 700 l 1,17,-1
 853 700 l 1,18,-1
 845 662 l 1,19,20
 826 651 826 651 802.5 643.5 c 128,-1,21
 779 636 779 636 757 633 c 1,22,-1
 742 561 l 1,23,-1
 818 561 l 1,24,-1
 804 498 l 1,25,-1
 728 498 l 1,26,-1
 637 67 l 1,27,28
 659 63 659 63 678.5 55 c 128,-1,29
 698 47 698 47 712 38 c 1,30,-1
 705 0 l 1,31,-1
 402 0 l 1,32,-1
 409 38 l 1,33,34
 426 47 426 47 446 55 c 128,-1,35
 466 63 466 63 487 67 c 1,36,-1
 541 326 l 1,37,-1
 276 326 l 1,38,-1
 222 67 l 1,39,40
 256 60 256 60 286 38 c 1,41,-1
 279 0 l 1,42,-1
 -24 0 l 1,43,-1
 -17 38 l 1,44,45
 3 48 3 48 26.5 55.5 c 128,-1,46
 50 63 50 63 72 67 c 1,47,-1
 163 498 l 1,48,-1
 87 498 l 1,49,-1
 101 561 l 1,0,-1
555 391 m 1,50,-1
 578 498 l 1,51,-1
 313 498 l 1,52,-1
 290 391 l 1,53,-1
 555 391 l 1,50,-1
EndSplineSet
Position2: "'cpsp' Capital Spacing lookup 0 subtable" dx=40 dy=0 dh=80 dv=0
EndChar

StartChar: Iogonek
Encoding: 302 302 230
Width: 369
Flags: W
LayerCount: 2
Fore
SplineSet
298 0 m 1,0,-1
 249 0 l 1,1,2
 228 -14 228 -14 210 -30.5 c 128,-1,3
 192 -47 192 -47 179.5 -65 c 128,-1,4
 167 -83 167 -83 159.5 -101 c 128,-1,5
 152 -119 152 -119 152 -135 c 0,6,7
 152 -161 152 -161 168 -175 c 128,-1,8
 184 -189 184 -189 206 -189 c 0,9,10
 218 -189 218 -189 229 -188 c 128,-1,11
 240 -187 240 -187 252 -184 c 1,12,-1
 252 -227 l 1,13,14
 238 -238 238 -238 211 -246.5 c 128,-1,15
 184 -255 184 -255 152 -255 c 0,16,17
 91 -255 91 -255 58 -226.5 c 128,-1,18
 25 -198 25 -198 25 -157 c 0,19,20
 25 -103 25 -103 66.5 -65 c 128,-1,21
 108 -27 108 -27 175 0 c 1,22,-1
 -14 0 l 1,23,-1
 -7 38 l 1,24,25
 40 60 40 60 81 67 c 1,26,-1
 201 633 l 1,27,28
 181 636 181 636 161.5 643.5 c 128,-1,29
 142 651 142 651 126 662 c 1,30,-1
 134 700 l 1,31,-1
 446 700 l 1,32,-1
 438 662 l 1,33,34
 418 651 418 651 394.5 643.5 c 128,-1,35
 371 636 371 636 351 633 c 1,36,-1
 231 67 l 1,37,38
 250 63 250 63 270 56 c 128,-1,39
 290 49 290 49 305 38 c 1,40,-1
 298 0 l 1,0,-1
EndSplineSet
Position2: "'cpsp' Capital Spacing lookup 0 subtable" dx=40 dy=0 dh=80 dv=0
EndChar

StartChar: iogonek
Encoding: 303 303 231
Width: 304
Flags: W
LayerCount: 2
Fore
SplineSet
59 442 m 1,0,-1
 59 476 l 1,1,2
 74 482 74 482 99 488.5 c 128,-1,3
 124 495 124 495 152 500 c 128,-1,4
 180 505 180 505 207.5 508.5 c 128,-1,5
 235 512 235 512 256 512 c 1,6,-1
 274 500 l 1,7,-1
 184 69 l 1,8,-1
 254 69 l 1,9,-1
 254 35 l 1,10,11
 234 21 234 21 210 12 c 1,12,13
 193 1 193 1 176.5 -12.5 c 128,-1,14
 160 -26 160 -26 146.5 -43 c 128,-1,15
 133 -60 133 -60 124.5 -79 c 128,-1,16
 116 -98 116 -98 116 -119 c 0,17,18
 116 -142 116 -142 128.5 -155.5 c 128,-1,19
 141 -169 141 -169 165 -169 c 0,20,21
 182 -169 182 -169 209 -160 c 1,22,-1
 209 -201 l 1,23,24
 201 -207 201 -207 190 -211.5 c 128,-1,25
 179 -216 179 -216 166 -219 c 128,-1,26
 153 -222 153 -222 141 -224 c 128,-1,27
 129 -226 129 -226 120 -226 c 0,28,29
 51 -226 51 -226 21.5 -199 c 128,-1,30
 -8 -172 -8 -172 -8 -134 c 0,31,32
 -8 -92 -8 -92 20 -61.5 c 128,-1,33
 48 -31 48 -31 97 -8 c 1,34,35
 67 -6 67 -6 54.5 7.5 c 128,-1,36
 42 21 42 21 42 37 c 0,37,38
 42 57 42 57 45 76 c 128,-1,39
 48 95 48 95 53 118 c 2,40,-1
 121 428 l 1,41,-1
 59 442 l 1,0,-1
141 667 m 0,42,43
 141 701 141 701 164 720 c 128,-1,44
 187 739 187 739 222 739 c 0,45,46
 260 739 260 739 282.5 720 c 128,-1,47
 305 701 305 701 305 667 c 0,48,49
 305 635 305 635 282.5 616 c 128,-1,50
 260 597 260 597 222 597 c 0,51,52
 187 597 187 597 164 616 c 128,-1,53
 141 635 141 635 141 667 c 0,42,43
EndSplineSet
EndChar

StartChar: dotlessi
Encoding: 305 305 233
Width: 304
Flags: W
LayerCount: 2
Fore
SplineSet
59 442 m 1,0,-1
 59 476 l 1,1,2
 74 482 74 482 99 488.5 c 128,-1,3
 124 495 124 495 152 500 c 128,-1,4
 180 505 180 505 207.5 508.5 c 128,-1,5
 235 512 235 512 256 512 c 1,6,-1
 274 500 l 1,7,-1
 184 69 l 1,8,-1
 254 69 l 1,9,-1
 254 35 l 1,10,11
 241 26 241 26 223.5 18 c 128,-1,12
 206 10 206 10 186.5 4 c 128,-1,13
 167 -2 167 -2 147 -5.5 c 128,-1,14
 127 -9 127 -9 109 -9 c 0,15,16
 71 -9 71 -9 56.5 5.5 c 128,-1,17
 42 20 42 20 42 37 c 0,18,19
 42 57 42 57 45 76 c 128,-1,20
 48 95 48 95 53 118 c 2,21,-1
 121 428 l 1,22,-1
 59 442 l 1,0,-1
EndSplineSet
EndChar

StartChar: Lslash
Encoding: 321 321 244
Width: 577
Flags: W
LayerCount: 2
Fore
SplineSet
124 700 m 1,0,-1
 452 700 l 1,1,-1
 444 662 l 1,2,3
 422 651 422 651 394.5 643.5 c 128,-1,4
 367 636 367 636 342 633 c 1,5,-1
 296 419 l 1,6,-1
 427 490 l 1,7,-1
 410 411 l 1,8,-1
 280 340 l 1,9,-1
 222 65 l 1,10,-1
 415 65 l 1,11,-1
 519 244 l 1,12,-1
 561 244 l 1,13,14
 561 221 561 221 558 190 c 128,-1,15
 555 159 555 159 550 125 c 128,-1,16
 545 91 545 91 538.5 58 c 128,-1,17
 532 25 532 25 525 0 c 1,18,-1
 -24 0 l 1,19,-1
 -17 38 l 1,20,21
 9 50 9 50 31 57 c 128,-1,22
 53 64 53 64 72 67 c 1,23,-1
 110 248 l 1,24,-1
 18 198 l 1,25,-1
 35 277 l 1,26,-1
 127 327 l 1,27,-1
 192 633 l 1,28,29
 170 637 170 637 150 644 c 128,-1,30
 130 651 130 651 116 662 c 1,31,-1
 124 700 l 1,0,-1
EndSplineSet
Position2: "'cpsp' Capital Spacing lookup 0 subtable" dx=40 dy=0 dh=80 dv=0
EndChar

StartChar: lslash
Encoding: 322 322 245
Width: 324
Flags: W
LayerCount: 2
Fore
SplineSet
10 295 m 1,0,-1
 99 345 l 1,1,-1
 164 669 l 1,2,-1
 96 682 l 1,3,-1
 96 716 l 1,4,5
 110 722 110 722 134 728 c 128,-1,6
 158 734 158 734 186 739.5 c 128,-1,7
 214 745 214 745 243.5 748.5 c 128,-1,8
 273 752 273 752 298 752 c 1,9,-1
 318 741 l 1,10,-1
 257 432 l 1,11,-1
 352 485 l 1,12,-1
 336 406 l 1,13,-1
 242 353 l 1,14,-1
 187 69 l 1,15,-1
 258 69 l 1,16,-1
 258 35 l 1,17,18
 248 27 248 27 231 19 c 128,-1,19
 214 11 214 11 193.5 5 c 128,-1,20
 173 -1 173 -1 151 -5 c 128,-1,21
 129 -9 129 -9 109 -9 c 0,22,23
 75 -9 75 -9 59.5 5.5 c 128,-1,24
 44 20 44 20 44 37 c 0,25,26
 44 57 44 57 47 76 c 128,-1,27
 50 95 50 95 55 118 c 2,28,-1
 84 266 l 1,29,-1
 -6 216 l 1,30,-1
 10 295 l 1,0,-1
EndSplineSet
EndChar

StartChar: OE
Encoding: 338 338 256
Width: 984
Flags: W
LayerCount: 2
Fore
SplineSet
441 0 m 1,0,1
 417 -5 417 -5 393.5 -8.5 c 128,-1,2
 370 -12 370 -12 346 -12 c 0,3,4
 272 -12 272 -12 218 7 c 128,-1,5
 164 26 164 26 129 61.5 c 128,-1,6
 94 97 94 97 76.5 146.5 c 128,-1,7
 59 196 59 196 59 258 c 0,8,9
 59 352 59 352 86.5 435 c 128,-1,10
 114 518 114 518 166.5 579.5 c 128,-1,11
 219 641 219 641 295.5 676.5 c 128,-1,12
 372 712 372 712 471 712 c 0,13,14
 481 712 481 712 496.5 711 c 128,-1,15
 512 710 512 710 528.5 708.5 c 128,-1,16
 545 707 545 707 560.5 704.5 c 128,-1,17
 576 702 576 702 588 700 c 1,18,-1
 1032 700 l 1,19,20
 1021 655 1021 655 1006 607 c 128,-1,21
 991 559 991 559 974 517 c 1,22,-1
 932 517 l 1,23,-1
 911 635 l 1,24,-1
 724 635 l 1,25,-1
 672 390 l 1,26,-1
 795 390 l 1,27,-1
 855 467 l 1,28,-1
 886 467 l 1,29,30
 881 418 881 418 868.5 358 c 128,-1,31
 856 298 856 298 840 246 c 1,32,-1
 808 246 l 1,33,-1
 781 325 l 1,34,-1
 658 325 l 1,35,-1
 603 65 l 1,36,-1
 798 65 l 1,37,-1
 878 192 l 1,38,-1
 920 192 l 1,39,40
 920 173 920 173 918.5 149 c 128,-1,41
 917 125 917 125 914.5 99.5 c 128,-1,42
 912 74 912 74 908 48 c 128,-1,43
 904 22 904 22 899 0 c 1,44,-1
 441 0 l 1,0,1
357 53 m 0,45,46
 381 53 381 53 407 59.5 c 128,-1,47
 433 66 433 66 456 77 c 1,48,-1
 570 617 l 1,49,50
 550 630 550 630 523 638.5 c 128,-1,51
 496 647 496 647 465 647 c 0,52,53
 409 647 409 647 365.5 611.5 c 128,-1,54
 322 576 322 576 291.5 518 c 128,-1,55
 261 460 261 460 245 386 c 128,-1,56
 229 312 229 312 229 236 c 0,57,58
 229 195 229 195 235 161 c 128,-1,59
 241 127 241 127 256 103 c 128,-1,60
 271 79 271 79 295.5 66 c 128,-1,61
 320 53 320 53 357 53 c 0,45,46
EndSplineSet
Position2: "'cpsp' Capital Spacing lookup 0 subtable" dx=40 dy=0 dh=80 dv=0
EndChar

StartChar: oe
Encoding: 339 339 257
Width: 814
Flags: W
LayerCount: 2
Fore
SplineSet
311 455 m 0,0,1
 271 455 271 455 244.5 425 c 128,-1,2
 218 395 218 395 201.5 349.5 c 128,-1,3
 185 304 185 304 178 251 c 128,-1,4
 171 198 171 198 171 153 c 0,5,6
 171 102 171 102 190.5 73.5 c 128,-1,7
 210 45 210 45 244 45 c 0,8,9
 273 45 273 45 297.5 69.5 c 128,-1,10
 322 94 322 94 339.5 135.5 c 128,-1,11
 357 177 357 177 367 230.5 c 128,-1,12
 377 284 377 284 377 342 c 0,13,14
 377 397 377 397 360 426 c 128,-1,15
 343 455 343 455 311 455 c 0,0,1
400 53 m 1,16,17
 365 18 365 18 318 3 c 128,-1,18
 271 -12 271 -12 225 -12 c 0,19,20
 183 -12 183 -12 147 0.5 c 128,-1,21
 111 13 111 13 84.5 38.5 c 128,-1,22
 58 64 58 64 43.5 102 c 128,-1,23
 29 140 29 140 29 192 c 0,24,25
 29 246 29 246 47 302.5 c 128,-1,26
 65 359 65 359 102 405.5 c 128,-1,27
 139 452 139 452 195.5 482 c 128,-1,28
 252 512 252 512 328 512 c 0,29,30
 377 512 377 512 417.5 494.5 c 128,-1,31
 458 477 458 477 479 443 c 1,32,33
 515 476 515 476 562 494 c 128,-1,34
 609 512 609 512 658 512 c 0,35,36
 718 512 718 512 757 484.5 c 128,-1,37
 796 457 796 457 796 409 c 0,38,39
 796 341 796 341 729 297 c 128,-1,40
 662 253 662 253 510 242 c 1,41,42
 508 228 508 228 506.5 213.5 c 128,-1,43
 505 199 505 199 505 186 c 0,44,45
 505 129 505 129 534 98.5 c 128,-1,46
 563 68 563 68 608 68 c 0,47,48
 627 68 627 68 646 74 c 128,-1,49
 665 80 665 80 682 90 c 128,-1,50
 699 100 699 100 713.5 111.5 c 128,-1,51
 728 123 728 123 739 134 c 1,52,-1
 763 109 l 1,53,54
 752 89 752 89 731 67.5 c 128,-1,55
 710 46 710 46 682 28.5 c 128,-1,56
 654 11 654 11 620 -0.5 c 128,-1,57
 586 -12 586 -12 549 -12 c 0,58,59
 492 -12 492 -12 456 7 c 128,-1,60
 420 26 420 26 400 53 c 1,16,17
635 455 m 0,61,62
 602 455 602 455 570.5 418 c 128,-1,63
 539 381 539 381 517 293 c 1,64,65
 592 295 592 295 637.5 326 c 128,-1,66
 683 357 683 357 683 407 c 0,67,68
 683 427 683 427 672 441 c 128,-1,69
 661 455 661 455 635 455 c 0,61,62
EndSplineSet
EndChar

StartChar: Scedilla
Encoding: 350 350 268
Width: 556
Flags: W
LayerCount: 2
Fore
SplineSet
140 83 m 1,0,1
 150 73 150 73 176 63 c 128,-1,2
 202 53 202 53 231 53 c 0,3,4
 262 53 262 53 289 58.5 c 128,-1,5
 316 64 316 64 335.5 76 c 128,-1,6
 355 88 355 88 366 107.5 c 128,-1,7
 377 127 377 127 377 155 c 0,8,9
 377 191 377 191 358 216.5 c 128,-1,10
 339 242 339 242 311 263 c 128,-1,11
 283 284 283 284 249.5 304.5 c 128,-1,12
 216 325 216 325 188 351 c 128,-1,13
 160 377 160 377 141 412 c 128,-1,14
 122 447 122 447 122 498 c 0,15,16
 122 551 122 551 143 591 c 128,-1,17
 164 631 164 631 201 658 c 128,-1,18
 238 685 238 685 289 698.5 c 128,-1,19
 340 712 340 712 401 712 c 256,20,21
 462 712 462 712 512.5 703.5 c 128,-1,22
 563 695 563 695 601 677 c 1,23,24
 596 657 596 657 588 631 c 128,-1,25
 580 605 580 605 570.5 579.5 c 128,-1,26
 561 554 561 554 551.5 531.5 c 128,-1,27
 542 509 542 509 535 494 c 1,28,-1
 494 494 l 1,29,-1
 477 631 l 1,30,31
 463 639 463 639 439.5 643 c 128,-1,32
 416 647 416 647 391 647 c 0,33,34
 365 647 365 647 342.5 641.5 c 128,-1,35
 320 636 320 636 303.5 624.5 c 128,-1,36
 287 613 287 613 277 595 c 128,-1,37
 267 577 267 577 267 552 c 0,38,39
 267 517 267 517 286.5 491 c 128,-1,40
 306 465 306 465 334.5 443.5 c 128,-1,41
 363 422 363 422 397 400.5 c 128,-1,42
 431 379 431 379 459.5 352.5 c 128,-1,43
 488 326 488 326 507.5 291 c 128,-1,44
 527 256 527 256 527 207 c 0,45,46
 527 107 527 107 457.5 51.5 c 128,-1,47
 388 -4 388 -4 259 -11 c 1,48,-1
 226 -67 l 1,49,50
 281 -69 281 -69 306.5 -88 c 128,-1,51
 332 -107 332 -107 332 -142 c 0,52,53
 332 -180 332 -180 306.5 -205 c 128,-1,54
 281 -230 281 -230 245 -245 c 128,-1,55
 209 -260 209 -260 169 -266 c 128,-1,56
 129 -272 129 -272 100 -272 c 1,57,-1
 100 -226 l 1,58,59
 118 -224 118 -224 135.5 -220 c 128,-1,60
 153 -216 153 -216 167.5 -209 c 128,-1,61
 182 -202 182 -202 190.5 -190.5 c 128,-1,62
 199 -179 199 -179 199 -162 c 0,63,64
 198 -144 198 -144 188 -133 c 128,-1,65
 178 -122 178 -122 143 -120 c 1,66,-1
 196 -11 l 1,67,68
 167 -10 167 -10 138.5 -5.5 c 128,-1,69
 110 -1 110 -1 85.5 5.5 c 128,-1,70
 61 12 61 12 42.5 19.5 c 128,-1,71
 24 27 24 27 15 35 c 1,72,73
 21 59 21 59 30 85.5 c 128,-1,74
 39 112 39 112 49 138.5 c 128,-1,75
 59 165 59 165 69.5 188.5 c 128,-1,76
 80 212 80 212 89 230 c 1,77,-1
 130 230 l 1,78,-1
 140 83 l 1,0,1
EndSplineSet
Substitution2: "'locl' Localized Forms in Latin lookup 9 subtable" Scommaaccent
Position2: "'cpsp' Capital Spacing lookup 0 subtable" dx=40 dy=0 dh=80 dv=0
EndChar

StartChar: scedilla
Encoding: 351 351 269
Width: 432
Flags: W
LayerCount: 2
Fore
SplineSet
229 110 m 0,0,1
 229 132 229 132 217 149.5 c 128,-1,2
 205 167 205 167 187 184 c 128,-1,3
 169 201 169 201 147.5 217.5 c 128,-1,4
 126 234 126 234 108 255 c 128,-1,5
 90 276 90 276 78 301.5 c 128,-1,6
 66 327 66 327 66 361 c 0,7,8
 66 437 66 437 120.5 474.5 c 128,-1,9
 175 512 175 512 269 512 c 0,10,11
 285 512 285 512 304.5 510.5 c 128,-1,12
 324 509 324 509 344 505 c 128,-1,13
 364 501 364 501 382.5 495.5 c 128,-1,14
 401 490 401 490 416 481 c 1,15,16
 417 470 417 470 414.5 452.5 c 128,-1,17
 412 435 412 435 405.5 417.5 c 128,-1,18
 399 400 399 400 388.5 385.5 c 128,-1,19
 378 371 378 371 363 366 c 1,20,-1
 283 455 l 1,21,22
 251 455 251 455 229.5 442 c 128,-1,23
 208 429 208 429 208 396 c 0,24,25
 208 374 208 374 220.5 356 c 128,-1,26
 233 338 233 338 251 321.5 c 128,-1,27
 269 305 269 305 291 288 c 128,-1,28
 313 271 313 271 331 250.5 c 128,-1,29
 349 230 349 230 361.5 204 c 128,-1,30
 374 178 374 178 374 144 c 256,31,32
 374 110 374 110 360 83 c 128,-1,33
 346 56 346 56 321.5 36.5 c 128,-1,34
 297 17 297 17 262.5 5 c 128,-1,35
 228 -7 228 -7 187 -10 c 1,36,-1
 152 -68 l 1,37,38
 206 -71 206 -71 227.5 -88.5 c 128,-1,39
 249 -106 249 -106 250 -139 c 0,40,41
 250 -170 250 -170 230 -192 c 128,-1,42
 210 -214 210 -214 178.5 -228.5 c 128,-1,43
 147 -243 147 -243 108.5 -250 c 128,-1,44
 70 -257 70 -257 35 -257 c 1,45,-1
 35 -218 l 1,46,47
 52 -215 52 -215 68.5 -210 c 128,-1,48
 85 -205 85 -205 97.5 -197.5 c 128,-1,49
 110 -190 110 -190 117.5 -180 c 128,-1,50
 125 -170 125 -170 125 -157 c 0,51,52
 124 -140 124 -140 114 -128.5 c 128,-1,53
 104 -117 104 -117 72 -114 c 1,54,-1
 126 -11 l 1,55,56
 84 -8 84 -8 50 2 c 128,-1,57
 16 12 16 12 -1 25 c 1,58,59
 -2 57 -2 57 10.5 88 c 128,-1,60
 23 119 23 119 47 136 c 1,61,-1
 144 45 l 1,62,63
 177 45 177 45 203 61 c 128,-1,64
 229 77 229 77 229 110 c 0,0,1
EndSplineSet
Substitution2: "'locl' Localized Forms in Latin lookup 9 subtable" scommaaccent
EndChar

StartChar: Tcedilla
Encoding: 354 354 272
Width: 662
Flags: W
LayerCount: 2
Fore
SplineSet
461 0 m 1,0,-1
 320 0 l 1,1,-1
 278 -67 l 1,2,3
 336 -69 336 -69 361 -88 c 128,-1,4
 386 -107 386 -107 386 -142 c 0,5,6
 386 -180 386 -180 360.5 -205 c 128,-1,7
 335 -230 335 -230 299 -245 c 128,-1,8
 263 -260 263 -260 223 -266 c 128,-1,9
 183 -272 183 -272 154 -272 c 1,10,-1
 154 -226 l 1,11,12
 172 -224 172 -224 189.5 -220 c 128,-1,13
 207 -216 207 -216 221.5 -209 c 128,-1,14
 236 -202 236 -202 244.5 -190.5 c 128,-1,15
 253 -179 253 -179 253 -162 c 0,16,17
 252 -144 252 -144 242 -133 c 128,-1,18
 232 -122 232 -122 197 -120 c 1,19,-1
 256 0 l 1,20,-1
 117 0 l 1,21,-1
 125 38 l 1,22,23
 147 47 147 47 174 55 c 128,-1,24
 201 63 201 63 228 67 c 1,25,-1
 349 635 l 1,26,-1
 233 635 l 1,27,-1
 132 464 l 1,28,-1
 91 464 l 1,29,30
 91 484 91 484 93.5 515 c 128,-1,31
 96 546 96 546 99.5 579 c 128,-1,32
 103 612 103 612 108 644.5 c 128,-1,33
 113 677 113 677 119 700 c 1,34,-1
 756 700 l 1,35,36
 751 676 751 676 742.5 644 c 128,-1,37
 734 612 734 612 724 579 c 128,-1,38
 714 546 714 546 703.5 515.5 c 128,-1,39
 693 485 693 485 684 464 c 1,40,-1
 642 464 l 1,41,-1
 615 635 l 1,42,-1
 499 635 l 1,43,-1
 378 67 l 1,44,45
 403 62 403 62 427 55 c 128,-1,46
 451 48 451 48 469 38 c 1,47,-1
 461 0 l 1,0,-1
EndSplineSet
Substitution2: "'locl' Localized Forms in Latin lookup 9 subtable" Tcommaaccent
Position2: "'cpsp' Capital Spacing lookup 0 subtable" dx=40 dy=0 dh=80 dv=0
EndChar

StartChar: tcedilla
Encoding: 355 355 273
Width: 367
Flags: W
LayerCount: 2
Fore
SplineSet
45 476 m 1,0,1
 64 488 64 488 87 496.5 c 128,-1,2
 110 505 110 505 132 510 c 1,3,-1
 148 586 l 1,4,5
 155 592 155 592 170 597.5 c 128,-1,6
 185 603 185 603 203 607.5 c 128,-1,7
 221 612 221 612 239.5 616 c 128,-1,8
 258 620 258 620 273 622 c 1,9,-1
 294 610 l 1,10,-1
 270 500 l 1,11,-1
 387 500 l 1,12,13
 389 488 389 488 385.5 468.5 c 128,-1,14
 382 449 382 449 374 437 c 1,15,-1
 257 437 l 1,16,-1
 199 178 l 2,17,18
 195 159 195 159 193 144.5 c 128,-1,19
 191 130 191 130 191 118 c 0,20,21
 191 92 191 92 204 80 c 128,-1,22
 217 68 217 68 239 68 c 0,23,24
 264 68 264 68 286 74 c 128,-1,25
 308 80 308 80 328 91 c 1,26,-1
 341 65 l 1,27,28
 321 42 321 42 277.5 19.5 c 128,-1,29
 234 -3 234 -3 183 -10 c 1,30,-1
 147 -68 l 1,31,32
 201 -71 201 -71 222.5 -88.5 c 128,-1,33
 244 -106 244 -106 245 -139 c 0,34,35
 245 -170 245 -170 225 -192 c 128,-1,36
 205 -214 205 -214 173.5 -228.5 c 128,-1,37
 142 -243 142 -243 103.5 -250 c 128,-1,38
 65 -257 65 -257 30 -257 c 1,39,-1
 30 -218 l 1,40,41
 47 -215 47 -215 63.5 -210 c 128,-1,42
 80 -205 80 -205 92.5 -197.5 c 128,-1,43
 105 -190 105 -190 112.5 -180 c 128,-1,44
 120 -170 120 -170 120 -157 c 0,45,46
 119 -140 119 -140 109 -128.5 c 128,-1,47
 99 -117 99 -117 67 -114 c 1,48,-1
 122 -10 l 1,49,50
 84 -3 84 -3 65.5 19.5 c 128,-1,51
 47 42 47 42 47 78 c 0,52,53
 47 101 47 101 51 127 c 128,-1,54
 55 153 55 153 59 171 c 2,55,-1
 117 437 l 1,56,-1
 45 437 l 1,57,-1
 45 476 l 1,0,1
EndSplineSet
Substitution2: "'locl' Localized Forms in Latin lookup 9 subtable" tcommaaccent
EndChar

StartChar: Uogonek
Encoding: 370 370 284
Width: 715
Flags: W
LayerCount: 2
Fore
SplineSet
112 700 m 1,0,-1
 420 700 l 1,1,-1
 412 662 l 1,2,3
 376 641 376 641 330 633 c 1,4,-1
 251 260 l 2,5,6
 231 162 231 162 266 118 c 128,-1,7
 301 74 301 74 376 74 c 0,8,9
 446 74 446 74 493 114.5 c 128,-1,10
 540 155 540 155 561 253 c 2,11,-1
 640 628 l 1,12,13
 617 633 617 633 594.5 642 c 128,-1,14
 572 651 572 651 559 662 c 1,15,-1
 567 700 l 1,16,-1
 815 700 l 1,17,-1
 807 662 l 1,18,19
 789 649 789 649 764.5 641 c 128,-1,20
 740 633 740 633 717 628 c 1,21,-1
 637 252 l 2,22,23
 617 155 617 155 573 94.5 c 128,-1,24
 529 34 529 34 454 8 c 1,25,26
 430 -5 430 -5 410 -22.5 c 128,-1,27
 390 -40 390 -40 375.5 -59.5 c 128,-1,28
 361 -79 361 -79 352.5 -98.5 c 128,-1,29
 344 -118 344 -118 344 -135 c 0,30,31
 344 -161 344 -161 360 -175 c 128,-1,32
 376 -189 376 -189 398 -189 c 0,33,34
 410 -189 410 -189 421 -188 c 128,-1,35
 432 -187 432 -187 444 -184 c 1,36,-1
 444 -227 l 1,37,38
 430 -238 430 -238 403 -246.5 c 128,-1,39
 376 -255 376 -255 344 -255 c 0,40,41
 283 -255 283 -255 250 -226.5 c 128,-1,42
 217 -198 217 -198 217 -157 c 0,43,44
 217 -108 217 -108 252.5 -71.5 c 128,-1,45
 288 -35 288 -35 346 -9 c 1,46,-1
 334 -9 l 2,47,48
 191 -9 191 -9 133.5 66 c 128,-1,49
 76 141 76 141 104 271 c 2,50,-1
 180 633 l 1,51,52
 160 637 160 637 138.5 644 c 128,-1,53
 117 651 117 651 104 662 c 1,54,-1
 112 700 l 1,0,-1
EndSplineSet
Position2: "'cpsp' Capital Spacing lookup 0 subtable" dx=40 dy=0 dh=80 dv=0
EndChar

StartChar: uogonek
Encoding: 371 371 285
Width: 585
Flags: W
LayerCount: 2
Fore
SplineSet
546 69 m 1,0,-1
 546 35 l 1,1,2
 528 21 528 21 504 12 c 1,3,4
 487 1 487 1 470 -12.5 c 128,-1,5
 453 -26 453 -26 439.5 -43 c 128,-1,6
 426 -60 426 -60 417.5 -79 c 128,-1,7
 409 -98 409 -98 409 -119 c 0,8,9
 409 -142 409 -142 422 -155.5 c 128,-1,10
 435 -169 435 -169 459 -169 c 0,11,12
 469 -169 469 -169 478.5 -167 c 128,-1,13
 488 -165 488 -165 502 -160 c 1,14,-1
 502 -201 l 1,15,16
 494 -207 494 -207 483 -211.5 c 128,-1,17
 472 -216 472 -216 459 -219 c 128,-1,18
 446 -222 446 -222 434 -224 c 128,-1,19
 422 -226 422 -226 413 -226 c 0,20,21
 344 -226 344 -226 314.5 -199 c 128,-1,22
 285 -172 285 -172 285 -134 c 0,23,24
 285 -92 285 -92 313 -62 c 128,-1,25
 341 -32 341 -32 391 -9 c 1,26,27
 360 -7 360 -7 348.5 7 c 128,-1,28
 337 21 337 21 337 36 c 0,29,30
 337 54 337 54 341 86 c 128,-1,31
 345 118 345 118 357 160 c 1,32,-1
 353 160 l 1,33,34
 340 136 340 136 320 106 c 128,-1,35
 300 76 300 76 273 49.5 c 128,-1,36
 246 23 246 23 211 5.5 c 128,-1,37
 176 -12 176 -12 134 -12 c 0,38,39
 93 -12 93 -12 67.5 12.5 c 128,-1,40
 42 37 42 37 42 82 c 0,41,42
 42 104 42 104 48.5 145 c 128,-1,43
 55 186 55 186 64.5 234.5 c 128,-1,44
 74 283 74 283 85.5 334.5 c 128,-1,45
 97 386 97 386 106 429 c 1,46,-1
 47 442 l 1,47,-1
 47 476 l 1,48,49
 63 482 63 482 87 488 c 128,-1,50
 111 494 111 494 137 499 c 128,-1,51
 163 504 163 504 190 507.5 c 128,-1,52
 217 511 217 511 239 512 c 1,53,-1
 261 500 l 1,54,55
 245 425 245 425 228.5 357.5 c 128,-1,56
 212 290 212 290 198 215 c 0,57,58
 193 191 193 191 187.5 162 c 128,-1,59
 182 133 182 133 182 104 c 0,60,61
 182 86 182 86 191.5 77 c 128,-1,62
 201 68 201 68 215 68 c 0,63,64
 240 68 240 68 264.5 87.5 c 128,-1,65
 289 107 289 107 309.5 134.5 c 128,-1,66
 330 162 330 162 345.5 191 c 128,-1,67
 361 220 361 220 368 239 c 1,68,-1
 420 500 l 1,69,-1
 555 500 l 1,70,-1
 476 69 l 1,71,-1
 546 69 l 1,0,-1
EndSplineSet
EndChar

StartChar: longs
Encoding: 383 383 293
Width: 316
Flags: W
LayerCount: 2
Fore
SplineSet
113 437 m 1,0,-1
 42 437 l 1,1,-1
 42 476 l 1,2,3
 62 487 62 487 84.5 495.5 c 128,-1,4
 107 504 107 504 127 509 c 1,5,-1
 134 544 l 2,6,7
 147 606 147 606 169.5 646.5 c 128,-1,8
 192 687 192 687 222 710.5 c 128,-1,9
 252 734 252 734 290 743 c 128,-1,10
 328 752 328 752 372 752 c 0,11,12
 404 752 404 752 437 746.5 c 128,-1,13
 470 741 470 741 490 730 c 1,14,15
 492 716 492 716 488.5 699.5 c 128,-1,16
 485 683 485 683 477.5 668 c 128,-1,17
 470 653 470 653 460 641 c 128,-1,18
 450 629 450 629 438 623 c 1,19,-1
 366 699 l 1,20,21
 352 696 352 696 338.5 689.5 c 128,-1,22
 325 683 325 683 313 668 c 128,-1,23
 301 653 301 653 289.5 625 c 128,-1,24
 278 597 278 597 269 550 c 1,25,-1
 185 43 l 1,26,27
 175 -28 175 -28 144 -75 c 128,-1,28
 113 -122 113 -122 75.5 -150.5 c 128,-1,29
 38 -179 38 -179 0 -193 c 128,-1,30
 -38 -207 -38 -207 -62 -212 c 1,31,-1
 -73 -178 l 1,32,33
 -61 -172 -61 -172 -43 -158.5 c 128,-1,34
 -25 -145 -25 -145 -7 -121 c 128,-1,35
 11 -97 11 -97 26.5 -61.5 c 128,-1,36
 42 -26 42 -26 50 24 c 2,37,-1
 113 437 l 1,0,-1
EndSplineSet
EndChar

StartChar: florin
Encoding: 402 402 294
Width: 560
Flags: W
LayerCount: 2
Fore
SplineSet
200 437 m 1,0,-1
 130 437 l 1,1,-1
 130 476 l 1,2,3
 150 487 150 487 172.5 495.5 c 128,-1,4
 195 504 195 504 215 509 c 1,5,-1
 222 544 l 2,6,7
 235 606 235 606 257.5 646.5 c 128,-1,8
 280 687 280 687 310 710.5 c 128,-1,9
 340 734 340 734 377.5 743 c 128,-1,10
 415 752 415 752 459 752 c 0,11,12
 491 752 491 752 524 746.5 c 128,-1,13
 557 741 557 741 578 730 c 1,14,15
 580 716 580 716 576.5 699.5 c 128,-1,16
 573 683 573 683 565.5 668 c 128,-1,17
 558 653 558 653 547.5 641 c 128,-1,18
 537 629 537 629 525 623 c 1,19,-1
 454 699 l 1,20,21
 440 696 440 696 426.5 690 c 128,-1,22
 413 684 413 684 401 668.5 c 128,-1,23
 389 653 389 653 378 625 c 128,-1,24
 367 597 367 597 357 550 c 2,25,-1
 347 500 l 1,26,-1
 458 500 l 1,27,28
 460 489 460 489 457.5 469.5 c 128,-1,29
 455 450 455 450 445 437 c 1,30,-1
 334 437 l 1,31,-1
 278 43 l 2,32,33
 267 -28 267 -28 236 -75 c 128,-1,34
 205 -122 205 -122 167.5 -150.5 c 128,-1,35
 130 -179 130 -179 92.5 -193 c 128,-1,36
 55 -207 55 -207 31 -212 c 1,37,-1
 20 -180 l 1,38,39
 32 -174 32 -174 50 -160 c 128,-1,40
 68 -146 68 -146 86 -122 c 128,-1,41
 104 -98 104 -98 119.5 -62 c 128,-1,42
 135 -26 135 -26 143 24 c 1,43,-1
 200 437 l 1,0,-1
EndSplineSet
EndChar

StartChar: uni0237
Encoding: 567 567 301
Width: 299
Flags: W
LayerCount: 2
Fore
SplineSet
119 429 m 1,0,-1
 60 442 l 1,1,-1
 60 476 l 1,2,3
 75 483 75 483 98 489.5 c 128,-1,4
 121 496 121 496 147.5 501 c 128,-1,5
 174 506 174 506 201 509 c 128,-1,6
 228 512 228 512 252 512 c 1,7,-1
 272 500 l 1,8,-1
 180 43 l 2,9,10
 165 -28 165 -28 135 -75 c 128,-1,11
 105 -122 105 -122 70 -151 c 128,-1,12
 35 -180 35 -180 -1 -194 c 128,-1,13
 -37 -208 -37 -208 -65 -212 c 1,14,-1
 -81 -181 l 1,15,16
 -69 -175 -69 -175 -53 -162 c 128,-1,17
 -37 -149 -37 -149 -21 -125 c 128,-1,18
 -5 -101 -5 -101 10.5 -64.5 c 128,-1,19
 26 -28 26 -28 37 24 c 2,20,-1
 119 429 l 1,0,-1
EndSplineSet
EndChar

StartChar: circumflex
Encoding: 710 710 303
Width: 450
Flags: W
LayerCount: 2
Fore
SplineSet
221 577 m 1,0,-1
 179 602 l 1,1,-1
 339 788 l 2,2,3
 342 791 342 791 349.5 792.5 c 128,-1,4
 357 794 357 794 365 794 c 0,5,6
 382 794 382 794 391 788 c 1,7,-1
 455 603 l 1,8,-1
 414 577 l 1,9,-1
 339 675 l 1,10,-1
 221 577 l 1,0,-1
EndSplineSet
EndChar

StartChar: caron
Encoding: 711 711 304
Width: 390
Flags: W
LayerCount: 2
Fore
SplineSet
447 792 m 1,0,1
 457 792 457 792 472 782.5 c 128,-1,2
 487 773 487 773 489 767 c 1,3,-1
 316 586 l 2,4,5
 312 583 312 583 304.5 582 c 128,-1,6
 297 581 297 581 289 581 c 0,7,8
 274 581 274 581 264 586 c 1,9,-1
 183 766 l 1,10,11
 184 769 184 769 190 773.5 c 128,-1,12
 196 778 196 778 203.5 782 c 128,-1,13
 211 786 211 786 218.5 789 c 128,-1,14
 226 792 226 792 231 792 c 1,15,-1
 311 699 l 1,16,-1
 447 792 l 1,0,1
EndSplineSet
AlternateSubs2: "'aalt' Access All Alternates lookup 1 subtable" caron.l caron.L
EndChar

StartChar: breve
Encoding: 728 728 305
Width: 510
Flags: W
LayerCount: 2
Fore
SplineSet
525 724 m 1,0,1
 514 695 514 695 495.5 669.5 c 128,-1,2
 477 644 477 644 453.5 625 c 128,-1,3
 430 606 430 606 403 595 c 128,-1,4
 376 584 376 584 348 584 c 0,5,6
 289 584 289 584 254 623.5 c 128,-1,7
 219 663 219 663 217 726 c 1,8,-1
 254 748 l 1,9,10
 270 722 270 722 294.5 705 c 128,-1,11
 319 688 319 688 351 687 c 0,12,13
 369 687 369 687 388.5 690 c 128,-1,14
 408 693 408 693 426.5 700 c 128,-1,15
 445 707 445 707 462 718 c 128,-1,16
 479 729 479 729 492 744 c 1,17,-1
 525 724 l 1,0,1
EndSplineSet
EndChar

StartChar: dotaccent
Encoding: 729 729 306
Width: 321
Flags: W
LayerCount: 2
Fore
SplineSet
191 667 m 0,0,1
 191 701 191 701 214 720 c 128,-1,2
 237 739 237 739 272 739 c 0,3,4
 310 739 310 739 332.5 720 c 128,-1,5
 355 701 355 701 355 667 c 0,6,7
 355 635 355 635 332.5 616 c 128,-1,8
 310 597 310 597 272 597 c 0,9,10
 237 597 237 597 214 616 c 128,-1,11
 191 635 191 635 191 667 c 0,0,1
EndSplineSet
EndChar

StartChar: ring
Encoding: 730 730 307
Width: 472
Flags: W
LayerCount: 2
Fore
SplineSet
218 664 m 0,0,1
 218 712 218 712 254 746 c 128,-1,2
 290 780 290 780 355 780 c 0,3,4
 399 780 399 780 423.5 757 c 128,-1,5
 448 734 448 734 448 699 c 0,6,7
 448 676 448 676 439 655 c 128,-1,8
 430 634 430 634 413 618 c 128,-1,9
 396 602 396 602 371.5 593 c 128,-1,10
 347 584 347 584 316 584 c 0,11,12
 269 584 269 584 243.5 605.5 c 128,-1,13
 218 627 218 627 218 664 c 0,0,1
293 666 m 0,14,15
 293 651 293 651 301.5 642.5 c 128,-1,16
 310 634 310 634 323 634 c 0,17,18
 341 634 341 634 357 650.5 c 128,-1,19
 373 667 373 667 373 696 c 0,20,21
 373 730 373 730 345 730 c 0,22,23
 320 730 320 730 306.5 711 c 128,-1,24
 293 692 293 692 293 666 c 0,14,15
EndSplineSet
EndChar

StartChar: ogonek
Encoding: 731 731 308
Width: 433
Flags: W
LayerCount: 2
Fore
SplineSet
303 28 m 1,0,1
 284 19 284 19 262.5 4 c 128,-1,2
 241 -11 241 -11 222.5 -30 c 128,-1,3
 204 -49 204 -49 192 -71.5 c 128,-1,4
 180 -94 180 -94 180 -119 c 0,5,6
 180 -142 180 -142 192.5 -155.5 c 128,-1,7
 205 -169 205 -169 229 -169 c 0,8,9
 246 -169 246 -169 273 -160 c 1,10,-1
 273 -201 l 1,11,12
 265 -207 265 -207 254 -211.5 c 128,-1,13
 243 -216 243 -216 230 -219 c 128,-1,14
 217 -222 217 -222 205 -224 c 128,-1,15
 193 -226 193 -226 184 -226 c 0,16,17
 115 -226 115 -226 85.5 -199 c 128,-1,18
 56 -172 56 -172 56 -134 c 0,19,20
 56 -104 56 -104 71.5 -80 c 128,-1,21
 87 -56 87 -56 115 -36.5 c 128,-1,22
 143 -17 143 -17 181 -1 c 128,-1,23
 219 15 219 15 264 28 c 1,24,-1
 303 28 l 1,0,1
EndSplineSet
EndChar

StartChar: tilde
Encoding: 732 732 309
Width: 437
Flags: W
LayerCount: 2
Fore
SplineSet
485 667 m 1,0,1
 455 633 455 633 423 617.5 c 128,-1,2
 391 602 391 602 368 602 c 0,3,4
 350 602 350 602 334 607.5 c 128,-1,5
 318 613 318 613 303 619 c 128,-1,6
 288 625 288 625 273.5 630.5 c 128,-1,7
 259 636 259 636 244 636 c 0,8,9
 231 636 231 636 217.5 631.5 c 128,-1,10
 204 627 204 627 188 616 c 1,11,-1
 160 658 l 1,12,13
 197 696 197 696 230.5 711 c 128,-1,14
 264 726 264 726 287 726 c 0,15,16
 305 726 305 726 320.5 721 c 128,-1,17
 336 716 336 716 350 710 c 128,-1,18
 364 704 364 704 378.5 699 c 128,-1,19
 393 694 393 694 408 694 c 0,20,21
 421 694 421 694 434 696.5 c 128,-1,22
 447 699 447 699 463 709 c 1,23,-1
 485 667 l 1,0,1
EndSplineSet
EndChar

StartChar: hungarumlaut
Encoding: 733 733 310
Width: 645
Flags: W
LayerCount: 2
Fore
SplineSet
317 768 m 1,0,1
 323 770 323 770 340 769 c 128,-1,2
 357 768 357 768 375.5 765 c 128,-1,3
 394 762 394 762 409.5 757.5 c 128,-1,4
 425 753 425 753 428 747 c 1,5,-1
 428 723 l 1,6,-1
 290 585 l 1,7,-1
 249 605 l 1,8,-1
 317 768 l 1,0,1
513 768 m 1,9,10
 520 770 520 770 536 769 c 128,-1,11
 552 768 552 768 570 764 c 128,-1,12
 588 760 588 760 603.5 754 c 128,-1,13
 619 748 619 748 625 740 c 1,14,-1
 625 718 l 1,15,-1
 417 585 l 1,16,-1
 380 607 l 1,17,-1
 513 768 l 1,9,10
EndSplineSet
EndChar

StartChar: uni0394
Encoding: 916 916 312
AltUni2: 002206.ffffffff.0
Width: 657
Flags: W
LayerCount: 2
Fore
SplineSet
-19 0 m 1,0,-1
 -19 45 l 1,1,-1
 274 700 l 1,2,-1
 316 700 l 1,3,-1
 603 45 l 1,4,-1
 603 0 l 1,5,-1
 -19 0 l 1,0,-1
261 507 m 1,6,-1
 70 75 l 1,7,-1
 439 75 l 1,8,-1
 261 507 l 1,6,-1
EndSplineSet
EndChar

StartChar: uni03A9
Encoding: 937 937 313
AltUni2: 002126.ffffffff.0
Width: 797
Flags: W
LayerCount: 2
Fore
SplineSet
40 0 m 1,0,1
 40 18 40 18 41.5 48 c 128,-1,2
 43 78 43 78 46 111 c 128,-1,3
 49 144 49 144 52.5 176 c 128,-1,4
 56 208 56 208 60 230 c 1,5,-1
 94 230 l 1,6,-1
 138 112 l 1,7,-1
 306 112 l 1,8,9
 262 128 262 128 220 154 c 128,-1,10
 178 180 178 180 145 216 c 128,-1,11
 112 252 112 252 92 299 c 128,-1,12
 72 346 72 346 72 405 c 0,13,14
 72 477 72 477 97 534 c 128,-1,15
 122 591 122 591 167.5 630.5 c 128,-1,16
 213 670 213 670 276.5 691 c 128,-1,17
 340 712 340 712 416 712 c 0,18,19
 494 712 494 712 555.5 691.5 c 128,-1,20
 617 671 617 671 659.5 632.5 c 128,-1,21
 702 594 702 594 725 538 c 128,-1,22
 748 482 748 482 748 410 c 0,23,24
 748 348 748 348 726.5 298.5 c 128,-1,25
 705 249 705 249 671.5 212.5 c 128,-1,26
 638 176 638 176 597.5 151 c 128,-1,27
 557 126 557 126 520 112 c 1,28,-1
 678 112 l 1,29,-1
 723 230 l 1,30,-1
 757 230 l 1,31,32
 761 207 761 207 765 174.5 c 128,-1,33
 769 142 769 142 771.5 109 c 128,-1,34
 774 76 774 76 775.5 46.5 c 128,-1,35
 777 17 777 17 777 0 c 1,36,-1
 459 0 l 1,37,-1
 459 119 l 1,38,39
 480 129 480 129 502 154 c 128,-1,40
 524 179 524 179 542 215 c 128,-1,41
 560 251 560 251 571.5 296.5 c 128,-1,42
 583 342 583 342 583 394 c 0,43,44
 583 511 583 511 540.5 579 c 128,-1,45
 498 647 498 647 416 647 c 0,46,47
 367 647 367 647 333 629.5 c 128,-1,48
 299 612 299 612 277.5 580.5 c 128,-1,49
 256 549 256 549 246.5 504.5 c 128,-1,50
 237 460 237 460 237 405 c 0,51,52
 237 351 237 351 250 304 c 128,-1,53
 263 257 263 257 282.5 219.5 c 128,-1,54
 302 182 302 182 325 156 c 128,-1,55
 348 130 348 130 368 119 c 1,56,-1
 368 0 l 1,57,-1
 40 0 l 1,0,1
EndSplineSet
EndChar

StartChar: pi
Encoding: 960 960 314
Width: 678
Flags: W
LayerCount: 2
Fore
SplineSet
583 64 m 1,0,-1
 576 29 l 1,1,2
 560 23 560 23 537.5 16.5 c 128,-1,3
 515 10 515 10 489.5 5 c 128,-1,4
 464 0 464 0 437.5 -4 c 128,-1,5
 411 -8 411 -8 386 -9 c 1,6,-1
 352 -9 l 1,7,-1
 441 410 l 1,8,-1
 295 410 l 1,9,-1
 269 287 l 2,10,11
 249 192 249 192 222.5 119 c 128,-1,12
 196 46 196 46 168 0 c 1,13,14
 160 -4 160 -4 146 -5 c 128,-1,15
 132 -6 132 -6 116 -6 c 0,16,17
 102 -6 102 -6 89 -5.5 c 128,-1,18
 76 -5 76 -5 65.5 -4 c 128,-1,19
 55 -3 55 -3 48.5 -2 c 128,-1,20
 42 -1 42 -1 42 0 c 2,21,-1
 38 9 l 1,22,23
 67 40 67 40 97 88.5 c 128,-1,24
 127 137 127 137 153 192.5 c 128,-1,25
 179 248 179 248 199 305 c 128,-1,26
 219 362 219 362 229 410 c 1,27,-1
 212 410 l 2,28,29
 184 410 184 410 159 395.5 c 128,-1,30
 134 381 134 381 105 351 c 1,31,-1
 85 359 l 1,32,33
 99 395 99 395 114 422.5 c 128,-1,34
 129 450 129 450 150 469 c 128,-1,35
 171 488 171 488 199.5 497.5 c 128,-1,36
 228 507 228 507 268 506 c 0,37,38
 279 506 279 506 311 505 c 128,-1,39
 343 504 343 504 386 503 c 128,-1,40
 429 502 429 502 476.5 501 c 128,-1,41
 524 500 524 500 565 500 c 0,42,43
 597 500 597 500 618 500.5 c 128,-1,44
 639 501 639 501 653 504 c 128,-1,45
 667 507 667 507 677.5 512 c 128,-1,46
 688 517 688 517 700 526 c 1,47,-1
 716 517 l 1,48,49
 704 467 704 467 675 438.5 c 128,-1,50
 646 410 646 410 603 410 c 2,51,-1
 591 410 l 1,52,-1
 519 72 l 1,53,-1
 583 64 l 1,0,-1
EndSplineSet
EndChar

StartChar: afii10051
Encoding: 1026 1026 316
Width: 801
Flags: W
LayerCount: 2
Fore
SplineSet
786 279 m 0,0,1
 786 204 786 204 760 149.5 c 128,-1,2
 734 95 734 95 691 60.5 c 128,-1,3
 648 26 648 26 593 10.5 c 128,-1,4
 538 -5 538 -5 480 -3 c 1,5,-1
 483 42 l 1,6,7
 557 59 557 59 596.5 118 c 128,-1,8
 636 177 636 177 636 268 c 0,9,10
 636 289 636 289 632.5 306.5 c 128,-1,11
 629 324 629 324 619.5 336 c 128,-1,12
 610 348 610 348 593.5 354.5 c 128,-1,13
 577 361 577 361 551 361 c 0,14,15
 518 361 518 361 487 351.5 c 128,-1,16
 456 342 456 342 428 327 c 1,17,-1
 373 67 l 1,18,19
 388 62 388 62 401.5 54 c 128,-1,20
 415 46 415 46 426 38 c 1,21,-1
 419 0 l 1,22,-1
 112 0 l 1,23,-1
 119 38 l 1,24,25
 141 47 141 47 168 55 c 128,-1,26
 195 63 195 63 223 67 c 1,27,-1
 343 635 l 1,28,-1
 227 635 l 1,29,-1
 127 464 l 1,30,-1
 85 464 l 1,31,32
 86 484 86 484 89 515 c 128,-1,33
 92 546 92 546 95.5 579 c 128,-1,34
 99 612 99 612 103.5 644.5 c 128,-1,35
 108 677 108 677 113 700 c 1,36,-1
 750 700 l 1,37,38
 745 675 745 675 737.5 647.5 c 128,-1,39
 730 620 730 620 721.5 593 c 128,-1,40
 713 566 713 566 703.5 540.5 c 128,-1,41
 694 515 694 515 685 494 c 1,42,-1
 643 494 l 1,43,-1
 609 635 l 1,44,-1
 493 635 l 1,45,-1
 440 387 l 1,46,47
 478 407 478 407 523.5 419 c 128,-1,48
 569 431 569 431 625 431 c 0,49,50
 706 431 706 431 746 391 c 128,-1,51
 786 351 786 351 786 279 c 0,0,1
EndSplineSet
Position2: "'cpsp' Capital Spacing lookup 0 subtable" dx=40 dy=0 dh=80 dv=0
EndChar

StartChar: afii10053
Encoding: 1028 1028 318
Width: 657
Flags: W
LayerCount: 2
Fore
SplineSet
561 210 m 1,0,-1
 603 210 l 1,1,2
 603 194 603 194 602 171.5 c 128,-1,3
 601 149 601 149 598 123.5 c 128,-1,4
 595 98 595 98 591 73 c 128,-1,5
 587 48 587 48 582 28 c 1,6,7
 561 17 561 17 535.5 9.5 c 128,-1,8
 510 2 510 2 484 -3 c 128,-1,9
 458 -8 458 -8 434 -10 c 128,-1,10
 410 -12 410 -12 392 -12 c 0,11,12
 300 -12 300 -12 237 13 c 128,-1,13
 174 38 174 38 134 78 c 128,-1,14
 94 118 94 118 76.5 168 c 128,-1,15
 59 218 59 218 59 269 c 0,16,17
 59 368 59 368 88 449.5 c 128,-1,18
 117 531 117 531 172.5 589.5 c 128,-1,19
 228 648 228 648 308.5 680 c 128,-1,20
 389 712 389 712 491 712 c 0,21,22
 557 712 557 712 609.5 702.5 c 128,-1,23
 662 693 662 693 695 677 c 1,24,25
 692 661 692 661 685 636 c 128,-1,26
 678 611 678 611 669 583.5 c 128,-1,27
 660 556 660 556 650 529.5 c 128,-1,28
 640 503 640 503 631 485 c 1,29,-1
 589 485 l 1,30,-1
 566 636 l 1,31,32
 557 641 557 641 536 644 c 128,-1,33
 515 647 515 647 494 647 c 0,34,35
 447 647 447 647 406 629 c 128,-1,36
 365 611 365 611 332 576.5 c 128,-1,37
 299 542 299 542 276 493 c 128,-1,38
 253 444 253 444 241 381 c 1,39,-1
 507 397 l 1,40,41
 511 374 511 374 504.5 343.5 c 128,-1,42
 498 313 498 313 490 293 c 1,43,44
 433 301 433 301 363.5 306 c 128,-1,45
 294 311 294 311 231 313 c 1,46,47
 230 299 230 299 229.5 284.5 c 128,-1,48
 229 270 229 270 229 255 c 0,49,50
 229 199 229 199 245 160.5 c 128,-1,51
 261 122 261 122 286.5 98 c 128,-1,52
 312 74 312 74 342.5 63.5 c 128,-1,53
 373 53 373 53 402 53 c 256,54,55
 431 53 431 53 452 58.5 c 128,-1,56
 473 64 473 64 483 70 c 1,57,-1
 561 210 l 1,0,-1
EndSplineSet
Position2: "'cpsp' Capital Spacing lookup 0 subtable" dx=40 dy=0 dh=80 dv=0
EndChar

StartChar: afii10056
Encoding: 1031 1031 321
Width: 369
Flags: W
LayerCount: 2
Fore
SplineSet
298 0 m 1,0,-1
 -14 0 l 1,1,-1
 -7 38 l 1,2,3
 40 60 40 60 81 67 c 1,4,-1
 201 633 l 1,5,6
 181 636 181 636 161.5 644 c 128,-1,7
 142 652 142 652 126 662 c 1,8,-1
 134 700 l 1,9,-1
 446 700 l 1,10,-1
 438 662 l 1,11,12
 418 651 418 651 394.5 643.5 c 128,-1,13
 371 636 371 636 351 633 c 1,14,-1
 231 67 l 1,15,16
 250 63 250 63 270 56 c 128,-1,17
 290 49 290 49 305 38 c 1,18,-1
 298 0 l 1,0,-1
134 793 m 0,19,20
 134 825 134 825 153.5 841 c 128,-1,21
 173 857 173 857 207 857 c 0,22,23
 240 857 240 857 260.5 841 c 128,-1,24
 281 825 281 825 281 793 c 0,25,26
 281 765 281 765 260.5 749.5 c 128,-1,27
 240 734 240 734 207 734 c 0,28,29
 173 734 173 734 153.5 749.5 c 128,-1,30
 134 765 134 765 134 793 c 0,19,20
339 793 m 0,31,32
 339 825 339 825 359.5 841 c 128,-1,33
 380 857 380 857 413 857 c 0,34,35
 447 857 447 857 466.5 841 c 128,-1,36
 486 825 486 825 486 793 c 0,37,38
 486 765 486 765 466.5 749.5 c 128,-1,39
 447 734 447 734 413 734 c 0,40,41
 380 734 380 734 359.5 749.5 c 128,-1,42
 339 765 339 765 339 793 c 0,31,32
EndSplineSet
Position2: "'cpsp' Capital Spacing lookup 0 subtable" dx=40 dy=0 dh=80 dv=0
EndChar

StartChar: afii10058
Encoding: 1033 1033 323
Width: 963
Flags: W
LayerCount: 2
Fore
SplineSet
326 0 m 1,0,-1
 333 38 l 1,1,2
 353 48 353 48 374 55.5 c 128,-1,3
 395 63 395 63 416 67 c 1,4,-1
 536 635 l 1,5,-1
 373 635 l 1,6,7
 337 483 337 483 305 381.5 c 128,-1,8
 273 280 273 280 243.5 214 c 128,-1,9
 214 148 214 148 186 109.5 c 128,-1,10
 158 71 158 71 131 43 c 0,11,12
 106 17 106 17 74 2.5 c 128,-1,13
 42 -12 42 -12 15 -12 c 1,14,15
 6 -8 6 -8 -1.5 3 c 128,-1,16
 -9 14 -9 14 -14.5 28.5 c 128,-1,17
 -20 43 -20 43 -23.5 60 c 128,-1,18
 -27 77 -27 77 -28 94 c 0,19,20
 -28 102 -28 102 -28 110.5 c 128,-1,21
 -28 119 -28 119 -27 127 c 1,22,-1
 8 165 l 1,23,-1
 122 136 l 1,24,25
 141 164 141 164 162 203.5 c 128,-1,26
 183 243 183 243 205 301 c 128,-1,27
 227 359 227 359 249.5 438 c 128,-1,28
 272 517 272 517 295 623 c 1,29,30
 265 628 265 628 239.5 639 c 128,-1,31
 214 650 214 650 197 662 c 1,32,-1
 205 700 l 1,33,-1
 788 700 l 1,34,-1
 780 662 l 1,35,36
 759 652 759 652 735 644.5 c 128,-1,37
 711 637 711 637 686 633 c 1,38,-1
 640 419 l 1,39,40
 659 422 659 422 684.5 424 c 128,-1,41
 710 426 710 426 730 426 c 0,42,43
 833 426 833 426 890.5 383.5 c 128,-1,44
 948 341 948 341 948 264 c 0,45,46
 948 188 948 188 917 137 c 128,-1,47
 886 86 886 86 837.5 55 c 128,-1,48
 789 24 789 24 729.5 10.5 c 128,-1,49
 670 -3 670 -3 613 -3 c 0,50,51
 608 -3 608 -3 592.5 -2.5 c 128,-1,52
 577 -2 577 -2 557 -1.5 c 128,-1,53
 537 -1 537 -1 516 -0.5 c 128,-1,54
 495 0 495 0 480 0 c 2,55,-1
 326 0 l 1,0,-1
680 361 m 0,56,57
 648 361 648 361 627 355 c 1,58,-1
 566 66 l 1,59,60
 569 65 569 65 576 64 c 128,-1,61
 583 63 583 63 590.5 62.5 c 128,-1,62
 598 62 598 62 605.5 62 c 128,-1,63
 613 62 613 62 617 62 c 0,64,65
 651 62 651 62 681.5 76 c 128,-1,66
 712 90 712 90 734.5 116 c 128,-1,67
 757 142 757 142 770 180.5 c 128,-1,68
 783 219 783 219 783 267 c 0,69,70
 783 312 783 312 761 336.5 c 128,-1,71
 739 361 739 361 680 361 c 0,56,57
EndSplineSet
Position2: "'cpsp' Capital Spacing lookup 0 subtable" dx=40 dy=0 dh=80 dv=0
EndChar

StartChar: afii10059
Encoding: 1034 1034 324
Width: 1033
Flags: W
LayerCount: 2
Fore
SplineSet
402 0 m 1,0,-1
 410 38 l 1,1,2
 430 49 430 49 447.5 56 c 128,-1,3
 465 63 465 63 487 67 c 1,4,-1
 545 339 l 1,5,-1
 280 339 l 1,6,-1
 222 67 l 1,7,8
 257 60 257 60 287 38 c 1,9,-1
 279 0 l 1,10,-1
 -24 0 l 1,11,-1
 -16 38 l 1,12,13
 4 48 4 48 27.5 55.5 c 128,-1,14
 51 63 51 63 72 67 c 1,15,-1
 192 633 l 1,16,17
 169 637 169 637 149 645 c 128,-1,18
 129 653 129 653 116 662 c 1,19,-1
 124 700 l 1,20,-1
 427 700 l 1,21,-1
 419 662 l 1,22,23
 402 652 402 652 382 644 c 128,-1,24
 362 636 362 636 342 633 c 1,25,-1
 294 404 l 1,26,-1
 559 404 l 1,27,-1
 607 633 l 1,28,29
 587 637 587 637 573.5 643.5 c 128,-1,30
 560 650 560 650 542 662 c 1,31,-1
 550 700 l 1,32,-1
 859 700 l 1,33,-1
 851 662 l 1,34,35
 831 652 831 652 807 644.5 c 128,-1,36
 783 637 783 637 757 633 c 1,37,-1
 709 403 l 1,38,39
 728 406 728 406 753 408 c 128,-1,40
 778 410 778 410 798 410 c 0,41,42
 901 410 901 410 959.5 369 c 128,-1,43
 1018 328 1018 328 1018 252 c 0,44,45
 1018 178 1018 178 987.5 128.5 c 128,-1,46
 957 79 957 79 908.5 50 c 128,-1,47
 860 21 860 21 800.5 9 c 128,-1,48
 741 -3 741 -3 684 -3 c 0,49,50
 679 -3 679 -3 663.5 -2.5 c 128,-1,51
 648 -2 648 -2 628 -1.5 c 128,-1,52
 608 -1 608 -1 587 -0.5 c 128,-1,53
 566 0 566 0 551 0 c 2,54,-1
 402 0 l 1,0,-1
749 345 m 0,55,56
 716 345 716 345 695 339 c 1,57,-1
 637 66 l 1,58,59
 644 64 644 64 662 63 c 128,-1,60
 680 62 680 62 689 62 c 0,61,62
 723 62 723 62 752.5 74 c 128,-1,63
 782 86 782 86 804.5 110 c 128,-1,64
 827 134 827 134 840 170 c 128,-1,65
 853 206 853 206 853 254 c 0,66,67
 853 294 853 294 830.5 319.5 c 128,-1,68
 808 345 808 345 749 345 c 0,55,56
EndSplineSet
Position2: "'cpsp' Capital Spacing lookup 0 subtable" dx=40 dy=0 dh=80 dv=0
EndChar

StartChar: afii10060
Encoding: 1035 1035 325
Width: 838
Flags: W
LayerCount: 2
Fore
SplineSet
494 635 m 1,0,-1
 441 385 l 1,1,2
 472 402 472 402 519.5 416 c 128,-1,3
 567 430 567 430 623 430 c 0,4,5
 655 430 655 430 682.5 422 c 128,-1,6
 710 414 710 414 730 397.5 c 128,-1,7
 750 381 750 381 762 355.5 c 128,-1,8
 774 330 774 330 775 294 c 1,9,10
 777 260 777 260 768 220 c 2,11,-1
 736 67 l 1,12,13
 753 64 753 64 770.5 56 c 128,-1,14
 788 48 788 48 801 38 c 1,15,-1
 794 0 l 1,16,-1
 572 0 l 1,17,-1
 615 207 l 2,18,19
 621 237 621 237 623.5 264.5 c 128,-1,20
 626 292 626 292 620 313 c 128,-1,21
 614 334 614 334 597 347 c 128,-1,22
 580 360 580 360 547 360 c 256,23,24
 514 360 514 360 485 350.5 c 128,-1,25
 456 341 456 341 428 325 c 1,26,-1
 373 67 l 1,27,28
 388 62 388 62 403 54 c 128,-1,29
 418 46 418 46 429 38 c 1,30,-1
 421 0 l 1,31,-1
 112 0 l 1,32,-1
 120 38 l 1,33,34
 142 46 142 46 169 54.5 c 128,-1,35
 196 63 196 63 223 67 c 1,36,-1
 343 635 l 1,37,-1
 228 635 l 1,38,-1
 127 464 l 1,39,-1
 86 464 l 1,40,41
 86 484 86 484 88.5 515 c 128,-1,42
 91 546 91 546 95 579 c 128,-1,43
 99 612 99 612 104 644.5 c 128,-1,44
 109 677 109 677 114 700 c 1,45,-1
 751 700 l 1,46,47
 746 676 746 676 738.5 649 c 128,-1,48
 731 622 731 622 722 595 c 128,-1,49
 713 568 713 568 704 542.5 c 128,-1,50
 695 517 695 517 686 496 c 1,51,-1
 644 496 l 1,52,-1
 610 635 l 1,53,-1
 494 635 l 1,0,-1
EndSplineSet
Position2: "'cpsp' Capital Spacing lookup 0 subtable" dx=40 dy=0 dh=80 dv=0
EndChar

StartChar: afii10145
Encoding: 1039 1039 328
Width: 755
Flags: W
LayerCount: 2
Fore
SplineSet
542 700 m 1,0,-1
 842 700 l 1,1,-1
 834 662 l 1,2,3
 817 653 817 653 795.5 645 c 128,-1,4
 774 637 774 637 746 633 c 1,5,-1
 626 67 l 1,6,7
 646 63 646 63 665.5 56 c 128,-1,8
 685 49 685 49 702 38 c 1,9,-1
 694 0 l 1,10,-1
 409 0 l 1,11,12
 395 -42 395 -42 369.5 -97 c 128,-1,13
 344 -152 344 -152 315 -200 c 1,14,-1
 271 -200 l 1,15,16
 265 -150 265 -150 261.5 -99 c 128,-1,17
 258 -48 258 -48 262 0 c 1,18,-1
 -24 0 l 1,19,-1
 -16 38 l 1,20,21
 4 50 4 50 27 56.5 c 128,-1,22
 50 63 50 63 72 67 c 1,23,-1
 192 633 l 1,24,25
 173 635 173 635 154 642 c 128,-1,26
 135 649 135 649 116 662 c 1,27,-1
 124 700 l 1,28,-1
 424 700 l 1,29,-1
 416 662 l 1,30,31
 405 654 405 654 386.5 646 c 128,-1,32
 368 638 368 638 342 633 c 1,33,-1
 222 65 l 1,34,-1
 476 65 l 1,35,-1
 596 633 l 1,36,37
 577 638 577 638 562.5 645 c 128,-1,38
 548 652 548 652 534 662 c 1,39,-1
 542 700 l 1,0,-1
EndSplineSet
Position2: "'cpsp' Capital Spacing lookup 0 subtable" dx=40 dy=0 dh=80 dv=0
EndChar

StartChar: afii10018
Encoding: 1041 1041 330
Width: 636
Flags: W
LayerCount: 2
Fore
SplineSet
192 633 m 1,0,1
 146 641 146 641 116 662 c 1,2,-1
 124 700 l 1,3,-1
 661 700 l 1,4,5
 656 676 656 676 648.5 648.5 c 128,-1,6
 641 621 641 621 632 593 c 128,-1,7
 623 565 623 565 613.5 539 c 128,-1,8
 604 513 604 513 595 492 c 1,9,-1
 554 492 l 1,10,-1
 522 635 l 1,11,-1
 342 635 l 1,12,-1
 294 407 l 1,13,14
 318 411 318 411 346 412.5 c 128,-1,15
 374 414 374 414 394 414 c 0,16,17
 495 414 495 414 552.5 376.5 c 128,-1,18
 610 339 610 339 610 257 c 0,19,20
 610 195 610 195 585 146.5 c 128,-1,21
 560 98 560 98 515.5 65 c 128,-1,22
 471 32 471 32 410 14.5 c 128,-1,23
 349 -3 349 -3 276 -3 c 0,24,25
 271 -3 271 -3 251 -2.5 c 128,-1,26
 231 -2 231 -2 206.5 -1.5 c 128,-1,27
 182 -1 182 -1 157 -0.5 c 128,-1,28
 132 0 132 0 117 0 c 2,29,-1
 -24 0 l 1,30,-1
 -17 38 l 1,31,32
 25 59 25 59 72 67 c 1,33,-1
 192 633 l 1,0,1
343 349 m 0,34,35
 327 349 327 349 310 347.5 c 128,-1,36
 293 346 293 346 280 343 c 1,37,-1
 222 66 l 1,38,39
 226 65 226 65 233.5 64 c 128,-1,40
 241 63 241 63 250 62.5 c 128,-1,41
 259 62 259 62 267 62 c 128,-1,42
 275 62 275 62 280 62 c 0,43,44
 319 62 319 62 350 77.5 c 128,-1,45
 381 93 381 93 402 119 c 128,-1,46
 423 145 423 145 434 180 c 128,-1,47
 445 215 445 215 445 253 c 0,48,49
 445 299 445 299 424 324 c 128,-1,50
 403 349 403 349 343 349 c 0,34,35
EndSplineSet
Position2: "'cpsp' Capital Spacing lookup 0 subtable" dx=40 dy=0 dh=80 dv=0
EndChar

StartChar: afii10020
Encoding: 1043 1043 332
Width: 537
Flags: W
LayerCount: 2
Fore
SplineSet
222 67 m 1,0,1
 245 63 245 63 268 55 c 128,-1,2
 291 47 291 47 311 38 c 1,3,-1
 304 0 l 1,4,-1
 -24 0 l 1,5,-1
 -17 38 l 1,6,7
 29 60 29 60 72 67 c 1,8,-1
 192 633 l 1,9,10
 172 637 172 637 152.5 644 c 128,-1,11
 133 651 133 651 116 662 c 1,12,-1
 124 700 l 1,13,-1
 636 700 l 1,14,15
 632 676 632 676 624.5 645 c 128,-1,16
 617 614 617 614 608 581 c 128,-1,17
 599 548 599 548 588.5 516.5 c 128,-1,18
 578 485 578 485 567 460 c 1,19,-1
 526 460 l 1,20,-1
 501 635 l 1,21,-1
 342 635 l 1,22,-1
 222 67 l 1,0,1
EndSplineSet
Position2: "'cpsp' Capital Spacing lookup 0 subtable" dx=40 dy=0 dh=80 dv=0
EndChar

StartChar: afii10021
Encoding: 1044 1044 333
Width: 723
Flags: W
LayerCount: 2
Fore
SplineSet
690 65 m 1,0,1
 685 42 685 42 677 12.5 c 128,-1,2
 669 -17 669 -17 659 -48 c 128,-1,3
 649 -79 649 -79 637.5 -109 c 128,-1,4
 626 -139 626 -139 615 -163 c 1,5,-1
 576 -163 l 1,6,-1
 561 0 l 1,7,-1
 83 0 l 1,8,-1
 -10 -163 l 1,9,-1
 -48 -163 l 1,10,11
 -49 -138 -49 -138 -47 -107 c 128,-1,12
 -45 -76 -45 -76 -42 -44.5 c 128,-1,13
 -39 -13 -39 -13 -35 16 c 128,-1,14
 -31 45 -31 45 -27 65 c 1,15,-1
 60 65 l 1,16,17
 98 107 98 107 134.5 169 c 128,-1,18
 171 231 171 231 203 304.5 c 128,-1,19
 235 378 235 378 261 459.5 c 128,-1,20
 287 541 287 541 304 623 c 1,21,22
 279 628 279 628 251.5 638 c 128,-1,23
 224 648 224 648 206 662 c 1,24,-1
 214 700 l 1,25,-1
 788 700 l 1,26,-1
 780 662 l 1,27,28
 764 652 764 652 741 645 c 128,-1,29
 718 638 718 638 692 633 c 1,30,-1
 572 65 l 1,31,-1
 690 65 l 1,0,1
422 65 m 1,32,-1
 542 635 l 1,33,-1
 383 635 l 1,34,35
 353 519 353 519 322 427.5 c 128,-1,36
 291 336 291 336 260.5 266 c 128,-1,37
 230 196 230 196 200.5 146.5 c 128,-1,38
 171 97 171 97 144 65 c 1,39,-1
 422 65 l 1,32,-1
EndSplineSet
Position2: "'cpsp' Capital Spacing lookup 0 subtable" dx=40 dy=0 dh=80 dv=0
EndChar

StartChar: afii10024
Encoding: 1046 1046 335
Width: 1021
Flags: W
LayerCount: 2
Fore
SplineSet
531 633 m 1,0,1
 512 639 512 639 497.5 646.5 c 128,-1,2
 483 654 483 654 473 662 c 1,3,-1
 481 700 l 1,4,-1
 740 700 l 1,5,-1
 732 662 l 1,6,7
 709 646 709 646 668 633 c 1,8,-1
 613 377 l 1,9,-1
 679 393 l 1,10,-1
 873 633 l 1,11,12
 855 638 855 638 839 645.5 c 128,-1,13
 823 653 823 653 809 662 c 1,14,-1
 817 700 l 1,15,-1
 1086 700 l 1,16,-1
 1078 662 l 1,17,18
 1062 653 1062 653 1041.5 645.5 c 128,-1,19
 1021 638 1021 638 1000 633 c 1,20,-1
 762 381 l 1,21,22
 780 348 780 348 800.5 308.5 c 128,-1,23
 821 269 821 269 844 226.5 c 128,-1,24
 867 184 867 184 892.5 141 c 128,-1,25
 918 98 918 98 946 58 c 1,26,-1
 983 34 l 1,27,-1
 976 0 l 1,28,-1
 814 0 l 1,29,-1
 778 34 l 1,30,31
 734 103 734 103 709 177 c 128,-1,32
 684 251 684 251 659 329 c 1,33,-1
 602 329 l 1,34,-1
 548 67 l 1,35,36
 579 57 579 57 605 38 c 1,37,-1
 597 0 l 1,38,-1
 328 0 l 1,39,-1
 335 38 l 1,40,41
 352 47 352 47 370.5 54.5 c 128,-1,42
 389 62 389 62 411 67 c 1,43,-1
 468 338 l 1,44,-1
 402 322 l 1,45,46
 354 249 354 249 304 174.5 c 128,-1,47
 254 100 254 100 191 34 c 1,48,-1
 141 0 l 1,49,-1
 -37 0 l 1,50,-1
 -30 34 l 1,51,-1
 16 58 l 1,52,53
 61 98 61 98 102.5 141.5 c 128,-1,54
 144 185 144 185 181.5 228 c 128,-1,55
 219 271 219 271 253 310.5 c 128,-1,56
 287 350 287 350 316 382 c 1,57,-1
 197 633 l 1,58,59
 178 638 178 638 162.5 646 c 128,-1,60
 147 654 147 654 136 662 c 1,61,-1
 144 700 l 1,62,-1
 401 700 l 1,63,-1
 393 662 l 1,64,65
 379 653 379 653 358 645.5 c 128,-1,66
 337 638 337 638 316 633 c 1,67,-1
 408 386 l 1,68,-1
 478 386 l 1,69,-1
 531 633 l 1,0,1
EndSplineSet
Position2: "'cpsp' Capital Spacing lookup 0 subtable" dx=40 dy=0 dh=80 dv=0
EndChar

StartChar: afii10025
Encoding: 1047 1047 336
Width: 585
Flags: W
LayerCount: 2
Fore
SplineSet
211 -12 m 0,0,1
 144 -12 144 -12 89.5 2.5 c 128,-1,2
 35 17 35 17 6 37 c 1,3,4
 10 53 10 53 17.5 74.5 c 128,-1,5
 25 96 25 96 34 119 c 128,-1,6
 43 142 43 142 53.5 165 c 128,-1,7
 64 188 64 188 75 207 c 1,8,-1
 116 207 l 1,9,-1
 127 69 l 1,10,11
 138 62 138 62 161.5 57.5 c 128,-1,12
 185 53 185 53 206 53 c 0,13,14
 291 53 291 53 339 102 c 128,-1,15
 387 151 387 151 387 233 c 0,16,17
 387 324 387 324 279 324 c 1,18,-1
 200 311 l 1,19,20
 198 329 198 329 202.5 352.5 c 128,-1,21
 207 376 207 376 217 395 c 1,22,-1
 248 394 l 2,23,24
 265 393 265 393 288 394 c 128,-1,25
 311 395 311 395 328 397 c 1,26,27
 377 418 377 418 408 461.5 c 128,-1,28
 439 505 439 505 439 556 c 0,29,30
 439 601 439 601 417 624 c 128,-1,31
 395 647 395 647 342 647 c 1,32,33
 296 645 296 645 268 628 c 1,34,-1
 192 501 l 1,35,-1
 150 501 l 1,36,37
 149 536 149 536 150.5 579 c 128,-1,38
 152 622 152 622 162 669 c 1,39,40
 186 682 186 682 213 690 c 128,-1,41
 240 698 240 698 267.5 703 c 128,-1,42
 295 708 295 708 321 710 c 128,-1,43
 347 712 347 712 368 712 c 0,44,45
 416 712 416 712 457.5 704 c 128,-1,46
 499 696 499 696 529.5 679 c 128,-1,47
 560 662 560 662 577 634 c 128,-1,48
 594 606 594 606 594 566 c 0,49,50
 594 540 594 540 585.5 512 c 128,-1,51
 577 484 577 484 557 457.5 c 128,-1,52
 537 431 537 431 503.5 409 c 128,-1,53
 470 387 470 387 420 374 c 1,54,-1
 420 370 l 1,55,56
 442 368 442 368 464.5 359 c 128,-1,57
 487 350 487 350 505.5 333.5 c 128,-1,58
 524 317 524 317 535.5 292.5 c 128,-1,59
 547 268 547 268 547 234 c 0,60,61
 547 177 547 177 523.5 131.5 c 128,-1,62
 500 86 500 86 456 54 c 128,-1,63
 412 22 412 22 350 5 c 128,-1,64
 288 -12 288 -12 211 -12 c 0,0,1
EndSplineSet
Position2: "'cpsp' Capital Spacing lookup 0 subtable" dx=40 dy=0 dh=80 dv=0
EndChar

StartChar: afii10026
Encoding: 1048 1048 337
Width: 776
Flags: W
LayerCount: 2
Fore
SplineSet
277 0 m 1,0,-1
 -24 0 l 1,1,-1
 -17 38 l 1,2,3
 5 48 5 48 27.5 56 c 128,-1,4
 50 64 50 64 72 67 c 1,5,-1
 192 633 l 1,6,7
 172 637 172 637 152 644 c 128,-1,8
 132 651 132 651 116 662 c 1,9,-1
 124 700 l 1,10,-1
 425 700 l 1,11,-1
 417 662 l 1,12,13
 400 653 400 653 380 645.5 c 128,-1,14
 360 638 360 638 337 633 c 1,15,-1
 256 253 l 1,16,-1
 229 175 l 1,17,-1
 292 258 l 1,18,-1
 622 609 l 1,19,-1
 627 633 l 1,20,21
 605 638 605 638 586.5 645 c 128,-1,22
 568 652 568 652 554 662 c 1,23,-1
 562 700 l 1,24,-1
 863 700 l 1,25,-1
 855 662 l 1,26,27
 836 651 836 651 813 644 c 128,-1,28
 790 637 790 637 767 633 c 1,29,-1
 647 67 l 1,30,31
 669 63 669 63 688 55.5 c 128,-1,32
 707 48 707 48 723 38 c 1,33,-1
 715 0 l 1,34,-1
 414 0 l 1,35,-1
 421 38 l 1,36,37
 436 45 436 45 457.5 53.5 c 128,-1,38
 479 62 479 62 502 67 c 1,39,-1
 583 446 l 1,40,-1
 611 525 l 1,41,-1
 552 445 l 1,42,-1
 216 89 l 1,43,-1
 212 67 l 1,44,45
 234 62 234 62 252.5 54 c 128,-1,46
 271 46 271 46 285 38 c 1,47,-1
 277 0 l 1,0,-1
EndSplineSet
Position2: "'cpsp' Capital Spacing lookup 0 subtable" dx=40 dy=0 dh=80 dv=0
EndChar

StartChar: afii10029
Encoding: 1051 1051 340
Width: 696
Flags: W
LayerCount: 2
Fore
SplineSet
296 623 m 1,0,1
 266 628 266 628 240.5 639 c 128,-1,2
 215 650 215 650 198 662 c 1,3,-1
 206 700 l 1,4,-1
 783 700 l 1,5,-1
 775 662 l 1,6,7
 758 653 758 653 735 645 c 128,-1,8
 712 637 712 637 687 633 c 1,9,-1
 567 67 l 1,10,11
 588 63 588 63 607.5 55 c 128,-1,12
 627 47 627 47 642 38 c 1,13,-1
 635 0 l 1,14,-1
 327 0 l 1,15,-1
 334 38 l 1,16,17
 354 47 354 47 375 54.5 c 128,-1,18
 396 62 396 62 417 67 c 1,19,-1
 537 635 l 1,20,-1
 374 635 l 1,21,22
 338 483 338 483 306 381.5 c 128,-1,23
 274 280 274 280 244.5 214 c 128,-1,24
 215 148 215 148 187 109 c 128,-1,25
 159 70 159 70 132 42 c 0,26,27
 107 16 107 16 75 2 c 128,-1,28
 43 -12 43 -12 16 -12 c 1,29,30
 4 -7 4 -7 -4.5 8.5 c 128,-1,31
 -13 24 -13 24 -18.5 44 c 128,-1,32
 -24 64 -24 64 -26 86 c 128,-1,33
 -28 108 -28 108 -26 127 c 1,34,-1
 9 165 l 1,35,-1
 123 136 l 1,36,37
 142 164 142 164 163 203.5 c 128,-1,38
 184 243 184 243 206 301 c 128,-1,39
 228 359 228 359 250.5 438 c 128,-1,40
 273 517 273 517 296 623 c 1,0,1
EndSplineSet
Position2: "'cpsp' Capital Spacing lookup 0 subtable" dx=40 dy=0 dh=80 dv=0
EndChar

StartChar: afii10033
Encoding: 1055 1055 344
Width: 755
Flags: W
LayerCount: 2
Fore
SplineSet
276 0 m 1,0,-1
 -24 0 l 1,1,-1
 -17 38 l 1,2,3
 0 46 0 46 22 54.5 c 128,-1,4
 44 63 44 63 72 67 c 1,5,-1
 192 633 l 1,6,7
 172 637 172 637 152.5 644 c 128,-1,8
 133 651 133 651 116 662 c 1,9,-1
 124 700 l 1,10,-1
 842 700 l 1,11,-1
 834 662 l 1,12,13
 814 650 814 650 791 643.5 c 128,-1,14
 768 637 768 637 746 633 c 1,15,-1
 626 67 l 1,16,17
 663 63 663 63 701 38 c 1,18,-1
 694 0 l 1,19,-1
 394 0 l 1,20,-1
 401 38 l 1,21,22
 413 46 413 46 431 54 c 128,-1,23
 449 62 449 62 476 67 c 1,24,-1
 596 635 l 1,25,-1
 342 635 l 1,26,-1
 222 67 l 1,27,28
 257 57 257 57 283 38 c 1,29,-1
 276 0 l 1,0,-1
EndSplineSet
Position2: "'cpsp' Capital Spacing lookup 0 subtable" dx=40 dy=0 dh=80 dv=0
EndChar
